<svg xmlns="http://www.w3.org/2000/svg" viewBox="0 0 35.628 40"><g stroke-width="1.075"><path fill="#28a0f0" d="m17.924 25.81 5.518 8.66 5.096-2.954-7.246-11.421zm15.256 2.233-.003-2.367-7.918-12.333-2.938 4.985 7.644 12.362 2.764-1.601c.27-.22.435-.544.452-.892z"/><path fill="#fff" d="m0 30.274 3.903 2.25 12.987-20.83-2.204-.058c-1.878-.027-3.9.462-4.83 1.977L2.482 25.045 0 28.858Zm24.386-18.579-5.81.021L5.435 33.405l4.594 2.645 1.249-2.12z"/><path fill="#96bedc" d="M35.628 11.665a3.7 3.7 0 0 0-1.736-2.974L19.449.385a3.757 3.757 0 0 0-3.313 0C16.016.445 2.09 8.52 2.09 8.52A3.673 3.673 0 0 0 0 11.657v17.201l2.481-3.812-.021-13.272a1.222 1.222 0 0 1 .51-.922c.066-.047 14.227-8.245 14.272-8.268a1.259 1.259 0 0 1 1.09-.005l14.255 8.2c.337.215.548.579.567.977v16.44c-.017.349-.155.672-.426.892l-2.764 1.602-1.426.826-5.097 2.954-5.169 2.995a1.252 1.252 0 0 1-.88-.017l-6.115-3.517-1.25 2.118 5.497 3.165.476.27c.206.115.346.192.396.216.39.19.952.3 1.459.3.464 0 .917-.085 1.345-.253l15.014-8.695a3.67 3.67 0 0 0 1.414-2.765z"/></g></svg>