<svg xmlns="http://www.w3.org/2000/svg" viewBox="0 0 254.131 14.168"><defs><linearGradient id="a" x2="1" y1=".5" y2=".5" gradientUnits="objectBoundingBox"><stop offset="0" stop-color="#f5b700"/><stop offset="1" stop-color="#ff8b79"/></linearGradient></defs><g data-name="Group 2016"><path fill="url(#a)" d="M990.509 985.738h-7.377l-8.423-14.168h7.377Z" data-name="Path 1578" transform="translate(-863.487 -971.57)"/><g fill="#34b2e2" data-name="Group 2031" opacity=".5"><path d="M142.913 14.168h-7.377L127.113 0h7.377Z" data-name="Path 1579"/><path d="M158.799 14.168h-7.377L142.998 0h7.377Z" data-name="Path 1580"/><path d="M174.688 14.168h-7.375L158.89 0h7.377Z" data-name="Path 1581"/><path d="M190.576 14.168h-7.377L174.776 0h7.377Z" data-name="Path 1582"/><path d="M206.465 14.168h-7.377L190.665 0h7.377Z" data-name="Path 1583"/><path d="M222.354 14.168h-7.377L206.554 0h7.377Z" data-name="Path 1584"/><path d="M238.242 14.168h-7.377L222.442 0h7.377Z" data-name="Path 1585"/><path d="M254.131 14.168h-7.377L238.331 0h7.377Z" data-name="Path 1586"/></g><g fill="url(#a)" data-name="Group 2015" transform="translate(-863.487 -971.57)"><path d="M879.288 985.738h-7.377l-8.424-14.168h7.377Z" data-name="Path 1591"/><path d="M895.176 985.738H887.8l-8.423-14.168h7.377Z" data-name="Path 1592"/><path d="M911.065 985.738h-7.377l-8.423-14.168h7.377Z" data-name="Path 1593"/><path d="M926.954 985.738h-7.377l-8.423-14.168h7.377Z" data-name="Path 1594"/><path d="M942.842 985.738h-7.377l-8.423-14.168h7.377Z" data-name="Path 1595"/><path d="M958.731 985.738h-7.377l-8.423-14.168h7.377Z" data-name="Path 1596"/><path d="M974.014 985.738h-7.377l-8.423-14.168h7.377Z" data-name="Path 1597"/></g></g></svg>