<svg xmlns="http://www.w3.org/2000/svg" width="139.296" height="144.553" viewBox="0 0 139.296 144.553">
  <g id="Group_2086" data-name="Group 2086" transform="translate(-305.53 -333.138)">
    <g id="Group_1739" data-name="Group 1739" transform="translate(287.465 306.669)">
      <path id="Path_1293" data-name="Path 1293" d="M949.4,689.987l-.036-.1c-.039-.106-.077-.211-.119-.317l-.046-.115c-.093-.234-.189-.476-.3-.725a2.2,2.2,0,0,0-.43-.638,2.129,2.129,0,0,0-.552-1.362,3.828,3.828,0,0,1-.247-.546c-.041-.1-.084-.209-.131-.322a2.4,2.4,0,0,0-.55-1.148,3.033,3.033,0,0,0-.487-1.311c-.105-.4-.2-.815-.306-1.246-.05-.2-.1-.41-.148-.615a2.179,2.179,0,0,0-.137-.393l0-.061a3.749,3.749,0,0,0-.277-1.493,11.517,11.517,0,0,0-.48-1.951v0c0-.03,0-.061,0-.091a4.951,4.951,0,0,0-.059-.672,6.4,6.4,0,0,0-.153-.656c-.02-.074-.049-.176-.054-.2-.08-.682-.143-1.386-.187-2.093-.012-.2-.03-.4-.047-.6a6.281,6.281,0,0,1-.035-1.188,7.284,7.284,0,0,0-.078-1.857c-.022-.163-.045-.326-.059-.489-.017-.187-.029-.376-.042-.564a15.207,15.207,0,0,0-.169-1.6,3.4,3.4,0,0,1,.021-.4,5.61,5.61,0,0,0-.027-1.466,3.569,3.569,0,0,1,.014-.578,7.03,7.03,0,0,0,0-1.351,7.122,7.122,0,0,0,.128-1.4,4.2,4.2,0,0,1,.03-.564,2.361,2.361,0,0,0-.141-1.359,2.142,2.142,0,0,0-.446-.741c.017-.03.035-.061.052-.092.049-.093.094-.181.137-.263.079-.152.141-.271.2-.365a4.428,4.428,0,0,0,.269-.537c.011-.026.022-.052.034-.075a3.44,3.44,0,0,0,.286-1.83l0-.023a4.883,4.883,0,0,0,.1-1.694c0-.042.015-.122.024-.184a5.529,5.529,0,0,0,.067-.761c0-.3.033-.647.068-1,.007-.068.027-.175.048-.29a5.917,5.917,0,0,0,.12-1.076,1.027,1.027,0,0,1,.046-.246c.064-.224.121-.451.18-.677a5.977,5.977,0,0,1,.582-1.655,3.089,3.089,0,0,0,.424-1.2,6.266,6.266,0,0,1,.421-1.228c.1-.247.2-.5.3-.755a2.163,2.163,0,0,0,.128-.947l-.06-.675a2.154,2.154,0,0,0-1.039-1.658l-.023-.017a3.254,3.254,0,0,0-1.174-.569c-.093-.023-.186-.048-.279-.072a6.628,6.628,0,0,0-1.557-.271,2.7,2.7,0,0,0-.73-.1,3.012,3.012,0,0,0-1.642.52,2.16,2.16,0,0,0-.862-.18,2.127,2.127,0,0,0-.43.044,5.036,5.036,0,0,1-.631.066,5.845,5.845,0,0,0-1.747.317,4.031,4.031,0,0,0-.632.053,5.494,5.494,0,0,0-.641.159c-.045.014-.089.028-.134.039l-.23.023c-1.194.119-2.428.243-3.625.316-.469.028-.926.07-1.369.11-.732.066-1.425.128-2.1.128-.092,0-.184,0-.276,0s-.2,0-.3,0a20.619,20.619,0,0,0-2.1.137c-.6.059-1.158.115-1.686.115-.15,0-.288,0-.421-.013q-.167-.011-.335-.011c-.257,0-.484.017-.685.034-.137.011-.265.021-.358.021a.572.572,0,0,1-.071,0,6.318,6.318,0,0,0-1.032-.078c-.3,0-.588.016-.842.03-.152.008-.3.017-.458.021a2.889,2.889,0,0,0-.7-.086,3.331,3.331,0,0,0-1.573.429q-.184.026-.362.066a2.228,2.228,0,0,0-.266-.126l-.03-.014a2.78,2.78,0,0,0-.87-.26,3.548,3.548,0,0,0-.426-.023h-.081a11.854,11.854,0,0,0-1.9-.263c-.286-.023-.556-.045-.8-.078-.369-.049-.726-.08-1.07-.111-.293-.025-.57-.049-.824-.083l-.435-.059c-.473-.065-.961-.133-1.465-.17-.376-.029-.779-.093-1.205-.16-.337-.054-.685-.109-1.053-.152-.32-.037-.663-.1-1.025-.17a15.743,15.743,0,0,0-1.753-.255,2.787,2.787,0,0,0-.816-.119c-.068,0-.132,0-.189.005a6.985,6.985,0,0,0-1.452-.216c-.115-.008-.229-.015-.342-.027a18.132,18.132,0,0,1-2.141-.344c-.447-.1-.868-.163-1.276-.223-.219-.032-.438-.064-.657-.1-.148-.027-.3-.051-.446-.074a5.557,5.557,0,0,1-.883-.185c-.32-.115-.616-.191-.876-.259-.188-.049-.367-.094-.5-.142a8.259,8.259,0,0,0-1.249-.325c-.13-.026-.26-.051-.388-.082l-.382-.087a7.383,7.383,0,0,1-.74-.19,8.517,8.517,0,0,0-1.341-.32c-.1-.018-.194-.034-.291-.053-.257-.05-.528-.115-.815-.185-.393-.095-.8-.194-1.242-.269l-.515-.087a15.47,15.47,0,0,1-1.866-.383,3.85,3.85,0,0,0-1.091-.16c-.122,0-.241.006-.355.017a2.159,2.159,0,0,0-1.294-.449,3.5,3.5,0,0,1-.4-.068,6.479,6.479,0,0,0-1.1-.151,2.545,2.545,0,0,0-.628-.078h-.04a2.131,2.131,0,0,0-.553-.086c-.242-.005-.518-.034-.811-.064-.257-.027-.515-.053-.772-.07-.229-.014-.469-.021-.735-.021s-.559.008-.839.016l-.323.009a2.706,2.706,0,0,0-.73-.1,3.31,3.31,0,0,0-.487.038l-.081-.009a6.711,6.711,0,0,0-.788-.052h0a7.012,7.012,0,0,0-.767.055c-.09.011-.187.022-.256.026a2.151,2.151,0,0,0-1.016-.052,4.145,4.145,0,0,1-.767.054c-.168,0-.338,0-.506-.008-.2,0-.4-.008-.6-.008a9.08,9.08,0,0,0-1.242.076,3.179,3.179,0,0,0-.684-.073,4.664,4.664,0,0,0-.609.046l-.077.01c-.084,0-.169-.011-.253-.017-.2-.015-.427-.033-.681-.033-.14,0-.272.005-.4.016-1.7.14-3.419.292-5.083.44l-1.711.152c-.232.02-.465.033-.7.046a12.129,12.129,0,0,0-2.095.246,14.747,14.747,0,0,1-1.7.243l-.5.055a3.728,3.728,0,0,0-1.147.357,2.142,2.142,0,0,0-.951-.027c-.176.035-.377.054-.61.077a7.182,7.182,0,0,0-1.631.3,3.654,3.654,0,0,1-.48.06,6.331,6.331,0,0,0-1.508.273,4.066,4.066,0,0,1-.513.091c-.188.026-.4.057-.627.1-.868.173-1.593.341-2.285.53-.107.029-.214.061-.322.094-.093.029-.218.067-.271.078a4.5,4.5,0,0,0-1.28.338c-.041.016-.081.033-.117.045a2.151,2.151,0,0,0-.842.509l-.206.2a2.15,2.15,0,0,0-1.7.256,6.124,6.124,0,0,0-1.2.533c-.133.072-.26.141-.345.178-.531.225-1.035.467-1.524.7-.332.16-.665.32-1,.47l-.158.071q-.355-.3-.734-.591c1.035-1.893,1.966-3.447,2.9-4.845a38.591,38.591,0,0,1,3.747-4.8c.014-.015.026-.032.04-.048s.033-.03.049-.047l.031-.033a2.167,2.167,0,0,0,.346-.5c.43-.361.9-.771,1.422-1.239.3-.268.615-.538.966-.825a2.093,2.093,0,0,0,.286-.282,2.149,2.149,0,0,0,.34-.212,23.062,23.062,0,0,1,3.132-2.026,18.159,18.159,0,0,1,5.107-1.853l.127-.024.021-.005.017,0,.113-.023h0l.045-.009a2.155,2.155,0,0,0-.422-4.267,2.223,2.223,0,0,0-.415.04l-.065.014h0l-.1.021-.616.116-.093.02c-.1.024-.216.048-.336.074-.2.042-.408.088-.612.137-.771.179-1.664.436-2.512.682-.213.062-.423.125-.629.187-.5.15-.97.292-1.332.371a2.758,2.758,0,0,0-1.429-.389c-.1,0-.194,0-.293.014a5.374,5.374,0,0,0-1.369.254,9.33,9.33,0,0,0-1.492.606,14.532,14.532,0,0,0-3.13,2.171l-.031.028a46.1,46.1,0,0,0-8.69,11.078h0c-.04.067-.077.128-.105.178v0l0,0-.1.165a2.16,2.16,0,0,0-.24.618c-.285.412-.566.855-.838,1.322q-.626-.212-1.259-.373l-.163-1.21a2.161,2.161,0,0,0-.178-.612l-.7-1.527a2.149,2.149,0,0,0-.132-.244l-1.075-1.716a2.155,2.155,0,0,0-1.825-1.01,2.124,2.124,0,0,0-.229.012l-1.908.2a2.15,2.15,0,0,0-1,.37L819.33,634.5a2.152,2.152,0,0,0-.927,1.847l.069,1.961a2.149,2.149,0,0,0,.034.316l.187,1.014c-.035.012-.07.021-.1.035-.161.061-.3.117-.4.16h0l0,0h0l-.156.066h0l-.026.011a2.153,2.153,0,0,0-.645.427,10.5,10.5,0,0,0-2.531,1.478,14.675,14.675,0,0,0-1.145,1.01,3.174,3.174,0,0,1-.734.777,13.32,13.32,0,0,0-1.145,1.515,11.052,11.052,0,0,0-.814,1.537,3.87,3.87,0,0,1-.448,1.279,7.907,7.907,0,0,0-.291,2.228,7.055,7.055,0,0,0,.2,1.6c0,.021.01.042.016.063a6.735,6.735,0,0,0,.616,1.569,7.037,7.037,0,0,0,2.175,2.411,8.444,8.444,0,0,0,2.543,1.2,9.63,9.63,0,0,0,1.815.337c.04,0,.08,0,.121.005s.1.014.143.018l.139.009c.106.006.213.012.32.014h.008l.119,0h0l.088,0h.051a2.139,2.139,0,0,0,.76-.141h.018c.207,0,.417-.01.622-.02s.4-.03.536-.048a2.159,2.159,0,0,0,.811-.274,2.078,2.078,0,0,0,.259.016,2.158,2.158,0,0,0,.641-.1l.156-.049a13.022,13.022,0,0,0,1.621-.629l.2.38.384,1.242.215,1.511c.011.07.023.14.041.21l.4,1.627a2.183,2.183,0,0,0,.223.558l.735,1.281.424,1.306.394,1.553.021.077.451,1.535.353,1.568a2.136,2.136,0,0,0,.154.449l.619,1.309.328,1.417.386,1.63a2.151,2.151,0,0,0,.216.555l.662,1.183.261,1.315a2.169,2.169,0,0,0,.08.293l.545,1.553.483,1.474.358,1.54a2.067,2.067,0,0,0,.059.2l.535,1.579c.014.044.03.087.048.129l.526,1.277.174,1.4a2.158,2.158,0,0,0,.159.587l.661,1.537c.008.018.586,1.271.586,1.271l.17,1.358a2.166,2.166,0,0,0,.238.748l.649,1.215.271,1.322.305,1.638a2.14,2.14,0,0,0,.289.743l.679,1.091.206,1.246a2.154,2.154,0,0,0,.161.534l.583,1.291.261,1.4c.007.038.014.075.024.112l.394,1.628c.011.048.024.095.039.142l.5,1.591c.012.039.025.077.039.114l.552,1.458.4,1.51a2.152,2.152,0,0,0,.178.457l.158.3a12.173,12.173,0,0,0-1.059,1.188c-.372.475-.721.966-1.039,1.458a2.192,2.192,0,0,0-.233.486,2.155,2.155,0,0,0-.317.43,15.3,15.3,0,0,0-1.636,4.224,12.458,12.458,0,0,0-.231,4.033l0,.028a7.9,7.9,0,0,0,.2,1.174,5.2,5.2,0,0,0,.942,1.946,5.413,5.413,0,0,0,1.545,1.329,7.578,7.578,0,0,0,1.136.537l.011.005.167.065h0l.043.017a2.136,2.136,0,0,0,.722.134q.238.093.487.178c.168.054.34.1.515.15a2.137,2.137,0,0,0,.557.073l.1,0a2.172,2.172,0,0,0,.624.182l.029,0c.059.008.118.017.175.023a22.955,22.955,0,0,0,2.587.128l.419,0,.024.2a2.158,2.158,0,0,0,.208.7l.691,1.4.445,1.233.187,1.454a2.141,2.141,0,0,0,.147.548l.538,1.3.215,1.417a2.192,2.192,0,0,0,.062.278l.465,1.6a2.175,2.175,0,0,0,.073.21l.631,1.553.577,1.411.286,1.112-.286.378c-1.242,1.64-2.525,3.335-3.7,5.2l-.063.094-.161.259q-.112.175-.22.355v0l-.085.14a2.159,2.159,0,0,0-.254.636c-.051.074-.1.144-.153.222l-.031.048c-.147.232-.293.476-.435.723l-.023.043c-.1.178-.19.363-.281.552a2.749,2.749,0,0,1-.6,1.387c-.291.734-.528,1.43-.726,2.122a18.637,18.637,0,0,0-.663,3.507,16.176,16.176,0,0,0,.083,3.718,13.3,13.3,0,0,0,1.068,3.7v0l.062.143h0l.019.043a2.154,2.154,0,0,0,3.951-1.717l-.012-.028h0l-.049-.115-.235-.57c-.072-.208-.154-.492-.227-.753a7.584,7.584,0,0,1-.2-1.925,5.769,5.769,0,0,1,.171-1.2,2.827,2.827,0,0,0,1.138-.8,8,8,0,0,0,1.287-1.913c.218-.4.454-.869.722-1.436a2.161,2.161,0,0,1,.506-1.092l.217-.457.283-.544c.2-.355.411-.732.635-1.1q.368-.6.809-1.255a2.1,2.1,0,0,0,.069.216l.578,1.488.474,1.524.531,1.623.514,1.557.462,1.542.423,1.586a2.191,2.191,0,0,0,.08.239l.618,1.556a2.166,2.166,0,0,0,.314.542l1.249,1.577a2.156,2.156,0,0,0,1.5.808l1.951.172c.064.005.127.008.19.008a2.155,2.155,0,0,0,1.509-.616l1.4-1.375a2.147,2.147,0,0,0,.635-1.321l.2-2.008a2.146,2.146,0,0,0-.216-1.179l-.619-1.24-.261-1.361a2.2,2.2,0,0,0-.064-.253l-.493-1.537-.411-1.537-.386-1.6a2.144,2.144,0,0,0-.219-.553l-.73-1.295-.451-1.369-.427-1.363-.143-1.481a2.14,2.14,0,0,0-.15-.611l-.576-1.405-.374-1.474a2.1,2.1,0,0,0-.115-.336l-.13-.3,0,0c.175-.307.348-.627.516-.962.052-.105.1-.212.153-.319a3.033,3.033,0,0,1,.318-.721,12.624,12.624,0,0,0,.785-2.665,12.932,12.932,0,0,0,.036-3.973,20.291,20.291,0,0,0-.614-2.873,2.5,2.5,0,0,1-.168-.57l-.033-.1h0l-.025-.076a2.143,2.143,0,0,0-.344-.644,9.239,9.239,0,0,0-.336-.955,2.158,2.158,0,0,0-.383-.6,2.187,2.187,0,0,0-.263-.641l-.012-.021c-.031-.052-.063-.1-.1-.156l-.027-.042a9.916,9.916,0,0,0-2.313-2.467,3.773,3.773,0,0,1-.848-.562c-.027-.017-.054-.033-.081-.049a10.96,10.96,0,0,0-2.688-1.114l-.346-.646-.354-1.368c-.011-.039-.022-.078-.034-.117l-.495-1.546-.412-1.5-.322-1.577a2.185,2.185,0,0,0-.121-.394l-.638-1.539-.531-1.289-.153-1.128a1.925,1.925,0,0,0-.038-.189,9.131,9.131,0,0,0,.851-1.193,7.113,7.113,0,0,0,.929-2.691,6.322,6.322,0,0,0,.015-1.482c.365-.15.724-.3,1.072-.452.288-.125.577-.25.866-.369.1-.04.229-.083.369-.128.086-.027.169-.054.247-.08a2.153,2.153,0,0,0,.687-.386c.051-.008.1-.017.153-.029a10.566,10.566,0,0,0,1.872-.649c.276-.117.537-.228.768-.3.836-.276,1.6-.508,2.348-.708.332-.09.641-.187.94-.283a8.983,8.983,0,0,1,1.318-.35c.7-.1,1.343-.26,1.967-.411.241-.058.48-.116.717-.169a2.093,2.093,0,0,0,.373-.12,3.469,3.469,0,0,0,.973-.619,2.138,2.138,0,0,0,1.069.285c.063,0,.127,0,.191-.008q1.016-.09,2.02-.175c1.659-.143,3.374-.29,5.059-.459.045,0,.1-.007.168-.007.136,0,.3.01.473.02.218.014.465.028.729.028.207,0,.4-.009.594-.028a3,3,0,0,0,.587.057,4.118,4.118,0,0,0,.5-.034l.029,0c.075,0,.15.012.225.02.187.017.418.039.695.04a5.651,5.651,0,0,0,.667-.047l.067-.008a2.179,2.179,0,0,0,.609.088,2.113,2.113,0,0,0,.258-.016,5.758,5.758,0,0,1,.686-.039,10.649,10.649,0,0,1,1.343.1,4.091,4.091,0,0,0,.516.03c.072,0,.144,0,.216,0l.1,0a3.548,3.548,0,0,0,.742.074c.09,0,.181,0,.274-.006.03,0,.06,0,.093,0a4.041,4.041,0,0,0,.754.065c.082,0,.165,0,.248,0,.048,0,.1,0,.146,0h.03a4.119,4.119,0,0,0,.647.048c.1,0,.207,0,.312-.007.056,0,.113,0,.17,0h.021a4.262,4.262,0,0,0,.786.066c.1,0,.2,0,.3-.005.059,0,.118,0,.176,0h.021a3.333,3.333,0,0,0,.728.075c.071,0,.141,0,.212-.005a3.035,3.035,0,0,0,.817.108c.106,0,.209-.005.312-.012l.128.016a5.953,5.953,0,0,0,.725.061c.172,0,.343,0,.515,0,.254,0,.507,0,.76,0l.379,0a6.985,6.985,0,0,0,1.484.168,5.914,5.914,0,0,0,.717-.043,2.134,2.134,0,0,0,.485-.118,2.157,2.157,0,0,0,1.434.546,2.189,2.189,0,0,0,.3-.021,1.683,1.683,0,0,1,.257-.018,5.991,5.991,0,0,1,.62.047,8.885,8.885,0,0,0,.966.065h.088a4.336,4.336,0,0,1,.518.058,7.755,7.755,0,0,0,1.1.1,3.392,3.392,0,0,0,.991.132h.2a6.816,6.816,0,0,0,.828.058c.122,0,.248.006.323.014a4.276,4.276,0,0,0,.533.03c.082,0,.165,0,.247,0l.12,0a3.135,3.135,0,0,0,.862.114h.034a6.412,6.412,0,0,0,1.6.248c.109.006.217.012.325.022.188.017.4.048.619.081a11.187,11.187,0,0,0,1.318.138c.085,0,.224.023.372.043a6.946,6.946,0,0,0,.992.085q.145,0,.287-.009a2.87,2.87,0,0,0,.686.082,3.762,3.762,0,0,0,.6-.052l.118.011c.2.019.446.043.719.043a4.16,4.16,0,0,0,.486-.027c.421-.049.818-.114,1.225-.186a2.157,2.157,0,0,0,1.039.267l.094,0c.184-.008.369-.025.555-.042.159-.014.308-.029.407-.029.013,0,.027,0,.023,0a4.167,4.167,0,0,0,.738.063,6.963,6.963,0,0,0,.77-.051c.115-.012.222-.024.291-.026.422-.011.808-.05,1.182-.089.137-.015.275-.028.413-.04a2.2,2.2,0,0,0,.408-.077,2.046,2.046,0,0,0,.228.012c.063,0,.126,0,.19-.008q.768-.068,1.51-.131c1.253-.108,2.436-.209,3.638-.329.111-.011.223-.015.336-.019a5.387,5.387,0,0,0,1.735-.293,6.887,6.887,0,0,0,1.5-.365,4.422,4.422,0,0,1,.553-.163l.161-.027a6.994,6.994,0,0,0,1.322-.313,2.685,2.685,0,0,1,.31-.1,4.89,4.89,0,0,0,.579-.168l.105-.036c.108-.024.218-.04.327-.058a5.982,5.982,0,0,0,1.2-.288l.026,0a3.249,3.249,0,0,0,1.171-.334,2.9,2.9,0,0,0,.973-.342,4.323,4.323,0,0,0,.645-.136c.339-.1.656-.219.937-.323.108-.04.214-.08.32-.117a1.24,1.24,0,0,1,1.608-.674,2.156,2.156,0,0,0,.883-.189l.346-.157c.216-.1.424-.194.635-.282.238-.1.474-.2.711-.307.559-.244,1.086-.474,1.6-.641a9.8,9.8,0,0,0,2.912-1.409c.049-.036.1-.07.149-.1a4.03,4.03,0,0,0,1.2-1.148,2.153,2.153,0,0,0,.938-2.613Zm-110.86-32.378c.193.228.392.465.619.707a5.644,5.644,0,0,1,.44.588c.152.222.324.473.528.726.652.813,1.285,1.612,1.847,2.455a4.2,4.2,0,0,0,.446.548l.03.032c.346.584.69,1.195,1.022,1.785l.152.27,0,.005c.216.66.455,1.29.712,1.873s.445,1.056.6,1.489a7.886,7.886,0,0,0,.419.957,3.267,3.267,0,0,1,.216.485,4.53,4.53,0,0,0,.263.824l.042.1c.059.153.118.305.179.457.077.193.15.376.215.553a3.175,3.175,0,0,0,.317,1.219,4.264,4.264,0,0,0,.163.741,5.662,5.662,0,0,1,.164.879c.02.141.04.281.062.422a2.408,2.408,0,0,0,.289,1.113,3.294,3.294,0,0,1,.142.594,7.518,7.518,0,0,0,.317,1.252c0,.031,0,.077-.007.142a3.168,3.168,0,0,0,.264,1.466c.037.447.079.895.121,1.343.075.808.147,1.57.194,2.341.028.461.077.9.123,1.329a10.87,10.87,0,0,1,.1,2.181,12.071,12.071,0,0,0,0,1.872c.008.156.017.312.022.464a6.806,6.806,0,0,0-.151,1.68,4.055,4.055,0,0,1-.023.623c-.043.23-.066.436-.086.617-.015.125-.027.244-.042.316-.008.036-.038.134-.06.2a4.644,4.644,0,0,0-.234,1.135,3.457,3.457,0,0,0-.259,1.247c-.008.023-.016.046-.024.069a15.355,15.355,0,0,0-.692,3.01c-.009.048-.051.181-.081.278l-.021.068-.143-1.253a2.173,2.173,0,0,0-.15-.581L846,694.873l-.311-1.45a2.134,2.134,0,0,0-.172-.494l-.62-1.268-.288-1.381q-.009-.044-.02-.089l-.41-1.622a2.14,2.14,0,0,0-.079-.249l-.6-1.557c-.018-.048-.038-.094-.059-.14l-.562-1.2-.153-1.343a2.14,2.14,0,0,0-.1-.452l-.538-1.58q-.032-.091-.071-.18l-.615-1.382-.4-1.454a2.265,2.265,0,0,0-.074-.221l-.6-1.516-.525-1.488-.43-1.432-.278-1.54a2.144,2.144,0,0,0-.272-.723l-.716-1.2-.3-1.155-.148-1.537a2.141,2.141,0,0,0-.178-.672l-.653-1.462-.534-1.457-.5-1.567-.479-1.439-.274-1.509c-.01-.052-.02-.1-.034-.156l-.42-1.62a2.182,2.182,0,0,0-.15-.407l-.686-1.4-.47-1.315-.307-1.5a2.146,2.146,0,0,0-.135-.427l-.63-1.448-.111-.334a4.895,4.895,0,0,0,1.486,1.286l.024.027a4.69,4.69,0,0,0,.405.405c.041.036.132.139.206.222s.15.169.229.252c.045.048.089.1.133.149a5.09,5.09,0,0,0,.776.755,6.108,6.108,0,0,1,.461.412,8.7,8.7,0,0,0,.948.813,4.774,4.774,0,0,0,.893.856c.058.045.118.09.172.139A8.137,8.137,0,0,1,838.544,657.609Zm5.007,60.588.075.239a2.132,2.132,0,0,0,.129.32l.561,1.121.029.419-.034,0a7.358,7.358,0,0,1-1.088-.2A6.4,6.4,0,0,1,843.552,718.2Zm-26.3-68.148,0-.036a2.912,2.912,0,0,1,.554-1.272l.075-.1a2.138,2.138,0,0,0,.249-.443c.3-.276.646-.572,1.017-.864l.038-.03a7.422,7.422,0,0,1,1.589-.952l.039.24a2.146,2.146,0,0,0,.165.547l.575,1.266.179,1.089c-.045.039-.089.081-.13.124-.428.168-.87.33-1.329.474l-.111.038c-.033.011-.131.036-.2.054l-.219.055c-.072.013-.144.027-.216.042s-.162.033-.193.036l-.071.008-.3.035-.286.011c-.052,0-.1.005-.152.005-.066,0-.133,0-.23-.011A2.165,2.165,0,0,1,817.254,650.049Z" transform="translate(-792.177 -595.355)" fill="#fff"/>
      <g id="Group_1738" data-name="Group 1738" transform="translate(19.442 28.306)">
        <path id="Path_1294" data-name="Path 1294" d="M903.6,703.354a2.223,2.223,0,0,0,.482-1.341l-.519-.272a2.229,2.229,0,0,0-2.144,1.2,4.547,4.547,0,0,1-1.628-.125.6.6,0,0,0-.137-.017c-.6,0-1.2.014-1.8,0-.254,0-.508-.053-.763-.076a2.169,2.169,0,0,1-.775-.052c-.277-.116-.634.014-.977-.07-.428-.1-.908.017-1.344-.069-.412-.081-.817.019-1.205-.046s-.773.026-1.129-.052-.727.026-1.057-.054a7.889,7.889,0,0,0-.988-.05,10.39,10.39,0,0,0-2.559-.062,3.115,3.115,0,0,0-1.353-.033c-.3,0-.607-.053-.91-.061s-.619.129-.911-.07c-.015-.011-.049,0-.072.005a17.391,17.391,0,0,1-2.312.044c-2.331.234-4.667.422-7.052.631-.034-.227-.069-.458-.1-.676l-.184-.153a4.128,4.128,0,0,0-1.7.3,1.826,1.826,0,0,1-.906,1.041c-.821.184-1.667.423-2.531.552a22.2,22.2,0,0,0-2.5.684c-.827.223-1.647.474-2.462.742a24.418,24.418,0,0,1-2.437.9l.4-.539-.22-.376-.642.056-.278.484.023.265-.341.586c-.223.076-.491.151-.747.257-.7.288-1.384.6-2.083.882-.575.231-1.055.641-1.649.832-.176.057-.351.119-.531.18l-.392-.48-.54.477c-.046-.509-.242-.911-.024-1.336a9.744,9.744,0,0,1,.279-2.206,5.1,5.1,0,0,1,.146-.742,8.135,8.135,0,0,0,.276-1.057,13.4,13.4,0,0,1,.607-2.606c.055-.174.189-.369.149-.518-.122-.455.233-.8.227-1.234a5.747,5.747,0,0,1,.258-1.129c.064-.317.074-.644.134-.962a14.185,14.185,0,0,1,.226-2.437c.015-.042-.009-.1-.01-.147a18.3,18.3,0,0,1-.032-2.235,23.572,23.572,0,0,0-.216-3.859c-.08-1.3-.228-2.6-.333-3.907-.027-.335-.272-.6-.247-.958a2.22,2.22,0,0,0-.088-.952,19.315,19.315,0,0,0-.622-2.219c-.043-.08-.016-.2-.032-.292a12.073,12.073,0,0,0-.326-1.761,4.421,4.421,0,0,0-.235-.949c-.2-.306-.106-.613-.2-.9-.144-.411-.314-.812-.47-1.219a3.8,3.8,0,0,1-.2-.585,13.666,13.666,0,0,0-.711-1.719c-.189-.547-.42-1.11-.658-1.652s-.45-1.107-.637-1.676a1.364,1.364,0,0,0-.1-.258c-.437-.774-.87-1.551-1.325-2.316-.129-.217-.346-.382-.488-.594-.606-.905-1.277-1.757-1.96-2.606-.371-.462-.662-1-1.075-1.439-.5-.533-.924-1.133-1.472-1.623a3.509,3.509,0,0,1-.924-.906.3.3,0,0,0-.112-.095,19.229,19.229,0,0,1-1.573-1.331,5.54,5.54,0,0,1-.641-.663c-.194-.206-.372-.432-.584-.618a3.74,3.74,0,0,0-.708-.643,2.7,2.7,0,0,1-1.057-.97,4.076,4.076,0,0,0-.516-.58c-.174-.191-.351-.381-.521-.577-.028-.032-.027-.088-.051-.18a1.487,1.487,0,0,1,.672-.96c.772-.536,1.572-1.025,2.376-1.51a15.291,15.291,0,0,1,1.648-.832c.833-.374,1.642-.8,2.482-1.152a6.263,6.263,0,0,1,1.643-.7c.076-.009.14-.113.2-.169.488.245.966.009,1.466.041l.8-.784a4.028,4.028,0,0,1,.941-.288,5.6,5.6,0,0,0,.953-.238c.708-.193,1.417-.351,2.136-.494a11.576,11.576,0,0,0,1.4-.262c.658-.219,1.362-.125,1.987-.333a16.014,16.014,0,0,1,1.979-.309l.274.569c.051,0,.139.026.189-.007.175-.115.453-.1.474-.418a3.256,3.256,0,0,1,.989-.449,21.708,21.708,0,0,0,2.438-.338,18.4,18.4,0,0,1,2.5-.246c2.26-.2,4.52-.4,6.782-.591a9.724,9.724,0,0,1,1.13.041c.377.013.752-.156,1.138.037.132.065.339-.009.509-.034,1.085-.162,2.187.068,3.269-.138a4.53,4.53,0,0,0,1.647.008c.279,0,.558.048.836.069s.572-.154.841.071c.041.033.143-.013.217-.014.647-.008,1.3-.053,1.941-.012.558.036,1.113.126,1.674.139.243.308.622-.074.877.175a13.719,13.719,0,0,1,1.868.208l-.063.644.575.133a2.141,2.141,0,0,1,1.637-.273,22.615,22.615,0,0,0,2.628.527c.679.117,1.337.316,2.013.446a9.755,9.755,0,0,1,1.338.3c.43.148.883.23,1.328.336a12.652,12.652,0,0,1,1.4.335c.452.165.925.24,1.379.4a10.226,10.226,0,0,0,1.68.353c.611.11,1.233.171,1.839.308a20.462,20.462,0,0,0,2.391.385,6.424,6.424,0,0,1,1.639.241c.279.1.616-.1.9.106,1.024.019,2.008.314,3.014.431.783.091,1.555.261,2.348.32.584.043,1.191.14,1.779.217.619.081,1.266.108,1.886.193a19.93,19.93,0,0,1,2.614.333,4.593,4.593,0,0,0,.635.036,1.552,1.552,0,0,1,.339.128c-.108.328-.392.509-.5.708l.49.4a1.877,1.877,0,0,0,.476-.262,2.266,2.266,0,0,1,1.433-.66.78.78,0,0,0,.274-.064c.389-.192.751-.487,1.229-.222.071.039.193-.017.291-.018a11.478,11.478,0,0,1,2.011,0,16.167,16.167,0,0,0,1.652-.017c1.545.1,3.067-.273,4.6-.23,1.328.036,2.622-.159,3.932-.238,1.328-.08,2.654-.217,3.979-.35.3-.03.587-.162.886-.214a3.685,3.685,0,0,0,.877-.1,9.986,9.986,0,0,1,2.2-.351l-.327.429c-.06.353.237.449.427.622.254-.263.685-.163.921-.451a2.679,2.679,0,0,1,.761-.609c.352-.2.638-.493,1.07-.218a4.84,4.84,0,0,1,1.7.27,2.164,2.164,0,0,1,.6.342c.022.253.044.5.059.676a13.16,13.16,0,0,0-.83,2.386,1.073,1.073,0,0,1-.117.392,10.391,10.391,0,0,0-1.018,2.905,3.1,3.1,0,0,0-.127.818c0,.4-.12.78-.158,1.167s-.075.8-.078,1.195a10.13,10.13,0,0,0-.083,1.134,2.7,2.7,0,0,1-.063,1.044c-.159.471.1.94-.122,1.4a4.644,4.644,0,0,1-.207.433c-.13.216-.24.444-.39.726-.34.154-.518.585-.823.871-.1.439-.188.865-.293,1.347l-.484.565.04.448a1.263,1.263,0,0,0,.974.121l.854-.788c.019.068.071.15.059.219a15.333,15.333,0,0,1-.232,2.22.285.285,0,0,0,0,.143c.18.766-.08,1.542.052,2.311.106.62-.1,1.239.006,1.87.115.653.129,1.324.188,1.988a9.687,9.687,0,0,1,.143,1.913,12.1,12.1,0,0,0,.073,2.166q.068,1.108.2,2.211c.038.324.167.636.221.959a7.259,7.259,0,0,0,.1.954,8.344,8.344,0,0,1,.468,2.066,1.433,1.433,0,0,1,.225.959,5.351,5.351,0,0,1-.09.77l.288.073c.171.7.332,1.413.522,2.115.077.285.347.48.373.811a3.973,3.973,0,0,0,.211.811c.067.224.436.272.348.59a7.4,7.4,0,0,0,.9,1.789l-.585.7-.178.769c.255.444.652.126.969.19l.268-.319c.049.033.125.056.146.1.113.25.213.507.314.762.048.12.091.243.136.364-.309.1-.531.2-.6.421-.156.5-.585.692-.954.968a7.675,7.675,0,0,1-2.29,1.088c-.846.275-1.655.665-2.477,1.01-.336.141-.666.3-1.028.46l-.739-.393c-.2.312-.611.174-.9.454-.237.228-.623.3-.687.737-.377.135-.762.288-1.157.408-.337.1-.769.066-1.009.269-.289.244-.638.08-.928.322-.212.177-.62.106-.943.241a8.011,8.011,0,0,1-1.318.288c-.225.051-.44.15-.665.2a4.542,4.542,0,0,0-.6.182,6.316,6.316,0,0,1-1.1.239,11.594,11.594,0,0,1-2.205.521,4.182,4.182,0,0,1-1.77.3c-1.665.165-3.334.3-5.125.458l.484-.581c-.359-.415-.37-.416-1-.1l-.313.754c-.49.043-.974.109-1.459.121a6.525,6.525,0,0,1-1.371.046,6.856,6.856,0,0,0-1.456.041l-.439-.406c-.751.127-1.408.263-2.071.34a6.089,6.089,0,0,1-1.056-.046c-.328-.021-.661.172-.991-.052-.079-.053-.239.01-.362.024a10.726,10.726,0,0,1-1.535-.114c-.612-.02-1.2-.157-1.809-.212a5.648,5.648,0,0,1-1.639-.237c-.26-.1-.538.016-.833-.087a5.847,5.847,0,0,0-1.195-.077c-.379-.045-.768-.012-1.127-.071s-.76.073-1.088-.172a15.344,15.344,0,0,1-2.041-.135A13.556,13.556,0,0,0,903.6,703.354ZM857.314,670.44c-.307-.507-.534-.89-.771-1.268a19.763,19.763,0,0,1-1.262-2.038,27.693,27.693,0,0,0-1.843-3.122,33.565,33.565,0,0,0-2.333-2.948c-.35-.433-.707-.862-1.08-1.315l-.777.305a1,1,0,0,0,.078.2c.439.645.906,1.272,1.352,1.911a13.356,13.356,0,0,0,.933,1.367,6.767,6.767,0,0,1,.859,1.4c.237.442.54.854.73,1.314a4.688,4.688,0,0,1,.613,1.454c.6.9.934,1.929,1.465,2.858a7.265,7.265,0,0,1,.708,1.938c.093.389.229.757.348,1.135a6.281,6.281,0,0,1,.563,2.175,6.266,6.266,0,0,0,.065.811,1.225,1.225,0,0,1,.383.882c.084.691.213,1.376.323,2.064,0,.024,0,.054.007.073a7.62,7.62,0,0,1,.629,2.438c.258,1.1.119,2.28.477,3.382.055,1.809.489,3.574.639,5.447.331.033.638.291,1.045.172-.045-.5-.09-.969-.126-1.435a10.084,10.084,0,0,1,0-1.353,9.662,9.662,0,0,0-.167-2.06c-.114-.7.043-1.4-.023-2.091-.079-.834-.133-1.671-.226-2.5a17.613,17.613,0,0,0-.323-2.365,16,16,0,0,1-.25-2.5q-.03-.357-.063-.715a7.994,7.994,0,0,1,.644,1.833c.152.616.339,1.248.534,1.862s.2,1.312.419,1.926l.676-.06c-.017-.191-.044-.36-.045-.527-.006-1.2-.368-2.35-.462-3.537-.018-.221.041-.507-.074-.65-.25-.307-.078-.685-.232-.963a2.622,2.622,0,0,1-.223-1.04c-.027-.22-.04-.442-.057-.628-.172-.254-.277-.565-.491-.691-.323-.191-.074-.569-.357-.763-.118-.081-.094-.349-.167-.519-.2-.461-.406-.918-.619-1.373a27.1,27.1,0,0,0-1.313-2.706,4.308,4.308,0,0,1-.329-.6,12.386,12.386,0,0,0-.676-1.252l-.643.057a14.263,14.263,0,0,0,.86,2.219A4.71,4.71,0,0,1,857.314,670.44Zm2.1,21.641a26.164,26.164,0,0,1-.2,2.8c.215.276.46.156.684.107a3.821,3.821,0,0,1,.042-.4,3.925,3.925,0,0,0,.17-.725,4.954,4.954,0,0,1,.171-1.158.538.538,0,0,0-.255-.676Zm81.457-4.577c-.375-.193-.575.224-.853.159a4.576,4.576,0,0,0-.442.539,3.3,3.3,0,0,0-.257.63c-.018.055.027.13.043.2l.647-.057A3.019,3.019,0,0,0,940.867,687.5Zm-81.836,11.6c.3-.968.346-2.006.717-3.009l-.584.052a16.3,16.3,0,0,0-.32,2.946ZM847.32,657.5A11.1,11.1,0,0,0,848.345,659l.665-.059-.021-.238-1.068-1.251Zm13.619,25.245c.063.713.121,1.366.179,2.034l.369-.033c.314-.682.009-1.357.036-2.053Zm22.78,13.282c-.389.039-.782.005-1.065.284l-.149.428.416.415a2.249,2.249,0,0,1,.4-.2,2.958,2.958,0,0,1,.461-.047A.546.546,0,0,0,883.719,696.031Zm-6.77-20.45.42.12-.055.134,1.181-.255.162-.523c-.366-.335-.751-.183-1.116-.177Zm-22.417-12.3a1.151,1.151,0,0,0-.052.3.969.969,0,0,0,.1.253,5.714,5.714,0,0,1,.426.849,1.485,1.485,0,0,0,.419.683l.533-.047c-.217-.345-.411-.671-.622-.984A2.742,2.742,0,0,0,854.532,663.284ZM845.34,655.3a3.466,3.466,0,0,0,.936,1.124l.3-.275C846.119,655.858,845.827,655.448,845.34,655.3ZM884,651.289a2.224,2.224,0,0,0,.4-.258,1.32,1.32,0,0,0,.172-.38l-.893.079-.175.367Zm-22.717,36.318c0-.554.391-1.071.174-1.667l-.272.08C861.415,686.549,861,687.085,861.282,687.607Zm1.841,9.723c-.124.149-.237.284-.358.428l.433.129c.089-.162.162-.294.235-.428ZM914.1,678.386l.292.37.386-.257-.024-.171Zm19.166-15.792c-.085.226-.367.292-.15.59l.489-.3Zm-79.646-.808c.046.327.046.327.366.413Zm4.927,38.988.049,0-.013-.148-.049,0Zm.216-.365,0-.049-.148.013,0,.049ZM853.466,661.7l.049,0-.013-.148-.049,0Z" transform="translate(-818.495 -629.144)" fill="#f5b700"/>
        <g id="Group_1689" data-name="Group 1689" transform="translate(8.261 11.34)">
          <path id="Path_1295" data-name="Path 1295" d="M846,715.607l.429,1.616L847,718.3c.8-.521,1.466-1.325,2.3-1.8.66-.374,1.318-.73,1.951-1.126l-.625-1.314-.486-1.6-.366-1.637-.691-1.527-.432-1.615-.193-1.7-.641-1.545-.353-1.642-.738-1.511-.343-1.646-.41-1.623-.6-1.557-.713-1.518-.193-1.7-.538-1.58-.68-1.53-.443-1.611-.615-1.552-.555-1.573-.48-1.6-.3-1.66-.876-1.465-.419-1.619-.164-1.707-.684-1.529-.575-1.567-.511-1.588-.527-1.584-.3-1.66-.42-1.62-.739-1.512-.561-1.572-.338-1.648-.668-1.536-.526-1.583-.165-1.078a16.729,16.729,0,0,1-1.82,1.84l.234.757,1.062,2.137.613,1.45.54,1.48.349,1.563.653,1.377.112,1.533.781,1.476.373,1.617.614,1.517.661,1.151.528,1.406.14,1.523,1.093,2.134.631,1.318.323,1.425.194,1.3.308,1.268.3,1.561.635,1.46.361,1.543.206,2.061.842,1.85.322,2,.49,2,.471,2,.185,1.261.344,1.218.591,2.42-.08.751-.6-1.486-.644-1.59-.085-1.674-.711-1.509-.3-1.768-.282-1.777-.883-1.6-.234-1.789-.643-1.525-.314-1.633-.431-1.6-.548-1.553-.669-1.849-.288-1.978-.907-1.289-.312-1.508-.568-1.36-.322-1.441-.418-1.325-.429-1.308-.452-1.188-.211-2.053-.691-1.882-.861-1.812-.917-1.78-.125-1.439-.644-1.261-.345-1.3.057-1.353-.369-.687c-.688.592-1.375,1.226-2.122,1.759l.148.419.782,1.5.492,1.593.239,1.68.4,1.626.845,1.475.515,1.586.411,1.621.471,1.6.368,1.636.717,1.518.379,1.633.386,1.63.827,1.48.328,1.65.553,1.574.519,1.586.379,1.633.535,1.58.635,1.545.21,1.691.661,1.538.7,1.522.212,1.69.8,1.491.337,1.647.309,1.657.905,1.454.275,1.668.689,1.527.309,1.658.394,1.628.5,1.591Z" transform="translate(-824.443 -643.933)" fill="#f5b700"/>
          <path id="Path_1296" data-name="Path 1296" d="M866.675,763.243l-.753-1.5-.6-1.557L865.1,758.5l-.623-1.55-.558-1.572-.536-1.58-.26-1.673-.557-1.572-.8-1.49-.42-1.619-.509-1.589-.443-1.611-.336-1.648-.641-1.544-.637-1.545-.19-1.4c-.32.218-.647.428-.979.638a16.1,16.1,0,0,0-3.183,2.7l.276,1.182.455,1.607.5,1.592.754,1.506.119,1.721.522,1.584.707,1.521.729,1.515.2,1.692.746,1.509.566,1.57.217,1.689.638,1.545.254,1.676.466,1.6.629,1.548.633,1.548.394,1.536a29.032,29.032,0,0,0,3.089-5.177.772.772,0,0,1,.3-.7c.036-.086.071-.171.106-.257Z" transform="translate(-830.528 -663.023)" fill="#f5b700"/>
          <path id="Path_1297" data-name="Path 1297" d="M876.768,795.511l-.317-1.653-.508-1.588-.431-1.614-.393-1.627-.833-1.478-.522-1.585-.5-1.592-.164-1.705-.634-1.546-.411-1.621-.131-.3a16.618,16.618,0,0,1-1.051,1.532,30.406,30.406,0,0,1-2.032,2.377c-.173.386-.359.767-.554,1.142l.014.024.521,1.585.221,1.688.6,1.557.495,1.595.521,1.587.523,1.585.48,1.6.433,1.618.618,1.556,1.249,1.576,1.952.173,1.4-1.375.2-2.009Z" transform="translate(-833.868 -672.929)" fill="#f5b700"/>
          <path id="Path_1298" data-name="Path 1298" d="M824.578,647.166l.481,1.6.269,1.669.694,1.526.273,1.668.039.082a15.4,15.4,0,0,0,2.123-1.641l-.331-.635.307.345.058.258a5.807,5.807,0,0,0,1.338-1.873.951.951,0,0,1,.484-.518l-.282-.8-.5-1.594-.508-1.59-.632-1.55-.228-1.687-.7-1.527-1.076-1.716-1.908.2-1.542,1.066.069,1.962.306,1.657.691,1.526Z" transform="translate(-822.94 -639.185)" fill="#f5b700"/>
        </g>
        <g id="Group_1711" data-name="Group 1711" transform="translate(26.124 79.212)">
          <g id="Group_1710" data-name="Group 1710">
            <g id="Group_1693" data-name="Group 1693" transform="translate(6.868 40.28)">
              <g id="Group_1690" data-name="Group 1690" transform="translate(1.107 20.818)">
                <path id="Path_1299" data-name="Path 1299" d="M856.983,809.457c-.037-.086.382-.266.346-.352C857.376,809.214,857.02,809.543,856.983,809.457Z" transform="translate(-856.981 -809.105)" fill="#f5b700"/>
              </g>
              <g id="Group_1691" data-name="Group 1691" transform="translate(0 0.253)">
                <path id="Path_1300" data-name="Path 1300" d="M863.726,784.8c-1.089,1.141-2.119,2.235-2.647,1.883-.192-.131-.237.146-.46.272-.407.166-1.273.086-1.81.7-.274.3-.3.866-.571,1.265-.129.2-.257.417-.385.639-.081.15-.239.3-.317.461.141.061.045.187.073.343.036.205.366.576.227.706-.171.158-.822-.087-1.02.036-.249.629-.038,1.467-.225,2.122a16.453,16.453,0,0,0-.874,3.041,14.332,14.332,0,0,0-.139,3.273,11.676,11.676,0,0,0,1.267,3.091c-.057-.138-.051-.386-.164-.66s-.5-.523-.6-.9a10.417,10.417,0,0,1,.014-2.585,5.965,5.965,0,0,1,.533-2.169c.238-.571.325-.863.635-.811.228.036.26-.348.408-.538a6.532,6.532,0,0,0,.814-1.486c.219-.4.835-.665,1.067-1.154-.088-.147-.354-.289-.38-.455-.065-.414.458-.615.793-.688.194-.192-.132-.353-.01-.6.152-.305.233-.272.393-.572.224-.4.587-.735.832-1.131.485-.792.85-1.69,1.4-2.462.53-.744,1.165-1.429,1.727-2.172s1.051-1.494,1.606-2.24A29.407,29.407,0,0,1,863.726,784.8Z" transform="translate(-855.523 -782.01)" fill="#f5b700"/>
              </g>
              <g id="Group_1692" data-name="Group 1692" transform="translate(10.617)">
                <path id="Path_1301" data-name="Path 1301" d="M869.727,781.713c-.049.068-.167-.019-.216.048C869.574,781.676,869.777,781.646,869.727,781.713Z" transform="translate(-869.511 -781.676)" fill="#f5b700"/>
              </g>
            </g>
            <g id="Group_1697" data-name="Group 1697" transform="translate(9.733 25.816)">
              <g id="Group_1694" data-name="Group 1694" transform="translate(0 20.316)">
                <path id="Path_1302" data-name="Path 1302" d="M859.327,789.574c.045-.074-.024-.115.02-.188C859.29,789.479,859.283,789.647,859.327,789.574Z" transform="translate(-859.298 -789.386)" fill="#f5b700"/>
              </g>
              <g id="Group_1695" data-name="Group 1695" transform="translate(0.566 0.954)">
                <path id="Path_1303" data-name="Path 1303" d="M871.639,766.289a17.3,17.3,0,0,0-.871-2.413,10.67,10.67,0,0,1,.582,3.435,6.022,6.022,0,0,1-.355,2.335c-.3.57-.664.684-.965.591-.225-.067-.456.154-.637.316a8.9,8.9,0,0,0-1.085,1.343c-.459.567-.792,1.381-1.341,2.191-.715,1.069-1.905,1.83-2.7,2.883-.777,1.028-1.472,2.139-2.246,3.208-.756,1.043-1.247,2.264-1.926,3.4.072-.116-.141-.5,0-.727s.5-.381.7-.672a20.334,20.334,0,0,1,1.449-1.862c1.092-1.194,2.344-2.373,2.849-1.992.184.139.366.656.591.549.822-.275,2-1.794,3.164-3.522.008-.011.057.023.064.012a25.1,25.1,0,0,0,1.31-2.781c.045-.093.152-.1.2-.194-.013-.038.022-.012.017-.055-.025-.237.274-.423.462-.517a10.612,10.612,0,0,0,.726-2.2A11.013,11.013,0,0,0,871.639,766.289Z" transform="translate(-860.044 -763.876)" fill="#f5b700"/>
              </g>
              <g id="Group_1696" data-name="Group 1696" transform="translate(11.501)">
                <path id="Path_1304" data-name="Path 1304" d="M874.639,762.639c.028.086-.212.165-.184.251C874.419,762.779,874.611,762.552,874.639,762.639Z" transform="translate(-874.451 -762.62)" fill="#f5b700"/>
              </g>
            </g>
            <g id="Group_1701" data-name="Group 1701" transform="translate(7.929 19.28)">
              <g id="Group_1698" data-name="Group 1698" transform="translate(10.368 15.551)">
                <path id="Path_1305" data-name="Path 1305" d="M870.585,774.562c.036-.067.16,0,.2-.066C870.735,774.581,870.55,774.628,870.585,774.562Z" transform="translate(-870.581 -774.496)" fill="#f5b700"/>
              </g>
              <g id="Group_1699" data-name="Group 1699" transform="translate(0.178)">
                <path id="Path_1306" data-name="Path 1306" d="M870.327,760.984a9.015,9.015,0,0,0-.8-1.751c-.184-.024-.219-.186-.325-.323a.66.66,0,0,1-.2-.618c-.028-.046-.311.1-.341.052-.008-.012.311-.225.3-.237a7.825,7.825,0,0,0-1.854-1.912.694.694,0,0,1-.226.1c-.306.025-.736-.225-.768-.478-.018-.011.252-.021.234-.032a9.522,9.522,0,0,0-3.145-1.1,17.106,17.106,0,0,0-3.118.012c-1.026-.005-1.991-.7-2.935-.694.254,0,.8.6,1.5.615a17.789,17.789,0,0,1,2.344.264c.833.127,1.819-.223,2.369.076a.93.93,0,0,1,.434,1.148c-.065.225.476.253.638.431a9.1,9.1,0,0,0,1.006,1.271,13.7,13.7,0,0,1,1.075,1.935c.438.665,1.278,1.247,1.531,2.091a16.079,16.079,0,0,1,.027,2.731,7.8,7.8,0,0,1,.093,2.46,9.9,9.9,0,0,1-1.235,2.2c.109-.213.827-.426,1.066-.981a12.748,12.748,0,0,0,.245-2c.317-1.332.511-2.986,1.142-3.106.228-.042.581.107.649-.14A4.171,4.171,0,0,0,870.327,760.984Z" transform="translate(-857.155 -754.008)" fill="#f5b700"/>
              </g>
              <g id="Group_1700" data-name="Group 1700" transform="translate(0 0.43)">
                <path id="Path_1307" data-name="Path 1307" d="M856.944,754.59c.08,0,.08-.014.159-.015C857,754.576,856.865,754.592,856.944,754.59Z" transform="translate(-856.92 -754.575)" fill="#f5b700"/>
              </g>
            </g>
            <g id="Group_1705" data-name="Group 1705" transform="translate(1.115 12.766)">
              <g id="Group_1702" data-name="Group 1702" transform="translate(15.251 10.458)">
                <path id="Path_1308" data-name="Path 1308" d="M868.156,759.259c-.052-.037-.067-.016-.119-.053C868.1,759.253,868.208,759.3,868.156,759.259Z" transform="translate(-868.037 -759.206)" fill="#f5b700"/>
              </g>
              <g id="Group_1703" data-name="Group 1703" transform="translate(0 0.135)">
                <path id="Path_1309" data-name="Path 1309" d="M862.083,755.277c-.53-.232-1.448.222-2.153.036-1.409-.37-2.993-1-3-1.645,0-.23.025-.288-.2-.4a4.838,4.838,0,0,0-1.7-.55c-.758-.138-1.633-.251-2.534-.351-.011,0,0-.093-.011-.095a7.875,7.875,0,0,1-2.267-.939c-.164-.073-.553.333-.616.282-.031-.025.278-.353.27-.363s-.527.306-.538.282c-.021-.039.528-.367.5-.541-.016-.087-.663-.1-.675-.2s.6-.261.594-.363a8.809,8.809,0,0,1,.954-4.826,13.316,13.316,0,0,1-.342,1.325,13.983,13.983,0,0,0-.757,1.861c-.2.674-.331,1.337-.47,1.859a1.651,1.651,0,0,1-.783,1.12c-.222.056-.407.026-.4.34-.028.254.212.549.477.9a3.44,3.44,0,0,0,.861,1.012,7.291,7.291,0,0,0,1.412.354c.133.043.219.612.358.649.244-.071.565-.72.806-.658a.7.7,0,0,1,.409.467c.053.007-.112-.023-.058-.017a23.409,23.409,0,0,0,2.964.16c1.034-.016,2.023.4,2.969.414a9.065,9.065,0,0,1,4.458.926C862.4,756.2,862.433,755.426,862.083,755.277Z" transform="translate(-847.943 -745.604)" fill="#f5b700"/>
              </g>
              <g id="Group_1704" data-name="Group 1704" transform="translate(2.518)">
                <path id="Path_1310" data-name="Path 1310" d="M851.756,745.66c-.025.042-.474-.264-.5-.22C851.3,745.356,851.7,745.709,851.756,745.66Z" transform="translate(-851.26 -745.427)" fill="#f5b700"/>
              </g>
            </g>
            <g id="Group_1709" data-name="Group 1709">
              <g id="Group_1706" data-name="Group 1706" transform="translate(2.465 21.462)">
                <path id="Path_1311" data-name="Path 1311" d="M849.988,756.887c-.089-.035-.176.188-.266.154C849.837,757.085,850.077,756.922,849.988,756.887Z" transform="translate(-849.722 -756.883)" fill="#f5b700"/>
              </g>
              <g id="Group_1707" data-name="Group 1707" transform="translate(0 0.753)">
                <path id="Path_1312" data-name="Path 1312" d="M858.331,729.6c.05.15-.355.415-.322.609a3.283,3.283,0,0,1,0,1.223,4.2,4.2,0,0,1-.22,1.452c-.26.46-.3,1.1-.63,1.426a6.135,6.135,0,0,1-2.092,1.1c-.538.231-1.2.465-1.416.231-.156-.172-.085-.089-.33-.02a3.534,3.534,0,0,0-1.716.554,9.758,9.758,0,0,0-1.973,2.027c-.324.414-.483.849-.773,1.3.084.086.183.016.212.157.019.089-.423.055-.5.087-.192.075-.11.474-.288.578a12.5,12.5,0,0,0-1.256,3.57,9.852,9.852,0,0,0-.405,3.242c.032.281-.215.606-.123.963s.5.644.8,1.024a2.919,2.919,0,0,0,.915.726,4.266,4.266,0,0,0,.854.277c-.143-.057-.528.266-.846.091a3.721,3.721,0,0,1-1.12-1.08c-.193-.276-.033-.685-.11-.964s-.267-.48-.288-.71a7.408,7.408,0,0,1,.118-1.342,6.808,6.808,0,0,1,.32-2.364c.159-.272.275-.66.443-.784a1.061,1.061,0,0,1,.732-.013c.22.07.442.257.618.095a8.981,8.981,0,0,0,1.106-1.367c.456-.558.985-1.219,1.56-1.957.007-.008.084.052.091.043a22.572,22.572,0,0,1,1.615-2.311c.648-.646,1.592-1.009,2.3-1.636a10.932,10.932,0,0,0,2.126-2.551,5.122,5.122,0,0,0,.868-1.834A4.334,4.334,0,0,0,858.331,729.6Z" transform="translate(-846.475 -729.599)" fill="#f5b700"/>
              </g>
              <g id="Group_1708" data-name="Group 1708" transform="translate(11.631)">
                <path id="Path_1313" data-name="Path 1313" d="M861.917,728.633c.062.119-.153.231-.092.349C861.747,728.83,861.856,728.514,861.917,728.633Z" transform="translate(-861.798 -728.607)" fill="#f5b700"/>
              </g>
            </g>
          </g>
        </g>
        <g id="Group_1737" data-name="Group 1737" transform="translate(0 0)">
          <g id="Group_1736" data-name="Group 1736">
            <g id="Group_1712" data-name="Group 1712" transform="translate(41.271 0.24)">
              <path id="Path_1314" data-name="Path 1314" d="M866.436,624.561c.052-.01-.024.165.005.159C866.4,624.64,866.5,624.548,866.436,624.561Z" transform="translate(-866.431 -624.559)" fill="#f5b700"/>
            </g>
            <g id="Group_1713" data-name="Group 1713" transform="translate(41.131)">
              <path id="Path_1315" data-name="Path 1315" d="M866.469,624.244a1.738,1.738,0,0,1-.222.353C866.228,624.421,866.5,624.237,866.469,624.244Z" transform="translate(-866.246 -624.244)" fill="#f5b700"/>
            </g>
            <g id="Group_1714" data-name="Group 1714" transform="translate(19.897 14.729)">
              <path id="Path_1316" data-name="Path 1316" d="M838.594,643.65c-.035.058-.3-.024-.324.019C838.3,643.617,838.564,643.7,838.594,643.65Z" transform="translate(-838.27 -643.65)" fill="#f5b700"/>
            </g>
            <g id="Group_1715" data-name="Group 1715" transform="translate(20.24 0.489)">
              <path id="Path_1317" data-name="Path 1317" d="M859.163,624.894c-.269.064-.552.313-.911.4-.72.167-1.708-.1-2.534.136s-1.534.8-2.17.921-1.349.288-1.511.018c-.117-.2-.1-.492-.376-.454a3.218,3.218,0,0,0-.912.154c-.347.1-.62.524-1.037.732a11.661,11.661,0,0,0-2.722,1.7c-.011.01-.062-.047-.074-.037-.84.758-1.35,1.822-2.1,2.651s-1.435,1.7-2.118,2.592-1.783,1.489-2.4,2.426-1,2.036-1.57,3a20.517,20.517,0,0,1,2.163-3.724c1.187-1.428,2.788-2.388,3.278-1.982.181.146.48.488.729.364.9-.313,2.065-2.065,3.691-3.526.341-.307.907-.369,1.261-.658-.043-.159-.25-.309-.27-.464-.018-.137.295-.028.406-.042a1.05,1.05,0,0,1,.7.263c1.085-.829,1.918-2.135,3.113-2.774a22.12,22.12,0,0,1,3.019-.915,18.686,18.686,0,0,1,3.031-.585C859.707,625.119,859.434,624.843,859.163,624.894Z" transform="translate(-838.722 -624.888)" fill="#f5b700"/>
            </g>
            <g id="Group_1716" data-name="Group 1716" transform="translate(19.831 14.956)">
              <path id="Path_1318" data-name="Path 1318" d="M838.61,643.949c-.062.106-.5.371-.416.408C838.329,644.413,838.563,644.032,838.61,643.949Z" transform="translate(-838.183 -643.949)" fill="#f5b700"/>
            </g>
            <g id="Group_1717" data-name="Group 1717" transform="translate(28.235 7.889)">
              <path id="Path_1319" data-name="Path 1319" d="M849.256,634.637l.137.119Z" transform="translate(-849.256 -634.637)" fill="#f5b700"/>
            </g>
            <g id="Group_1718" data-name="Group 1718" transform="translate(28.125 7.788)">
              <path id="Path_1320" data-name="Path 1320" d="M849.113,634.5c-.043.047.432.49.389.537C849.539,635,849.092,634.528,849.113,634.5Z" transform="translate(-849.11 -634.505)" fill="#f5b700"/>
            </g>
            <g id="Group_1719" data-name="Group 1719" transform="translate(28.366 7.993)">
              <path id="Path_1321" data-name="Path 1321" d="M849.428,634.782c.02-.021.18.008.171.028S849.443,634.766,849.428,634.782Z" transform="translate(-849.428 -634.775)" fill="#f5b700"/>
            </g>
            <g id="Group_1720" data-name="Group 1720" transform="translate(2.705 22.942)">
              <path id="Path_1322" data-name="Path 1322" d="M829.788,656.568a9.481,9.481,0,0,1-1.825,1.8c-.6.352-1.046.313-1.258.077-.156-.17-.521-.459-.779-.384-.461.071-.992.757-1.752,1.068s-1.745.37-2.695.67c-.011,0-.043-.056-.055-.052-.226.083-.412.166-.641.232-.234.037-.386.582-.62.6-.175.018-.236-.557-.411-.538-.116.009-.185.551-.3.558-.239.014-.447-.418-.669-.437a4.022,4.022,0,0,1-2.291-.639,2.024,2.024,0,0,1-.641-.759,2.3,2.3,0,0,1-.015-1.022,4.841,4.841,0,0,1,.732-2.457,5.285,5.285,0,0,0-.861,1.173c-.261.573.162,1.366.2,1.967a2.706,2.706,0,0,0,.564,1.453,1.654,1.654,0,0,1,.213,1.371c-.1.207-.285.553-.061.758a4.124,4.124,0,0,0,2.185,1.186c.128.02.33-.364.464-.349s.274-.076.41-.066c.278.024.563.46.861.446.119-.005.287-.241.407-.257.035-.157-.279-.546-.2-.685.152-.251.792-.216,1.068-.116a.773.773,0,0,1,.4.472c.046-.014.143.128.19.111a12.693,12.693,0,0,0,1.672-.881,14.369,14.369,0,0,0,1.608-.89,16.433,16.433,0,0,0,2.814-2.287,25.4,25.4,0,0,0,3.2-4.216c0-.026.156.054.165.027A23.221,23.221,0,0,1,829.788,656.568Z" transform="translate(-815.619 -654.471)" fill="#f5b700"/>
            </g>
            <g id="Group_1721" data-name="Group 1721" transform="translate(20.014 20.246)">
              <path id="Path_1323" data-name="Path 1323" d="M844.829,657.837c-1.045-1.328-2.564-2.536-2.178-3.052.14-.185.181-.208.04-.456-.187-.446-.771-.825-1.427-1.449-.541-.509-.924-1.437-1.7-1.962-.2.365-.786.638-1,1-.249.414.113.846-.143,1.253.738.475,1.362.879,2.09,1.372.9.611,1.8,1.235,2.612,1.9a17.9,17.9,0,0,1,1.944,2.448,10.829,10.829,0,0,1,1.583,2.448c-.114-.236-.432-.675-.808-1.271A16.612,16.612,0,0,0,844.829,657.837Z" transform="translate(-838.424 -650.918)" fill="#f5b700"/>
            </g>
            <g id="Group_1722" data-name="Group 1722" transform="translate(7.596 17.128)">
              <path id="Path_1324" data-name="Path 1324" d="M825.938,647.065a8.886,8.886,0,0,1,2.676.287,1.286,1.286,0,0,1,.808,1.24c-.056.222-.177.6.025.782a11.388,11.388,0,0,0,1.22.787c.245-.386.494-.9.734-1.293a5.035,5.035,0,0,0,.494-.908,14.649,14.649,0,0,0-3.485-.609,13.73,13.73,0,0,0-3.627-.517,12.707,12.707,0,0,0-2.72.754c.289-.093.569-.411.947-.492A10.979,10.979,0,0,1,825.938,647.065Z" transform="translate(-822.063 -646.81)" fill="#f5b700"/>
            </g>
            <g id="Group_1723" data-name="Group 1723" transform="translate(11.014 8.182)">
              <path id="Path_1325" data-name="Path 1325" d="M841.016,638.09c-1.191,1.3-2.412,2.552-2.951,2.212a.547.547,0,0,0-.643-.064,5.488,5.488,0,0,0-1.673,1.346,20.437,20.437,0,0,0-1.333,2.884c-.007.013-.339-.168-.346-.155-.123.227-.162.5-.285.721a2.8,2.8,0,0,1-.485,1.14c-.438.726-1.162,1.257-1.646,1.953-.024.036.5.431.469.453-.321.52-.621,1.068-.969,1.559a18.882,18.882,0,0,1-2.294,2.142,13.968,13.968,0,0,1-2.294,1.945c.113-.074.176-.356.4-.5s.631-.13.916-.351c.575-.434,1.024-1.234,1.644-1.809,1.251-1.149,2.589-2.223,3.131-1.878.2.127.52.368.757.21a5.59,5.59,0,0,0,.921-.943c.071.045-.194-.17-.121-.124a20.583,20.583,0,0,1,1.954-2.373c.017-.023.09-.019.109-.035.137-.232.176-.533.308-.777.52-.966,1.224-1.809,1.773-2.74s.8-2.065,1.4-2.968,1.608-1.481,2.264-2.326,1.17-1.8,1.9-2.586C843.521,635.442,842.192,636.773,841.016,638.09Z" transform="translate(-826.566 -635.024)" fill="#f5b700"/>
            </g>
            <g id="Group_1724" data-name="Group 1724" transform="translate(0 17.882)">
              <path id="Path_1326" data-name="Path 1326" d="M827.281,650.438a16.026,16.026,0,0,0-2.18-1.072c-.807-.172-1.708.2-2.322.072s-1.078-.5-1.137-.811c-.039-.228-.092-.581-.379-.64a4.628,4.628,0,0,0-2.344-.061,8.9,8.9,0,0,0-3.083,1.735c-.342.27-.282.861-.592,1.164-.052.252-.53.216-.776.337-.055.027-.254-.061-.315-.051-.341.391-.417,1.024-.706,1.47a9.512,9.512,0,0,0-.868,1.17.657.657,0,0,1,.238.425c.008.305-.182.385-.45.467-.01,0,.035.122.024.124a5.822,5.822,0,0,0-.338,1.641,5.243,5.243,0,0,0,.087,1.168,4.993,4.993,0,0,0,.549,1.069,5.188,5.188,0,0,0,1.45,1.818,6.858,6.858,0,0,0,1.938.982c.467.135,1.021-.278,1.494-.234a5.768,5.768,0,0,1-1.437-.221c-.457-.152-1.191.069-1.668-.244s-.738-1.018-1.086-1.514a4.572,4.572,0,0,1-.957-1.533,3.429,3.429,0,0,1,.291-1.443c.1-.376.041-.878.2-1.05s.586-.058.741-.02c.227.054.339-.071.523-.254.348-.279.612-.91,1.162-1.45.562-.556,1.421-1.019,2.21-1.639.01-.008-.1-.15-.093-.157a10.091,10.091,0,0,1,2.712-1.155,10.251,10.251,0,0,1,2.8-.909,11.917,11.917,0,0,1,3.027.027,12.554,12.554,0,0,1,2.158.595s-.228.572-.226.569C827.724,650.728,827.542,650.531,827.281,650.438Z" transform="translate(-812.055 -647.804)" fill="#f5b700"/>
            </g>
            <g id="Group_1725" data-name="Group 1725" transform="translate(10.825 27.333)">
              <path id="Path_1327" data-name="Path 1327" d="M826.329,660.256c-.018.011.055.12.04.1C826.322,660.312,826.305,660.27,826.329,660.256Z" transform="translate(-826.318 -660.256)" fill="#f5b700"/>
            </g>
            <g id="Group_1726" data-name="Group 1726" transform="translate(10.773 27.219)">
              <path id="Path_1328" data-name="Path 1328" d="M826.561,660.392c-.053.031-.26-.316-.312-.285C826.273,660.093,826.516,660.419,826.561,660.392Z" transform="translate(-826.249 -660.105)" fill="#f5b700"/>
            </g>
            <g id="Group_1727" data-name="Group 1727" transform="translate(10.927 27.393)">
              <path id="Path_1329" data-name="Path 1329" d="M826.452,660.421l.034-.087C826.5,660.358,826.45,660.422,826.452,660.421Z" transform="translate(-826.452 -660.334)" fill="#f5b700"/>
            </g>
            <g id="Group_1728" data-name="Group 1728" transform="translate(3.742 23.805)">
              <path id="Path_1330" data-name="Path 1330" d="M816.986,655.621c.062-.083.25.215.17.228S817.034,655.557,816.986,655.621Z" transform="translate(-816.986 -655.607)" fill="#f5b700"/>
            </g>
            <g id="Group_1729" data-name="Group 1729" transform="translate(6.075 31.595)">
              <path id="Path_1331" data-name="Path 1331" d="M820.059,666.07c.051,0,.26-.2.294-.2C820.334,666,820.121,666.071,820.059,666.07Z" transform="translate(-820.059 -665.871)" fill="#f5b700"/>
            </g>
            <g id="Group_1730" data-name="Group 1730" transform="translate(6.205 31.503)">
              <path id="Path_1332" data-name="Path 1332" d="M820.231,665.749c.049,0,.153.192.187.156S820.293,665.75,820.231,665.749Z" transform="translate(-820.231 -665.749)" fill="#f5b700"/>
            </g>
            <g id="Group_1731" data-name="Group 1731" transform="translate(5.736 31.263)">
              <path id="Path_1333" data-name="Path 1333" d="M819.612,665.693c.139.01.241-.263.331-.26C819.828,665.431,819.727,665.7,819.612,665.693Z" transform="translate(-819.612 -665.433)" fill="#f5b700"/>
            </g>
            <g id="Group_1732" data-name="Group 1732" transform="translate(6.541 18.237)">
              <path id="Path_1334" data-name="Path 1334" d="M820.744,648.365c-.013.005-.075-.106-.072-.092C820.689,648.332,820.729,648.37,820.744,648.365Z" transform="translate(-820.673 -648.271)" fill="#f5b700"/>
            </g>
            <g id="Group_1733" data-name="Group 1733" transform="translate(6.507 17.869)">
              <path id="Path_1335" data-name="Path 1335" d="M820.735,647.786c-.081.034-.063.356-.093.368C820.6,647.97,820.652,647.822,820.735,647.786Z" transform="translate(-820.628 -647.786)" fill="#f5b700"/>
            </g>
            <g id="Group_1734" data-name="Group 1734" transform="translate(6.715 18.095)">
              <path id="Path_1336" data-name="Path 1336" d="M821.288,648.127c-.133.051-.3-.068-.386-.033C821.01,648.048,821.179,648.17,821.288,648.127Z" transform="translate(-820.902 -648.084)" fill="#f5b700"/>
            </g>
            <g id="Group_1735" data-name="Group 1735" transform="translate(28.392 30.529)">
              <path id="Path_1337" data-name="Path 1337" d="M849.587,664.466c.036.074-.189.32-.107.323C849.616,664.792,849.634,664.56,849.587,664.466Z" transform="translate(-849.462 -664.466)" fill="#f5b700"/>
            </g>
          </g>
        </g>
      </g>
    </g>
    <text id="_1" data-name="1" transform="matrix(0.985, -0.174, 0.174, 0.985, 390.189, 396.778)" fill="#fff" font-size="48" font-family="ProximaNova-Black, Proxima Nova" font-weight="800" letter-spacing="0.01em"><tspan x="-11" y="0">1</tspan></text>
  </g>
</svg>
