<svg xmlns="http://www.w3.org/2000/svg" width="147.74" height="126.946" viewBox="0 0 147.74 126.946">
  <g id="Group_2087" data-name="Group 2087" transform="translate(-683.961 -297.825)">
    <g id="Group_1798" data-name="Group 1798" transform="translate(683 258.459)">
      <path id="Path_1392" data-name="Path 1392" d="M253.269,649.451a2.978,2.978,0,0,0-1.9-.686,2.937,2.937,0,0,0-.555.052l-1.136.215a2.956,2.956,0,0,0-.866.308c-.135.073-.214.112-.259.132a3.876,3.876,0,0,0-1.513.42l-.033.017a6.394,6.394,0,0,1-2.733.659h-.06c-.451-.005-.9-.007-1.352-.007l-2.3,0a4.63,4.63,0,0,0-1.879-.377c-.06,0-.12,0-.182,0-.027-.012-.125-.06-.125-.06a4.113,4.113,0,0,0-1.45-.454,2.357,2.357,0,0,1-.852-.293,4.266,4.266,0,0,0-.788-.315l-.031-.01c-.179-.056-.358-.115-.537-.172-.523-.171-1.064-.347-1.663-.5a6.108,6.108,0,0,1-1.4-.582c-.206-.113-.419-.215-.634-.316-.1-.046-.227-.106-.3-.146a5.257,5.257,0,0,0-1.562-1.058c-.06-.029-.121-.056-.177-.088-.2-.11-.4-.211-.6-.312-.114-.056-.266-.132-.335-.173a5.083,5.083,0,0,0-1.492-.857,7.256,7.256,0,0,0-1.544-.978c-.145-.074-.282-.143-.365-.194-.511-.31-1.016-.633-1.551-.975l-.125-.081c-.177-.113-.36-.22-.544-.327-.13-.075-.3-.176-.377-.228a6.554,6.554,0,0,0-1.387-1.035c-.07-.041-.16-.095-.217-.131a4.491,4.491,0,0,0-1.728-1.134l-.109-.045c-.1-.05-.2-.091-.288-.126a12.521,12.521,0,0,0-3.126-1.636,9.01,9.01,0,0,0-2.5-1.045c-.135-.039-.271-.078-.405-.121a10.2,10.2,0,0,0-1.067-.257c-.156-.031-.365-.073-.46-.1a4.189,4.189,0,0,0-1.568-.55h-.006c-.473-.162-.918-.27-1.313-.366-.2-.05-.41-.1-.613-.158-.161-.047-.322-.1-.483-.145a13.308,13.308,0,0,0-2.407-.567c-.256-.03-.487-.04-.671-.048l-.11,0a4.7,4.7,0,0,0-1.692-.268h-.016l-.1-.023a6.425,6.425,0,0,0-1.491-.2c-.055,0-.111,0-.168,0-.282.01-.563.012-.844.012-.2,0-1.048-.006-1.266-.006-.259,0-.519,0-.778.008H197.1c-.168,0-.337-.005-.506-.01-.228-.007-.455-.014-.682-.014a8.073,8.073,0,0,0-1.781.179c-.213-.008-.43-.012-.657-.012-.878,0-1.716.058-2.526.115-.741.052-1.44.1-2.11.1h-.6l-1.874,0c-.462,0-.924,0-1.386-.009h-.162c-.12,0-.239,0-.359,0-.084,0-.17,0-.254,0s-.151,0-.178,0a4.184,4.184,0,0,0-1.367-.215c-.185,0-.375.01-.566.025l-.114.008c-.111-.011-.262-.035-.42-.06-.245-.039-.491-.076-.736-.1-.5-.051-.992-.092-1.489-.134a3.969,3.969,0,0,0-1.4-.293,12.284,12.284,0,0,0-2.763-.645,8.651,8.651,0,0,1-1.113-.237c-.18-.046-.36-.092-.538-.134-.69-.164-1.3-.328-1.853-.5-.464-.144-.925-.3-1.386-.455l-.647-.217c-.215-.071-.432-.138-.649-.2a5.73,5.73,0,0,1-1.036-.376,8.151,8.151,0,0,0-1.746-.72,19.106,19.106,0,0,0-2.334-.547c-.053-.012-.2-.064-.312-.1a7.149,7.149,0,0,0-1.433-.368A3.552,3.552,0,0,0,160.9,629h-.043a11.581,11.581,0,0,0-1.863-.316l-.16-.018c-.227-.025-.455-.044-.682-.063-.314-.026-.61-.05-.828-.092a9.78,9.78,0,0,0-1.942-.227,8.317,8.317,0,0,0-1.318.112,4.351,4.351,0,0,0-1.054-.129,4.56,4.56,0,0,0-1.177.157c-.067,0-.135,0-.2,0a7.276,7.276,0,0,0-1.954.311c-.157.042-.37.1-.439.107a3,3,0,0,0-1.018.257c-.058.01-.119.024-.18.037l.921-3.331a5.138,5.138,0,0,0-3.582-6.321,5.136,5.136,0,0,0-6.32,3.582L106.793,739.731a5.139,5.139,0,0,0,4.952,6.507h0a5.152,5.152,0,0,0,4.95-3.768l15.256-55.159a2.965,2.965,0,0,0,.93.464c.052.016.1.033.149.049a5.224,5.224,0,0,0,1.128.274,7.309,7.309,0,0,0,.838.048,8.069,8.069,0,0,0,3.374-.771c.528-.242,1.113-.454,1.733-.678.493-.179,1-.363,1.524-.577l.06-.012c.12-.024.24-.049.357-.078.1-.025.2-.052.3-.079l.079-.022a3.971,3.971,0,0,0,1.3-.218c.263-.031.494-.073.686-.109.111-.021.26-.048.3-.054.41.023.847.033,1.372.033.295,0,.589,0,.884-.006.272,0,.545-.007.817-.007h.069a6.133,6.133,0,0,0,1.177.243c.058.007.115.012.162.021.394.084.756.129,1.076.168.149.018.3.036.448.06.309.05.589.073.814.092.133.011.314.026.373.039l.295.068a5.1,5.1,0,0,1,.931.264,10.967,10.967,0,0,0,1.222.5c.137.05.274.1.409.153l.122.049a15.39,15.39,0,0,1,2.074.945c.143.085.286.172.429.258a20.665,20.665,0,0,0,1.893,1.052l.185.087c.645.3,1.29.608,1.933.917l.515.247c.744.356,1.513.724,2.25,1.094.467.234.957.5,1.456.8a13.781,13.781,0,0,0,2.419,1.177,10.312,10.312,0,0,1,1.426.651,13.709,13.709,0,0,0,3.111,1.222c1.1.278,2.272.592,3.415.993a19.643,19.643,0,0,0,5.126,1.122l.11.024c.119.025.236.054.355.082a10.432,10.432,0,0,0,1.259.242c.214.025.428.042.642.059a5.816,5.816,0,0,1,.6.065,17.54,17.54,0,0,0,3.121.261h.057q.455.01.91.009c.331,0,.663,0,.995-.006.315,0,.631-.005.946-.005.542,0,.976.009,1.367.026.092,0,.184.006.275.006a8.975,8.975,0,0,0,1.468-.142,4.858,4.858,0,0,1,.514-.067c.06,0,.119.005.177.005a2.978,2.978,0,0,0,1-.175,3.779,3.779,0,0,0,1.177-.226,6.471,6.471,0,0,0,1.071-.312l.048-.018a2.983,2.983,0,0,0,1.039-.2,3.893,3.893,0,0,0,.88-.159c.424-.13.916-.229,1.436-.335l.474-.1c.18-.038.363-.068.545-.1a10.557,10.557,0,0,0,1.861-.441,13.282,13.282,0,0,1,1.308-.36c.314-.076.627-.153.941-.238.117-.032.282-.065.456-.1l.194-.039c.055-.011.111-.018.166-.027a5.869,5.869,0,0,0,1.2-.29,11.327,11.327,0,0,1,2.432-.536,29.265,29.265,0,0,1,3.348-.173l.154,0c.565-.009,1.131-.011,1.7-.011l2.244,0c.667,0,1.335,0,2.005-.015a3.69,3.69,0,0,1,.671.149c.957.273,1.874.513,2.781.728a15.675,15.675,0,0,0,2.544,1.822l.384.238a4.378,4.378,0,0,0,1.44.563c.309.241.629.488.982.73a4.849,4.849,0,0,0,.492.3c.137.132.263.236.36.314a3.415,3.415,0,0,0,.483.482,3.459,3.459,0,0,0,1.352,1.134,3.229,3.229,0,0,0,1.294,1.1,2.977,2.977,0,0,0,3.844-.9l.242-.341q.034-.044.067-.09a3.134,3.134,0,0,0,.526-2.252,15,15,0,0,0,.384-2.042,9.019,9.019,0,0,0-.1-2.278,5.775,5.775,0,0,1-.08-.787c.023-.754.018-1.493.012-2.208,0-.3,0-.6,0-.9v-.079a3.02,3.02,0,0,0-.4-1.689,4.91,4.91,0,0,1-.155-.772,9.978,9.978,0,0,0-.383-1.727,9.045,9.045,0,0,0-.371-1.714,5.4,5.4,0,0,1-.158-.613,3.055,3.055,0,0,0-.366-1.661c-.016-.06-.035-.14-.051-.2a6.581,6.581,0,0,0-.532-1.523,14.29,14.29,0,0,0-1.207-3.634,13.422,13.422,0,0,0-2.244-3.623c.222-.077.444-.155.667-.227a15.377,15.377,0,0,0,3.257-1.388c.221-.132.445-.258.671-.385.443-.25.945-.532,1.441-.863.052-.033.214-.109.333-.165a7.058,7.058,0,0,0,1.52-.9c.052-.042.2-.132.31-.206a7.207,7.207,0,0,0,1.308-1,9.908,9.908,0,0,0,2.178-1.665l.062-.062a5.019,5.019,0,0,1,.678-.617,28.221,28.221,0,0,0,3.687-2.882l.084-.073a3.213,3.213,0,0,0,1.323-1.284l.138-.124a5.925,5.925,0,0,0,1.221-1.386,4.494,4.494,0,0,1,.387-.4,10.326,10.326,0,0,0,.79-.833l.046-.051a4.162,4.162,0,0,0,.9-1.46,3.675,3.675,0,0,0,.343-.693,3.308,3.308,0,0,0,.7-1.35,4.873,4.873,0,0,1,.207-.5,6.628,6.628,0,0,0,.7-2.76A2.979,2.979,0,0,0,253.269,649.451Z" transform="translate(-105.644 -579.927)" fill="#fff"/>
      <g id="Group_1797" data-name="Group 1797" transform="translate(3.807 42.61)">
        <g id="Group_1795" data-name="Group 1795" transform="translate(23.854 8.131)">
          <path id="Path_1393" data-name="Path 1393" d="M264.384,657.869c.4-.077.957-.547,1.322-.617,0,.926-1.143,1.749-1.358,2.632-.019.078-.066.009-.124.073a1.822,1.822,0,0,0-.5.907c-.028.225.065.478.022.806a1.8,1.8,0,0,1-.366.764,13.577,13.577,0,0,0-1.439,1.554c-.367.606-.991.946-1.3,1.634-.058.126-.558.054-.684.164a29.409,29.409,0,0,1-3.544,3.066,7.646,7.646,0,0,0-1.494.812,7.027,7.027,0,0,1-1.579,1.53c-.076.039-.245-.075-.291-.012-.416.561-1.186.665-1.707,1.086-.5.4-1.122.526-1.637.87-.641.429-1.138,1.077-1.8,1.471a12.976,12.976,0,0,1-2.693,1.042c-.806.259-1.536.84-2.367,1.037-.212.05-.5-.163-.731-.127s-.428.2-.651.227c-.729.086-1.767-.041-2.564.039a16.736,16.736,0,0,0,1.913,1.949c.641.586,1.489.88,1.873,1.736a9.386,9.386,0,0,1,2.052,3.1,10.9,10.9,0,0,1,1.026,2.892c.033.223.408.35.526.53.367.565.134,1.382.418,1.968.025.051-.107.039-.111.087-.083,1.1.56,2.149.54,3.235.49,1.071.451,2.345,1.06,3.385.014.023.087-.021.087.009,0,.061.059.122.059.183,0,1,.01,2.009-.02,3.013-.029.958.522,1.906.422,2.87a10.278,10.278,0,0,1-.71,2.346c.06.116-.037.248.008.38a.77.77,0,0,0,.268.248c-.132.187-.405.089-.5.22-.109-.064-.434.13-.466.067-.246-.483-.367-.846-.916-.989-.1-.027.092-.306.081-.392-.051-.395-.948-.263-1.1-.5-.178-.276-.16-.612-.349-.843-.212-.259-.667-.232-.925-.409-.481-.332-.815-.923-1.3-1.3a3.645,3.645,0,0,1-1.1-.3,12.031,12.031,0,0,1-2.955-2.287c-1.183-.261-2.439-.517-3.587-.846-.489-.14-1.063.174-1.606.184-1.978.035-3.959-.13-5.937-.1a33.083,33.083,0,0,0-3.851.1,13.973,13.973,0,0,0-3.014.886c-.291.109-.711-.183-1.019-.119-.28.058-.491.4-.766.475-.82.225-1.7.208-2.51.5a16,16,0,0,1-2.071.155c-.726.153-1.482.293-2.192.51a2.056,2.056,0,0,0-1.022.438c-.69-.083-1.143.8-1.819.785-.385.345-.984-.156-1.358.236-.775-.046-1.584.112-2.371.076-1.428-.064-2.853-.227-4.284-.257a16.059,16.059,0,0,1-2.7.143c-.5-.1-.909-.634-1.4-.691-.452-.053-.914.05-1.362-.045-.14-.029-.32.33-.462.321a17.14,17.14,0,0,1-4.373-1.417c-1.206-.424-2.425-.831-3.663-1.145a10.567,10.567,0,0,1-2.506-.711,13.247,13.247,0,0,0-1.875-.722c-.672-.238-1.108-.937-1.717-1.3-.536-.317-1.145-.529-1.7-.808-.931-.467-2.016-.623-2.955-1.074-.711-.341-1.227-1.092-1.94-1.428s-1.669-.245-2.352-.651a18.24,18.24,0,0,0-2.479-1.384c-.47-.189-.856-.561-1.307-.785a8.692,8.692,0,0,0-1.96-.344c-.469-.11-.907-.205-1.365-.28s-.942-.069-1.388-.164a4.751,4.751,0,0,1-1.169-.442,1.833,1.833,0,0,0-.692-.118c-1.035-.005-2.081.394-3.113.335-.666-.038-1.3-.024-1.956-.059-.237.254-.55.049-.836.087-.253.033-.451.411-.7.472s-.6-.155-.834-.057c-1.143.477-2.264.995-3.391,1.512a5.116,5.116,0,0,1-2.65.653,6.427,6.427,0,0,1-.822-.293c-.113-.168-.145-.5-.328-.773,0-.225.2-.409.2-.736.269-.324.318-.894.788-.965s1.06-.137,1.14-.557c.088-.459.009-.9.25-1.259.524-.782.85-1.7,1.371-2.479.13-.195.7-.111.819-.316a7.889,7.889,0,0,1,1.191-1.862,18.956,18.956,0,0,0,1.032-1.952c.056-.16-.014-.532.126-.686.9-.987,1.424-2.182,2.223-3.238a13.923,13.923,0,0,0,1.206-1.932c.208-.4.213-.922.453-1.3.326-.509.373-1.156.677-1.646a10.937,10.937,0,0,0,1.135-1.783,8.276,8.276,0,0,0,.532-1.7c.024-.164-.207-.351-.191-.515.077-.8.738-1.513.942-2.292.131-.5.316-.941.433-1.519.246-.222.1-.695.083-1.092-.007-.2.172-.387.2-.561a22.467,22.467,0,0,0-.007-2.422c.018-.367.6-.647.6-1s-.3-.747.012-1.041c-.088-.585.116-1.1-.2-1.676-.065-.118.214-.367.211-.515-.005-.274-.05-.548-.062-.822-.057-1.284-.242-2.561-.318-3.844-.015-.252-.245-.464-.293-.715s.224-.481-.063-.683c-.029-.021.283-.238.278-.3-.06-.766-.115-1.537-.191-2.3-.031-.312-.31-.6-.407-.9a8.859,8.859,0,0,1-.214-1.878,6.8,6.8,0,0,0-.446-1.4c-.081-.239-.38-.412-.433-.655a3.069,3.069,0,0,1-.032-.677c-.3-.3-.35-.734-.63-1.014-.05-.191-.534-.269-.6-.532.092-.189.618-.308.748-.573.248-.123.43-.15.788-.326.243,0,.546-.118.905-.148.313-.027.481-.344.675-.528.3-.286,1.051.461,1.269.089.872-.061,1.6-.715,2.508-.54.129.025.229-.232.363-.279a1.916,1.916,0,0,1,1.272-.067c.129.055.214.5.345.47a5.675,5.675,0,0,1,2.754-.2c.574.112,1.138.341,1.721.405.63.071,1.369-.282,1.973-.066a1.646,1.646,0,0,1,.793.61,8.37,8.37,0,0,1,2.176.047,16.836,16.836,0,0,1,2.01.526,5.284,5.284,0,0,1,1.022.654,11.831,11.831,0,0,0,2.244.766c.7.231,1.476.192,2.174.409.674.21,1.308.545,1.989.707.661.157,1.259.832,1.957.906a9.971,9.971,0,0,1,2.488.119,2.108,2.108,0,0,1,1.012.647c.7.061,1.476.107,2.18.179.433.045.894-.234,1.327-.2s.974-.187,1.352-.052c.621.222,1.134.693,1.75.7,1.278.02,2.561-.354,3.84-.348,1.895.007,3.758-.555,5.657-.42.933-.316,1.923.44,2.873.418.973-.021,1.945-.179,2.918-.213a5.212,5.212,0,0,1,1.2.095c.4.077.914-.31,1.341-.117a4.368,4.368,0,0,0,1.241.521,14.694,14.694,0,0,1,2.354.764c.625.182,1.341.053,1.955.275.293.105.675.06.924.22a8.279,8.279,0,0,0,2.119.838,6.943,6.943,0,0,1,2.458.874c.083.066.267-.087.374-.051A9.754,9.754,0,0,1,230.86,648c.1.082.3.083.425.144.329.162,1.018-.033,1.236.227.471.561.807,1.083,1.308,1.6a7.987,7.987,0,0,0,1.443,1.015c.577.369,1.326.466,1.912.82a8.729,8.729,0,0,1,1.637.944c.423.413.991.423,1.418.8a7.738,7.738,0,0,0,1.286.952,3.687,3.687,0,0,1,.908.783c.456.5,1.389.3,1.936.595a9.355,9.355,0,0,0,1.971,1.181c.691.172,1.31.523,1.984.734.107.034.2-.009.3.043a5.552,5.552,0,0,0,2.048.306,2.207,2.207,0,0,1,.633.132,2.068,2.068,0,0,0,1.121.365,2.021,2.021,0,0,1,1.145.324c.354.212.713.05,1.092.05,1.187,0,2.371.386,3.558.4,1.44.016,2.7-.775,3.992-1.378.162-.076.395.088.58.084A3.6,3.6,0,0,0,264.384,657.869ZM158.906,683.02c0-.052.24.246.237.194-.179.024-.5-.421-.683-.4.081.1.355.578.433.577a.886.886,0,0,0,.528-.344c.012.012-.27-.215-.259-.2.05-.043-.052-.087,0-.13l.229.218C159.347,682.984,158.922,682.818,158.906,683.02Zm24.41-21.381c.012-.012-.284.413-.272.4-.042-.05.308-.462.265-.512l-.428.409a1.81,1.81,0,0,0,.29.234c.211.17.281-.116.584-.286C183.55,661.884,183.5,661.642,183.316,661.639Zm53.861,29.233c-.012.012.291-.411.28-.4.043.05-.307.462-.265.512.02-.02.409-.39.428-.41-.05-.042-.193-.186-.162-.135-.757-.576-.9-.24-1.315-.234,0,.081.073-.141.067-.047C236.576,690.255,236.794,690.842,237.177,690.872Zm-40.225,7.991c-.363-.22-.223.263-.8.488a3.348,3.348,0,0,1,.764.1c.055.051.173.2.229.2,1.386.005,2.775-.005,4.162-.011.022,0-.063-.352-.029-.386-.006-.071.084.1.072-.038C199.891,699.3,198.423,698.521,196.952,698.863ZM219.847,651.6c-.012.012.268-.413.257-.4.043.05-.308.462-.265.512l.428-.409c-.05-.043-.163-.161-.246-.123-1.3-1.363-3.417-1.217-4.848-2.081a14.2,14.2,0,0,0-5.517.154c.239.109.335-.136.507-.149a8.043,8.043,0,0,1,2.2.294,2.558,2.558,0,0,1,1.73,1.171,5.118,5.118,0,0,0,1.125-.035,14.33,14.33,0,0,1,3.57.744A5.188,5.188,0,0,0,219.847,651.6Zm37.916,13.371c-.172,0,.088.49.04.515-1.122.6-2.515.7-3.626,1.319a.648.648,0,0,1-.371.13,3.1,3.1,0,0,0-1.923.982c-.412.459-.659,1.074-1.181,1.4-.823.519-1.529,1.128-2.382,1.687.3,0,.367-.242.578-.348.839-.423,1.743-.531,2.547-1.035.093-.058.367.172.464.117.863-.481,1.848-.605,2.487-1.514a23.563,23.563,0,0,0,3.516-2.938c.012.012-.145-.22-.133-.208.05-.042.174.062.223.019-.019-.019-.124-.209-.143-.228C257.818,664.919,257.675,664.9,257.763,664.97Zm-36.174-17.222c-.012.012.353-.4.341-.386.043.05-.308.462-.265.511l.428-.409c-.05-.043-.136-.13-.083-.047-1.085-1.411-2.734-1.807-4.183-2.413-.377-.157-.881.068-1.176-.147a2.181,2.181,0,0,0-1.569-.272c-.249,0-.475.259-.726.277a14.588,14.588,0,0,0-2.134-.123c-.44.1-.707.037-1.229.1a9.5,9.5,0,0,0,2.438.739,8.536,8.536,0,0,1,3.035.691c.487.229,1.033-.457,1.645.12.669-.126,1.187.44,1.793.592C220.494,647.131,220.989,647.561,221.589,647.748Zm-13.276,48.338c.261,0,.652-.439.87-.5,1.107-.33,2.347-.193,3.464-.484.768-.2,1.541-.395,2.308-.6.548-.145,1.086-.289,1.639-.416.841-.192,1.6-.863,2.477-.859.117,0,.157-.093.261-.136a11.715,11.715,0,0,1,2.3-.5,5.7,5.7,0,0,0,1.1-.322c.547-.23,1.179.2,1.7.12a2.8,2.8,0,0,1,1.258.092,29.37,29.37,0,0,1,6.075-.073c.124-.123.059-.385.128-.455,0-.22.159-.389.159-.654-.555-.089-1.069-.38-1.608-.44a5.8,5.8,0,0,1-1.686-.184c-.616-.272-1.241.624-1.838.336a1.142,1.142,0,0,0-.991-.363,15.3,15.3,0,0,0-2.688.4c-.376.092-.872-.15-1.256-.048s-.756.279-1.127.368a21.688,21.688,0,0,1-3.291.38,5.758,5.758,0,0,0-1.132.3c-.834.261-1.691.525-2.5.841-1.126.439-2.324.731-3.42,1.276a14.97,14.97,0,0,1-2.086.746C208.427,695.152,208.313,695.779,208.313,696.086Zm2.762-4.483c.294-.122.553-.511.8-.657.356-.212.969.145,1.379.093,1.511-.193,2.933-.738,4.456-.927,1.109-.137,2.193-.434,3.321-.51.061,0,.052-.332.081-.363.329-.345.768-.121,1.052-.313.417-.279.931-.136,1.332-.159.7-.04,1.4-.1,2.1-.13s1.42.159,2.126.1c.088-.008.1-.168.181-.2.873-.358,1.846.285,2.733.187.362.321.768-.162,1.222-.091a1.237,1.237,0,0,1,.051-.332c.022-.145.236-.391.3-.589-.247-.078-.544-.238-.754-.314a6.236,6.236,0,0,0-2.517-.14,6.291,6.291,0,0,1-1.657-.1,3.133,3.133,0,0,0-2,.287,19.731,19.731,0,0,0-2.694-.1,3.657,3.657,0,0,0-1.344.248c-.972.367-2.112.052-3.1.307-.636.163-1.348.223-1.952.43-.937.321-1.9.565-2.826.9-.739.267-1.53.671-2.246.963C211.1,690.542,211.075,691.218,211.075,691.6Zm21.653,2.565c-.441-.122-.995.247-1.3.223-.514-.04-1.05-.625-1.557-.557-.554.075-1.018-.281-1.556-.246a7.488,7.488,0,0,1-1.143.005c-.4-.032-.855.546-1.217.226-.327.346-.714.223-1.085.281-.177.027-.336-.079-.487-.009-.895.415-1.941.491-2.851.828a4.045,4.045,0,0,0-1.707.109c-.575.126-1.084.55-1.654.693-1.236.312-2.48.5-3.727.778-.295.065-.389.466-.646.589,0,.375-.146.627-.146,1,.138,0,.308.206.417.178.853-.214,1.7-.434,2.557-.616.531-.113.935-.72,1.477-.819a13.533,13.533,0,0,0,1.849-.306,13.433,13.433,0,0,1,2.6-.762c.149-.017.392.356.456.281.228-.267.513-.18.765-.232s.538.246.79.225a3.163,3.163,0,0,1,.548.082,3.562,3.562,0,0,0,1.147,0,18.578,18.578,0,0,1,2.76-.506,13.4,13.4,0,0,0,2.7-.244c.155-.056.2-.266.441-.221C232.228,694.873,232.643,694.491,232.728,694.168ZM182.46,642.58c-.9-.8-2.363-1.107-3.462-1.591a27.09,27.09,0,0,0-3.259-1.368,4.3,4.3,0,0,1-.736.081,14.466,14.466,0,0,0-2.32.053,5.916,5.916,0,0,0-1.194.552,4.664,4.664,0,0,1-1.31.271c-.2.113-.329-.2-.572-.061.785.109,1.547.138,2.415.259-.577.116-1.126.47-1.491.53-.232.038-.432.214-.661.262-.193.04-.558-.075-.779.011a2.525,2.525,0,0,0,.756.074,4.955,4.955,0,0,1,1.1.333,5.826,5.826,0,0,0,1.081.358,10.173,10.173,0,0,1,1.935.547c.294.1.677-.13.982-.122a4.4,4.4,0,0,0,.985-.1c.087.122.228.006.3.1a14.88,14.88,0,0,1,3.164.481c.978.267,1.882.5,2.868.741a18.98,18.98,0,0,0-2.834-2.115A14.226,14.226,0,0,1,182.46,642.58Zm-20.615,43.528a27.236,27.236,0,0,0,3.236-.388c.081-.01.117.565.2.6.994.388,1.989.825,3.023,1.232a3.872,3.872,0,0,1,.616-.135,5.891,5.891,0,0,1,3.366.357,18.085,18.085,0,0,1,2.813,1.5c.107.083.01.111.158.121,0-.274-.105-.246-.105-.443-.11-.028.034-.134-.018-.186a16.806,16.806,0,0,0-2.343-1.5,7.043,7.043,0,0,0-2.25-1.523c-.665-.156-1.4-.038-2.062-.2s-1.311-.371-1.971-.591a4.443,4.443,0,0,0-1.763-.385c-.792.079-1.639.131-2.451.208C162.169,685.014,162.006,685.779,161.844,686.107Zm17.524-4.057c-.087-.075-.595.115-.7.067-.638-.293-1.052-1.136-1.712-1.369-.69-.244-1.332-.562-1.984-.862a8.836,8.836,0,0,0-3.472-.739,16.1,16.1,0,0,1-2.411,0,2.95,2.95,0,0,0-.475-.017c-.631-.016-1.191-.045-1.856-.045-.141.293-.094.19-.251.517.454.056.589.251.952.331a11.053,11.053,0,0,1,2.718.558c.225.113.381.547.652.62a2.613,2.613,0,0,0,1.319-.028,4.105,4.105,0,0,1,2.093.173c.418.1.775.491,1.185.553.434.066.794.3,1.2.386.422.092.933-.168,1.33.017a4.2,4.2,0,0,0,.876.3C178.918,682.323,179.287,682.238,179.368,682.05Zm-14.186,1.436c.549.108,1.066-.371,1.5-.337.751.059,1.333.84,2.012,1.121a3.348,3.348,0,0,0,1.835.369c.439-.105.682.132,1.086.022.884.425,1.968.067,2.9.327.824.23,1.575.489,2.411.766.16-.13.12-.007-.042-.312-.064-.064-.085.022-.162-.015-.783-.381-1.441-1.015-2.236-1.373s-1.72-.386-2.523-.726a7.6,7.6,0,0,1-1.121-.726c-.428-.278-1.067.206-1.5-.058a2.316,2.316,0,0,0-.989-.177c-.372-.031-.729-.336-1.1-.354-.6-.029-1.287-.025-1.89-.025-.16.288-.082.749-.229,1.013C165.251,683.1,165.14,683.453,165.182,683.486Zm13.24-26.591c-1.1-.009-2.181.4-3.225.377-1.683-.031-3.322-.252-5-.352a1.689,1.689,0,0,0-.605,0c-.846.466-1.924.5-2.705,1.026,0,.228.267.553.267.781.271,0,.463-.156.7-.134s.407-.114.613-.137a2.437,2.437,0,0,1,1.1-.031c.3.119.6.4.9.28a12.211,12.211,0,0,1,1.865-.636c.867-.2,1.847.107,2.737-.016,1.056-.146,2.1-.439,3.17-.5.047,0,.1.1.144.067C178.374,657.494,178.422,657.079,178.422,656.895Zm31.093-9.743c.783.408,2.025-.228,2.829.021.41.127.7.563,1.072.745.39.191.79.257,1.159.459a4.134,4.134,0,0,0,2.253.488,6.052,6.052,0,0,1,2.491,0c.553.187,1.149.3,1.7.509.105.04-.042.2.166.229-.17-.17-.233.035-.331-.034-.115-.08-.113-.337-.216-.427a8.489,8.489,0,0,0-3.068-1.54c-.613-.2-1.121-.887-1.747-.959a13.285,13.285,0,0,0-2.386.071c-.707.047-1.418-.071-2.123.01A8.845,8.845,0,0,0,209.515,647.152ZM169.72,665.706c.271,0,.946-.487,1.1-.4a10.906,10.906,0,0,0,1.533.831c.559.218,1.162-.247,1.648-.471.516,0,.953-.024,1.468.007.492.029,1.1-.379,1.523-.177.511.245.982-.042,1.473.029a3.994,3.994,0,0,0,1.4.208c.043-.008-.195.162-.141.1-.094-.189.093-.409.012-.572-.312-.077-.616.042-.895-.015a18.811,18.811,0,0,1-1.759-.74,5.475,5.475,0,0,0-1.716-.063c-.166,0-.331-.259-.5-.275a7.518,7.518,0,0,0-2.242-.141,5.329,5.329,0,0,1-2.414.394A1.863,1.863,0,0,0,169.72,665.706Zm-.333-3.681c1.4,0,2.792-.606,4.126-.606.182,0,.645.551.72.462.318-.378.817.152,1.1-.262.425,0,.7.034,1.128.034.576,0,1.152-.391,1.729-.4.052,0-.109.007-.041-.018,0-.2.055-.222.055-.428-.361-.285-.595-.233-1.047-.232-1.608,0-3.217-.273-4.826-.273-.15,0-.223.136-.348.2-.477.225-1.084-.035-1.606.015-.322.031-.492.466-.806.587C169.568,661.36,169.387,661.752,169.387,662.025Zm-1.493,13.533c-.063.272.1.454.062.627a11.042,11.042,0,0,1,3.566,1.5c1.11,0,2.308.052,3.434.052.183,0,.249-.139.365-.051.389.3.934-.217,1.354-.147,0-.205-.089-.058-.089-.251-.67-.246-1.308-.494-1.99-.757-.667-.258-1.408-.176-2.093-.4a6.958,6.958,0,0,0-2.191-.466C169.551,675.67,168.676,675.484,167.894,675.558ZM247.6,667.8a1.957,1.957,0,0,0,1.418-.164,10.894,10.894,0,0,0,3.709-.37c.129-.054.4,0,.5-.074a21.8,21.8,0,0,0,1.8-1.445,14.076,14.076,0,0,0,2.045-2.895c-.446.27-.509.652-.786.831a11.428,11.428,0,0,1-3.767,1.909c-.234.049-.315.117-.357.3-.1.442-.751.469-1.032.609C250.037,667.044,248.708,667.287,247.6,667.8Zm-79.287,5.834c.363,0,1.15-.583,1.344-.439.394.291.521.466.874.682a2.686,2.686,0,0,0,1.348.191,5.2,5.2,0,0,0,1.95-.18c.264-.1.511-.413.811-.383a8.567,8.567,0,0,1,.87.065c.274.058.469.135.771.2.086-.134-.019.119.085-.041-.4-.189-.554-.505-.9-.7a3.356,3.356,0,0,0-1.87-.3,2.453,2.453,0,0,1-1.151-.5c-.253-.143-.7.127-.966.263-.411.213-.883-.012-1.286.006-.481.022-1.012-.175-1.426-.175C168.366,672.55,168.3,673.262,168.313,673.635Zm8.066-3.838a1.932,1.932,0,0,0-.794-.46c-.227-.107-.3-.659-.543-.722-.743-.188-1.475-.346-2.212-.571a3.833,3.833,0,0,0-1.5-.163c-.234.035-.437.511-.7.538-.462.048-.9.221-1.356.3a3,3,0,0,0-.447.143c-.4.132-.222-.244-.206.357.449,0,.655.175,1.1.149a2.941,2.941,0,0,1,1.39.024c.453.224.891.614,1.315.489a11.508,11.508,0,0,1,2.614-.449C175.348,669.412,175.868,669.8,176.379,669.8Zm70.757-4.8a13.789,13.789,0,0,0,5.246-.979c1.365-.733,3.21-1.135,4.695-2.225-.1-.018-.345-.53-.428-.528a1.352,1.352,0,0,0-.363.09,22.471,22.471,0,0,1-2.2,1.276c-.523.179-.992.521-1.451.234a19.12,19.12,0,0,1-2.471,1.364A24.28,24.28,0,0,1,247.136,665Zm-78.391-13.966c.221,0,.546-.567.725-.571.7-.013,1.3.617,1.952.9a1.419,1.419,0,0,0,.661-.029c.278-.307.418-.07.731-.079.69-.02,1.326-.388,2-.388.063-.363.072-.351-.21-.554-.713-.159-1.4-.233-2.1-.412a2.1,2.1,0,0,0-1.474-.093c-.592.249-1.282-.165-1.76.014-.212.12-.215.273-.447.4C168.948,650.475,168.658,650.845,168.744,651.029Zm-1.333-2.882c.36,0,1.147-.474,1.324-.352a5.7,5.7,0,0,0,.925.667,3.3,3.3,0,0,0,1.311.222c.465-.008.85-.263,1.341-.2.447.058.928-.376,1.393-.376.078-.083-.033.013.052-.077-.324-.564-.166-.464-.746-.635-.22-.065-.463.066-.692.024-.5-.092-.941-.466-1.539-.585a6.058,6.058,0,0,1-2.561.5C168.075,647.608,167.613,647.767,167.411,648.147Zm1.217,6.432c1.03-.426,2.009-.834,2.863-.264.819-.214,1.671.092,2.439-.109-.119-.288-.266-1.03-.385-1.32-.55,0-1.09,0-1.477,0-.363-.235-.743-.03-1.052-.229-.092.083-.136.34-.221.343-.67.022-1.277.276-1.935.339-.277.027-.157-.073-.242.247C168.695,653.777,168.518,654.3,168.628,654.579Zm4.771-10.273c-.8-.183-1.8.187-2.576.02-.144-.031-.485-.546-.556-.471-.283.3-.46.026-.771.045-.445.027-1.02.052-1.453.052-.1.317.047.753-.039,1.022a7.293,7.293,0,0,0,.936.092c.282.046.566.123.842.179.5.1.876.348,1.364.11.418-.2.938.127,1.34.09.236-.021.307-.126.574-.126C173.059,645.028,173.4,644.673,173.4,644.307Zm37.035,47.7c0-.363-.109-.616-.109-.989-1.488.53-3.064.506-4.5,1.018.022.275.192,1,.213,1.272C207.479,692.883,208.962,692.448,210.434,692.011Zm-7.478,5.289c.544-.075,1.145-.779,1.656-.8.528-.019,1.029.342,1.569.338a6.994,6.994,0,0,0,1.665-.476c-.11-.224-.336-.909-.437-1.117-.732-.018-1.434.732-2.14.844a10.916,10.916,0,0,1-2.139.384C203.13,696.753,202.956,697.023,202.956,697.3Zm9.778-.5a13.8,13.8,0,0,0-2.494,1.335c0,.346-.268.642-.268.992.931-.208,2.012-.409,2.891-.606C212.863,698.124,212.734,697.263,212.734,696.8Zm-52.383-13.647c1.21,0,2.475-.568,3.639-.568.092-.3.494-.282.573-.541-.108-.03-.382-.317-.437-.322-.836-.081-1.651.25-2.5.221C161.245,681.93,160.57,682.625,160.351,683.154Zm45.731,16.539c.807-.1,1.562-.781,2.343-.874.041-.041.422.231.491.162,0-.282-.209-.883-.209-1.17l-2.68.567C206.026,698.64,206.082,699.383,206.082,699.692Zm-1.1-7.38a27.459,27.459,0,0,1-2.889,1.356c0,.185-.159.286-.159.4.634-.043,1.324,0,1.919-.1a9.572,9.572,0,0,0,1.375-.494C205.232,693.238,204.985,692.561,204.985,692.313Zm-25.9-30.63a14.1,14.1,0,0,1,3.2-.144c-.178-.2-.144-.329-.3-.39a5.834,5.834,0,0,0-2.963-.752C179.02,660.623,179.084,661.393,179.084,661.683ZM162.33,680.145c1.089-.1,2-.777,2.952-.863,0-.225.183-.364.183-.591a13.033,13.033,0,0,0-2.848.333A11.409,11.409,0,0,1,162.33,680.145ZM232.4,689.31c.769.268,1.675-.05,2.41.206.191-.15.439-.251.28-.55a7.935,7.935,0,0,0-2.234-.858c-.039.111-.295.387-.343.487S232.491,689.161,232.4,689.31Zm.275,3.31c.744.255,1.789-.257,2.488.068.1-.157.289-.2.407-.382-.76-.3-1.582-.659-2.273-.929C233.186,691.59,232.856,692.252,232.671,692.62Zm-71.457-7.673c-.863-.3-1.742.82-2.525.653-.1.2-.241.263-.34.46.855,0,1.75.042,2.591.042C161,685.891,161.155,685.15,161.214,684.947Zm41.229,14.679c.787,0,1.535-.595,2.291-.595.091-.228.314-.363.437-.671-.938.1-1.911.144-2.747.231C202.425,698.745,202.443,699.457,202.443,699.626Zm-.322-3.47c-1,0-1.969.585-2.862.612a2.505,2.505,0,0,0-.838.233c1.171.1,2.288.242,3.288.331C201.836,697.118,201.971,696.4,202.121,696.155Zm32.971-.1c0-.28-.261-.421-.261-.543-.449-.17-.747-.85-1.164-1.007-.267.218-.589.9-.4,1.259Zm-51.925-29.495c-.663-.6-1.644-.4-2.422-.732-.047.639-.161.636.3.714.138.024.257.111.394.139C181.9,666.778,182.7,666.476,183.166,666.565Zm15.055,27.944c.988,0,1.74-.6,2.557-.6-.008-.18.071-.284.066-.405-.75.065-1.521.089-2,.13C198.59,693.755,198.5,694.379,198.222,694.51Zm-18.483-7.373c-.5-.4-1.365-.644-1.883-1.054-.146.173-.289.21-.467.421A8.252,8.252,0,0,0,179.739,687.137Zm1.7-3.274c-.292-.806-1.385-.785-1.832-1.2-.084.175-.212.225-.322.45C179.844,683.357,180.794,683.58,181.436,683.862Zm-7.5-37.968c.39.056.8-.5,1.138-.448.051-.051.333.076.409,0a2.232,2.232,0,0,0-1.46-.8c-.094.105-.432.506-.555.645C173.579,645.418,173.848,645.8,173.934,645.895Zm-6.555-1.251c-.048-.059-.229.042-.278-.016-.527.344-1.646-.134-2.184.457.539,0,1.309.28,1.8.28C166.852,645.2,167.215,644.842,167.379,644.643Zm-2.133,10.033a3.535,3.535,0,0,0,1.816-.626,1.471,1.471,0,0,0,.471-.47A6.517,6.517,0,0,0,165.246,654.676Zm10.441,35.034c.008.071.26-.041.268.03.594-.113,1.062,1.122,1.813.9-.47-.376-1-1.078-1.407-1.4C176.241,689.364,175.78,689.607,175.687,689.71ZM167.771,651c-.044-.221-.095-.345-.153-.638-.413.487-1.373.163-1.736.586A4.335,4.335,0,0,0,167.771,651Zm1.219,13.837c-.519.259-.633.716-1.215,1.007.648.033,1.053.355,1.492-.079C169.253,665.63,169.01,665.044,168.989,664.837Zm-3.607-16.5c.487-.088.844-.747,1.346-.838-.012-.159.109-.29.1-.408-.5.135-1.065.243-1.528.368C165.3,647.549,165.382,648.189,165.382,648.341Zm1.046,10.131c-.357-.071-.557.352-.766.6-.141.167-.774-.13-.963,0,.016.026.232.527.248.553.327-.07.726-.165,1.107-.247C166.112,659.275,166.31,658.677,166.429,658.472Zm1.981,2.63c-.464.056-.644.473-1.167.756.555.026.791.3,1.211.232C168.454,661.913,168.41,661.293,168.41,661.1Zm6.943-7.164c-.041-.7-.2-.478-.9-.439.1.238-.1.358-.012.567C174.593,654.066,175.168,653.939,175.353,653.939ZM180.889,658c.022-.031-.054-.056-.032-.087-.472-.086-.825-.726-1.3-.8-.074-.012-.487.313-.579.339.1.1.43.443.521.533C179.936,657.981,180.446,658,180.889,658Zm-14.554,14.716c.01.073.227.1.236.176.3,0,.676.513.952.513,0-.185-.1-.822-.1-.944C167.1,672.541,166.63,672.639,166.335,672.714Zm31.5,24.116c-.487-.522-1.047-.3-1.6-.24C196.77,696.669,197.293,696.749,197.833,696.829Zm39.266-.071c0-.036-.177-.14-.177-.176-.2-.154-.059-.8-.282-.9-.107-.048-.741.01-.817.269-.014.048.179.45.193.524C236.35,696.557,236.762,696.675,237.1,696.758Zm.525-3.229c-.38-.048-.6-.534-1.145-.4C236.891,693.406,237.157,693.714,237.624,693.529Zm-61.782-42.337c.338.016.456-.147.8-.322-.365-.07-.437-.639-.781-.4C175.854,650.526,175.863,651.034,175.843,651.193Zm.044,2.739c.233,0,.458-.555.7-.555,0-.107.236-.125.236-.238-.233,0-.684-.041-.923-.041C175.9,653.2,175.887,653.819,175.887,653.932Zm-8.837,22.653c-.031-.161-.361-.223-.374-.29-.276-.1-.528-.458-.681-.241-.02.028.129.507.129.56C166.33,676.614,166.759,676.585,167.049,676.585Zm7.8-29.3c0,.29.333.547.333.752.138-.024.234.188.418.156C175.456,647.992,175.025,647.525,174.851,647.286Zm1.676-1.081c-.072-.231-.128-.6-.454-.313C176.249,645.99,176.369,646.117,176.526,646.2Zm-15.748,33.363c0,.054.156.081.158.135.163-.022.345.5.508.479,0-.031-.029-.585-.031-.616Zm16.937-5.352c0-.03-.149-.044-.149-.075-.122,0-.227-.547-.349-.547,0,.031-.01.584-.01.615C177.329,674.209,177.594,674.215,177.716,674.215Zm-21.152,11.571c0,.03.149.044.149.075.122,0,.228.546.35.546,0-.03.01-.583.01-.614C156.95,685.792,156.686,685.786,156.564,685.786Zm21.008-8.4c0,.03.148.044.148.075.122,0,.228.547.35.547,0-.031.01-.584.01-.615C177.957,677.39,177.693,677.383,177.572,677.383Zm4.179,6.232c0,.02.193.024.193.045.061,0,.1.534.162.534,0-.02.014-.552.014-.572C182.059,683.622,181.812,683.615,181.751,683.615Z" transform="translate(-147.376 -636.662)" fill="#a9ddd6"/>
        </g>
        <g id="Group_1796" data-name="Group 1796" transform="translate(0 0)">
          <path id="Path_1394" data-name="Path 1394" d="M145.914,624.246l-2.61.926-.6,4.315-1.7,4.013-.643,4.307-.971,4.214-1.22,4.146-1.8,3.988-.639,4.306-1.788,3.991-.584,4.322-1.833,3.978-1.011,4.2-.4,4.376-1.189,4.156-1.883,3.965-1.445,4.087-.225,4.424-1.126,4.174-1.411,4.1-1.248,4.138-1.53,4.062-.574,4.328-1.5,4.071-1.481,4.077-.272,4.413-1.64,4.032-1.027,4.206-1.119,4.183-1.5,4.077,1.665,2.819,2.441-1.684,1.964-3.938.728-4.282.611-4.315,1.958-3.941.356-4.385,1.615-4.039,1.691-4.015.06-4.469,1.782-3.991.65-4.3,1.693-4.016,1.459-4.082,1.163-4.163.921-4.231,1.365-4.109.373-4.382,1.527-4.064.773-4.273,1.491-4.07,1.293-4.128L139.7,655.6l.475-4.356,2.211-3.875,1.109-4.181.6-4.319.543-4.339,1.982-3.944.5-4.354Zm-2.383,10.086-1.381,4.149.175,2.054-1.365,3.7-.255,2.544-.088,1.258-.629,2.667-.959.933-.116,2.548-.72,1.777-.32,2.424-1.384,1.823-.978,3.8.047,1.781-1.1,3.134-1.914,2.914-.963,1.874.114,2.19-1.361.376,1.108-2.7.984-2.521,2.169-5.481.816-5.422,1.432-2.991.864-2.354-.217-2.586,1.039-2.086.31-1,.8-3.227,1.092-3.1.551-2.236.467-2.131,1.067-1.549.132-2.091-.24-1.293Z" transform="translate(-110.951 -624.246)" fill="#a9ddd6"/>
        </g>
      </g>
    </g>
    <text id="_2" data-name="2" transform="translate(762.719 357.097) rotate(13)" fill="#fff" font-size="48" font-family="ProximaNova-Black, Proxima Nova" font-weight="800" letter-spacing="0.01em"><tspan x="-14" y="0">2</tspan></text>
  </g>
</svg>
