<svg xmlns="http://www.w3.org/2000/svg" width="158.428" height="130.998" viewBox="0 0 158.428 130.998">
  <g id="Group_2088" data-name="Group 2088" transform="translate(-1013.251 -300.805)">
    <g id="Group_1869" data-name="Group 1869" transform="translate(1006.238 247.768)">
      <g id="Group_1854" data-name="Group 1854" transform="translate(7.012 53.038)">
        <path id="Path_1449" data-name="Path 1449" d="M633.267,659.207a6.335,6.335,0,0,0-2.412-.615c-.091,0-.182-.006-.271-.008-.056,0-.129,0-.173,0a3.722,3.722,0,0,0-1.4-.308h-.092l-.026-.008a3.63,3.63,0,0,0-.816-.173l-.107-.008c-.057,0-.135-.01-.192-.016a2.973,2.973,0,0,0-1.232-.268,14.082,14.082,0,0,0-1.9-.562,10.588,10.588,0,0,1-1.424-.412c-.486-.2-.962-.347-1.423-.492-.294-.093-.571-.181-.837-.276s-.5-.156-.718-.212c-.171-.045-.332-.086-.447-.129a8.874,8.874,0,0,0-1.453-.379l-.053-.011a7.327,7.327,0,0,1-.894-.267,8.389,8.389,0,0,0-1.948-.482,3.925,3.925,0,0,1-.771-.249l-.162-.062a9.837,9.837,0,0,0-3.137-.68l-.084,0a8.717,8.717,0,0,0-1.526-.349c-.2-.032-.391-.063-.56-.1s-.345-.077-.518-.116a14.833,14.833,0,0,0-1.546-.3c-.173-.022-.37-.061-.58-.1a8.258,8.258,0,0,0-1.466-.19c-.611-.012-1.274-.018-2.085-.018-.457,0-.913,0-1.369,0q-.653,0-1.308,0h-.007a3.246,3.246,0,0,0-.337-.02,2.207,2.207,0,0,0-.838.159h-.038a3.586,3.586,0,0,0-.979.122,1.69,1.69,0,0,1-.324.056l.076-.1c.424-.573.827-1.155,1.219-1.718.3-.438.617-.89.93-1.323a25.357,25.357,0,0,1,2.447-2.929l.223-.227a13.353,13.353,0,0,1,3.473-2.846,1.887,1.887,0,0,0,.4-.263,12.7,12.7,0,0,1,2.417-1.48c.364-.188.74-.384,1.114-.593l.083-.047c.1-.057.24-.134.292-.153.357-.126.723-.242,1.112-.366l.488-.156a1.882,1.882,0,0,0,1.3-1.791v-.375a1.881,1.881,0,0,0-.549-1.328l-.425-.427a1.882,1.882,0,0,0-1.334-.554c-.069,0-.133,0-.192,0-.149-.036-.319-.09-.5-.146a7.258,7.258,0,0,0-1.464-.34,2.529,2.529,0,0,0-1.01-.2c-.147,0-.272.011-.367.02l-.119-.028a4.733,4.733,0,0,0-1.134-.157h-.087c-.818.02-1.535.029-2.193.029-.625,0-1.2-.008-1.755-.026q-.274-.008-.547-.008c-.858,0-1.693.058-2.5.114-.392.027-.784.054-1.177.074-.578.03-1.154.072-1.712.112l-.652.046h-.051a1.927,1.927,0,0,0-.738.145h-.036a2.459,2.459,0,0,0-.945.176c-.048,0-.126.007-.186.009-.128,0-.255.01-.384.021a5.4,5.4,0,0,0-.657.1c-.071.015-.166.034-.208.04a4.433,4.433,0,0,0-1.071.158c-.054.014-.122.03-.171.04a1.9,1.9,0,0,0-1.024.13,5.052,5.052,0,0,1-1.029.238,8.006,8.006,0,0,0-1.91.5,14.935,14.935,0,0,0-2.144.533,10.032,10.032,0,0,1-1.825.439,1.9,1.9,0,0,0-.564.148,19.084,19.084,0,0,1-2.495.816c-.631.175-1.284.358-1.938.584-.393.136-.77.283-1.135.425a10.558,10.558,0,0,1-2.221.693,1.877,1.877,0,0,0-.542.166,15.886,15.886,0,0,1-2.5.859c-.608.173-1.235.352-1.867.577a8.454,8.454,0,0,1-.951.249c-.222.05-.443.1-.661.156-.318.082-.6.186-.857.277a3,3,0,0,1-.742.211H566.8c-.064-.006-.127-.01-.19-.01a1.881,1.881,0,0,0-.786.172h-.107a2.839,2.839,0,0,0-.8.108,11.854,11.854,0,0,1-3.362.562h-.125c-.549-.009-1.1-.011-1.646-.011l-1.27,0q-.629,0-1.257,0h-.084a3.183,3.183,0,0,0-1.116-.192,5.547,5.547,0,0,0-.6.038l-.077-.021a3.689,3.689,0,0,0-1.008-.158l-.093,0-.126,0a6.723,6.723,0,0,1-2.757-.76l-.236-.11a9.471,9.471,0,0,0-1.975-.736c-.068-.045-.137-.089-.207-.13l-.02-.012c-.271-.16-.527-.31-.768-.465-.182-.117-.367-.232-.551-.348-.486-.3-.945-.593-1.358-.9a7.776,7.776,0,0,0-1.876-1.095c-.335-.129-.684-.28-.992-.413-.284-.123-.567-.247-.851-.373-.62-.273-1.261-.556-1.918-.818a5.4,5.4,0,0,0-.976-.268c-.121-.024-.259-.052-.321-.073a35.435,35.435,0,0,0-4.122-1.063l-.382-.082c-.321-.069-.647-.152-.992-.24-.311-.08-.622-.158-.933-.229-.228-.051-.453-.111-.68-.17a11.316,11.316,0,0,0-2.286-.419,4.455,4.455,0,0,1-.747-.084,3.408,3.408,0,0,0-1.075-.172,3.924,3.924,0,0,0-1.216-.214c-.057,0-.114,0-.173-.01s-.18-.028-.3-.051a6.3,6.3,0,0,0-.763-.11c-.275-.018-.53-.023-.777-.028a5.654,5.654,0,0,1-1.042-.079,4.884,4.884,0,0,0-1.059-.1c-.2,0-.4.009-.6.018-.143.007-.286.014-.428.014-.039,0-.078,0-.117,0-.225-.01-.472-.036-.733-.065-.373-.04-.794-.086-1.238-.09-1.265-.013-2.406-.023-3.549-.023-1,0-1.886.008-2.721.025q-.271.005-.542,0c-.458,0-.912-.009-1.392-.019s-.972-.02-1.468-.02a19.49,19.49,0,0,0-3.084.2,7.093,7.093,0,0,1-.745.054,7.975,7.975,0,0,0-1.56.17c-.523.121-1.082.195-1.673.272-.34.044-.692.09-1.05.147-.312.051-.6.114-.879.176a5.526,5.526,0,0,1-1.093.175c-.028,0-.056,0-.084,0l-.1,0a1.869,1.869,0,0,0-.735.15,2.36,2.36,0,0,0-.936.2,2.635,2.635,0,0,0-.985.2,2.977,2.977,0,0,0-.753.116,7.418,7.418,0,0,0-1.7.319,3.982,3.982,0,0,1-.9.186H493.7l-.092,0a1.879,1.879,0,0,0-.934.249c-.058.014-.169.034-.253.049-.162.028-.362.064-.577.121-.282.075-.542.158-.794.237-.189.06-.378.12-.57.173q-.184.05-.369.1a7.211,7.211,0,0,1-.993.238,9.524,9.524,0,0,0-2.221.57c-.461.178-.944.332-1.456.5a22.958,22.958,0,0,0-2.219.8,3.628,3.628,0,0,0-1.416.561c-.058.035-.138.084-.164.1l-.481.209c-.9.388-1.819.79-2.725,1.284a2.623,2.623,0,0,0-2.052,1.467,1.884,1.884,0,0,0-.2,2.175,1.675,1.675,0,0,1,.132.259,2.963,2.963,0,0,0,.832,2.313,2.781,2.781,0,0,0,.164.408c.041.151.078.3.115.456a9.556,9.556,0,0,0,.475,1.546,7.622,7.622,0,0,1,.289.83c.024.08.049.2.075.326a4.672,4.672,0,0,0,.475,1.412,2.576,2.576,0,0,1,.129.4c.053.2.114.418.206.662.234.628.413,1.3.6,2.005.047.177.235.872.235.872.132.492.267,1,.46,1.532.164.447.3.932.435,1.444.076.281.153.561.234.839l.071.247a11.951,11.951,0,0,0,.46,1.372,3.539,3.539,0,0,1,.142.524c.051.224.109.477.2.753.143.44.271.888.407,1.362.058.2.116.406.175.608.165.564.35,1.11.53,1.637s.339,1,.482,1.483a21.457,21.457,0,0,0,.778,2.117,15.128,15.128,0,0,1,.732,2.054,1.87,1.87,0,0,0,.235.554,3.186,3.186,0,0,0,.566,1.438,3.539,3.539,0,0,1,.261.51c.063.138.127.275.2.412a4.7,4.7,0,0,0,.384,1.117c.024.052.048.1.07.157a3.672,3.672,0,0,1,.123.417c.04.158.086.336.146.525.175.55.384,1.054.586,1.541.186.45.363.875.488,1.282a3.79,3.79,0,0,0,1.162,1.89,1.91,1.91,0,0,0,.064.268l.085.262c-.261.2-.512.4-.763.63l-.125.115c-.045.041-.088.084-.131.13l-.168.176a6.614,6.614,0,0,0-.516.618c-.16.207-.273.386-.355.517l-.1.167c-.1.168-.2.347-.293.54l-.049.1a12.893,12.893,0,0,0-.633,1.626l-.046.138-.255.2-.243.2-.326.283-.061.055-.287.273c-.025.023-.049.047-.077.076-.138.142-.288.306-.434.474-.025.029-.051.06-.081.1-.111.14-.258.327-.406.541-.014.019-.1.154-.112.171-.084.134-.2.314-.314.532a6.916,6.916,0,0,0-.508,1.257l-.041.129c-.027.085-.051.171-.068.252a9.784,9.784,0,0,0-.245,2.031v.027a13.312,13.312,0,0,0,.06,1.477c.039.428.091.819.137,1.143l.123.874a7.571,7.571,0,0,0,.66,2.216,8.62,8.62,0,0,0,.962,1.555c.362.468.681.815.913,1.068l.014.016c.073.079.138.151.21.233.037.043.063.075.077.093.077.117.158.242.251.395q.081.13.166.271l1.606-.98-1.593,1c.185.3.394.646.647,1.021l.157.23.118.166a2.942,2.942,0,0,0,.866.784,8.334,8.334,0,0,0,.861.969,7.976,7.976,0,0,0,2.06,1.416,8.377,8.377,0,0,0,2.385.721l.067.01a14.8,14.8,0,0,0,2.073.126h.625c.314,0,.469.008.536.013h0l.069.027.1.044.142.068a1.871,1.871,0,0,0,.809.183c.042,0,.084,0,.126,0L503.636,727c-.07.138-.138.275-.205.423a12.21,12.21,0,0,0-.53,1.437l-.082.266-.14.134-.178.169c-.227.215-.511.483-.811.794a11.458,11.458,0,0,0-1.32,1.616,11.134,11.134,0,0,0-1.038,1.971c-.247.612-.422,1.15-.563,1.582-.069.211-.134.412-.192.567l-.014.02c-.051.073-.112.155-.181.247l-.023.031c-.124.167-.264.356-.416.572l-.081.117c-.138.2-.225.339-.238.359l-.008.012a2.91,2.91,0,0,0-.405,1.164,7.319,7.319,0,0,0-.664,1.785A10.374,10.374,0,0,0,496.41,744c0,.008.163,1.15.163,1.15l.034.272,0,.049c0,.045,0,.1.005.159,0,0,0,1.112,0,1.12a11.664,11.664,0,0,0,.173,2,8.662,8.662,0,0,0,.369,1.382c.012.033.025.066.043.114l.1.259c0,.011.064.152.064.152l.086.187c.082.176.17.351.247.493a12.592,12.592,0,0,0,1.027,1.612c.311.417.645.824,1.025,1.247.165.184.331.362.5.543l.238.247.221.223c.031.031.064.063.1.1.131.121.263.241.411.367l.017.014c.181.151.35.271.481.364l.051.036c.2.14.388.249.513.32l.073.043c.188.108.343.182.458.236l.137.065a10.049,10.049,0,0,0,1.69.583c.287.073.545.13.768.179l.217.048c.112.025.18.042.215.052l.086.037.5.206c.442.178.831.317,1.212.434a11.067,11.067,0,0,0,3.215.5l.375-.005a2.925,2.925,0,0,0,2.325-1.214l1.367,4.212a4.679,4.679,0,0,0,4.457,3.233h0a4.692,4.692,0,0,0,4.46-6.146l-9.129-28.142c.147-.131.288-.262.421-.392l.142-.136.075-.061c.095-.076.219-.165.367-.274.238-.173.536-.391.874-.66a8.929,8.929,0,0,0,2.375-2.787,8.446,8.446,0,0,0,.743-2.017l.005-.024a10.133,10.133,0,0,0,.217-1.645v-.027c.029-.683,0-1.269-.018-1.706,0-.1-.009-.19-.012-.277-.008-.206-.011-.34-.01-.38v-.029c.026-.1.076-.265.106-.368.059-.2.125-.427.2-.714a10.183,10.183,0,0,0,.293-1.528,7.842,7.842,0,0,0-.081-2.31l-.01-.052a18.551,18.551,0,0,0-1.58-4.55l-.048-.1c-.047-.09-.094-.181-.136-.258l0-.009c-.088-.165-.153-.269-.186-.319a2.944,2.944,0,0,0-.822-.819,10.953,10.953,0,0,0-.71-.932c-.24-.284-.466-.529-.655-.735l-.206-.223-.153-.173-.105-.128c-.1-.117-.222-.282-.374-.484-.242-.32-.544-.718-.918-1.156a11.313,11.313,0,0,0-1.316-1.31,10.246,10.246,0,0,0-1.645-1.123,16.84,16.84,0,0,0-2.539-1.1l-1.068-.383c-.449-.153-.923-.29-1.41-.408-.462-.112-.947-.209-1.515-.3l-4.221-13.014.089-.059c.011-.006.221-.151.229-.157.117-.084.224-.166.331-.249l.115-.091c.228-.184.454-.382.675-.59.305-.288.559-.551.763-.763l.137-.142c.092-.1.168-.175.23-.236.07-.016.164-.035.287-.057.25-.044.557-.085.915-.132.221-.029.453-.06.68-.092.1-.014.187-.026.26-.038l.247-.039a2.927,2.927,0,1,0-.91-5.784l-.225.036-.166.024c-.237.031-.6.069-.955.106-.246.025-.5.052-.776.083-.228.027-.442.057-.645.09l.094-.029c.8-.239,1.627-.486,2.449-.8.578-.221,1.2-.391,1.858-.571.389-.106.791-.216,1.2-.34.179-.055.359-.112.539-.17a9.1,9.1,0,0,1,1.981-.48,5.671,5.671,0,0,0,1.084-.211,3.367,3.367,0,0,1,.408-.1c.036,0,.073,0,.11,0a1.875,1.875,0,0,0,.914-.238,2.97,2.97,0,0,0,.727-.172h.018a3.122,3.122,0,0,0,1.14-.242,2.718,2.718,0,0,0,1.012-.2,2.815,2.815,0,0,0,.966-.186c.536-.054,1.043-.144,1.535-.231s.94-.166,1.369-.2c.313-.025.612-.062.9-.1a10.932,10.932,0,0,1,1.249-.1c.052,0,.1,0,.155,0,.332.014.686.02,1.084.02.42,0,.841-.007,1.262-.014.4-.007.8-.014,1.2-.014a15.71,15.71,0,0,1,2.234.128c.225.031.455.055.688.079a7.675,7.675,0,0,1,.861.118,17.126,17.126,0,0,0,2.811.353l.227.015a5.3,5.3,0,0,1,1.561.268,6.494,6.494,0,0,0,.864.274l.155.041q.371.1.743.2c.337.089.675.178,1.01.273l.443.125c.652.182,1.267.355,1.871.553a11.228,11.228,0,0,0,1.452.344,6.5,6.5,0,0,1,1.114.272,3.61,3.61,0,0,0,.745.2l.067.011a9.826,9.826,0,0,0,1.866.451c.124.021.248.042.371.064a7.054,7.054,0,0,1,1.045.312c.18.063.36.126.542.185a15.84,15.84,0,0,0,2.119.487c.164.029.329.059.493.09.24.046.488.1.751.164a14.2,14.2,0,0,0,1.64.31,2.717,2.717,0,0,0,.92.173,2.877,2.877,0,0,0,1.077.214,2.658,2.658,0,0,0,1.042.2c.193,0,.368-.016.508-.029.054,0,.108-.012.16-.013s.153.026.235.042a4.8,4.8,0,0,0,.947.111c.1,0,.2,0,.292-.013l.052,0a4,4,0,0,1,.569.073,8.137,8.137,0,0,0,.913.118,2.83,2.83,0,0,0,.995.169h.086a1.877,1.877,0,0,0,.519.149c.344.048.7.118,1.082.193a15.619,15.619,0,0,0,1.973.3c.835.057,1.656.063,2.451.068.893.006,1.738.012,2.569.088.567.052,1.169.076,1.9.076.446,0,.893-.009,1.341-.019.422-.008.844-.017,1.264-.017h.273a4.919,4.919,0,0,0,1.093-.144c.089-.02.207-.046.26-.053a1.838,1.838,0,0,0,.267.019,1.877,1.877,0,0,0,.706-.138,2.408,2.408,0,0,0,.916-.177c.049,0,.127-.007.188-.009s.14,0,.209-.008a5.1,5.1,0,0,0,.878-.135c.073-.017.171-.038.214-.047a1.886,1.886,0,0,0,1.028-.14,2.427,2.427,0,0,0,1.158-.306l.3-.069q.761-.173,1.523-.348c.136-.031.275-.055.415-.081a6.071,6.071,0,0,0,1.593-.454,5.9,5.9,0,0,1,.857-.288,8.208,8.208,0,0,0,1.593-.585,27.5,27.5,0,0,0,3.93-1.483c.523-.229,1.018-.447,1.521-.649a25,25,0,0,0,2.632-1.3c.314-.172.662-.331,1.029-.5.437-.2.889-.408,1.35-.664.763-.424,1.575-.882,2.38-1.4.3-.19.638-.371,1-.561.425-.226.865-.46,1.31-.747a32.355,32.355,0,0,1,3.28-1.771c.353-.175.706-.348,1.058-.525.821-.415,1.685-.768,2.6-1.142.763-.312,1.553-.634,2.332-1l.216-.106c.084-.042.2-.1.234-.111.621-.171,1.193-.384,1.745-.588.344-.128.671-.249.994-.355.382-.125.751-.258,1.11-.388a14.886,14.886,0,0,1,2.212-.673c.836-.159,1.608-.342,2.3-.544a10.205,10.205,0,0,1,1.042-.221c.32-.057.65-.115,1-.2.653-.155,1.352-.251,2.091-.354.287-.04.575-.08.861-.123a16.08,16.08,0,0,1,1.829-.127c.349-.011.711-.023,1.078-.045.525-.032,1.049-.073,1.573-.112l.607-.046h.036a1.931,1.931,0,0,0,.734-.144,2.329,2.329,0,0,0,.834-.16,2.425,2.425,0,0,0,.869-.174,3.478,3.478,0,0,0,.714-.1c.034-.008.07-.013.106-.019a2.782,2.782,0,0,0,2.225-1.568A1.882,1.882,0,0,0,633.267,659.207ZM486.788,660.62h-.071a1.878,1.878,0,0,0-.507.069c.005-.173,0-.342-.007-.507a2.912,2.912,0,0,0,.36.218l0,0a1.851,1.851,0,0,0,.264.136C486.816,660.566,486.8,660.593,486.788,660.62Zm19.391,88.624c.028-.14.052-.28.076-.425l.008-.049a10.668,10.668,0,0,0,.364-1.121,10.9,10.9,0,0,0,.371-2.332c0-.012,0-.125,0-.124,0-.123.008-.269,0-.441,0,0-.01-.343-.011-.35-.009-.209-.024-.428-.045-.674-.037-.413-.084-.784-.127-1.106-.006-.044-.011-.085-.015-.124.116-.158.247-.336.4-.55a10.4,10.4,0,0,0,.675-1.1c.054-.1.1-.2.151-.3l4.067,12.537a2.892,2.892,0,0,0-.914-.148l-.318,0a4.252,4.252,0,0,1-.916-.114,6.262,6.262,0,0,1-1.353-.51l-.171-.087c-.077-.046-.149-.086-.21-.116s-.147-.077-.226-.112l-.221-.1c-.238-.1-.486-.185-.758-.279l-.28-.1a5.3,5.3,0,0,1-.8-.342,1.958,1.958,0,0,1-.227-.152l-.062-.057c-.02-.034-.038-.065-.056-.1A4.129,4.129,0,0,0,506.179,749.244Zm-12.826-53.589s-.016-.11-.016-.116l.074-.063.123.378Zm5.623-14.6-.31.219-.148-.455c.506-.138,1-.286,1.487-.439-.125.071-.245.142-.353.21C499.42,680.74,499.195,680.9,498.976,681.056Z" transform="translate(-475.927 -634.029)" fill="#fff"/>
        <path id="Path_1450" data-name="Path 1450" d="M516.521,751.445c.169-.124.345-.257.529-.408.275-.226.539-.46.779-.694l.171-.164.077-.067.09-.073c.113-.091.261-.2.432-.323.226-.164.506-.369.814-.614a7.107,7.107,0,0,0,1.887-2.2,6.536,6.536,0,0,0,.575-1.567,8.269,8.269,0,0,0,.175-1.346c.025-.6,0-1.117-.018-1.532,0-.106-.01-.206-.013-.3-.008-.2-.014-.4-.008-.538,0-.013,0-.026,0-.039s0-.05,0-.072l0-.06,0-.031.009-.051c.02-.111.087-.34.158-.583.057-.191.121-.409.191-.666a8.436,8.436,0,0,0,.243-1.259,6.3,6.3,0,0,0,.036-.836,5.989,5.989,0,0,0-.1-.923l0-.023a16.757,16.757,0,0,0-1.432-4.106l-.008-.015,0-.012-.01-.02c-.041-.079-.083-.16-.125-.238l0-.01c-.057-.109-.092-.16-.092-.16a1.051,1.051,0,0,0-.573-.425c-.008-.013-.014-.027-.022-.04a8.362,8.362,0,0,0-.806-1.115c-.218-.257-.422-.478-.6-.673l-.216-.235-.111-.125-.075-.086-.127-.153c-.124-.15-.26-.33-.418-.538-.241-.319-.514-.68-.855-1.08a9.428,9.428,0,0,0-1.093-1.09,8.419,8.419,0,0,0-1.348-.919,14.936,14.936,0,0,0-2.265-.977l-1.039-.373c-.4-.135-.816-.256-1.247-.36-.521-.126-1.026-.219-1.514-.3.148.377.29.757.432,1.137-.364-.068-.719-.126-1.061-.176l-5.393-16.627,1.1-.682.192-.127.179-.123c.094-.066.179-.133.265-.2l.086-.067c.193-.156.383-.323.569-.5.273-.258.5-.493.7-.7l.121-.126a5.647,5.647,0,0,1,.647-.611l.049-.024.077-.029.043-.015.039-.013c.023-.008.047-.015.089-.027a6.134,6.134,0,0,1,.614-.136c.294-.052.622-.1,1-.145.215-.028.44-.057.676-.091.078-.01.149-.021.211-.031h.005l.247-.039a1.045,1.045,0,0,0-.161-2.078,1.094,1.094,0,0,0-.164.012l-.245.039-.18.026c-.258.034-.627.073-1.019.114-.242.025-.5.051-.751.079a10.7,10.7,0,0,0-1.169.195l-.043.012c-.042.012-.069.017-.093.022a2.035,2.035,0,0,0-.31.087,3.472,3.472,0,0,0-.666.35c-.188.118-.382.258-.588.4l-.07.05c-.2.14-.4.284-.615.423a5.658,5.658,0,0,1-.63.357c-.127.059-.22.1-.309.13l-.1.036-.106.021a2.635,2.635,0,0,1-.437.042.828.828,0,0,1-.262-.031,2.215,2.215,0,0,0-.166-.223l-.951-2.931-5.339,1.747.531,1.637c-.221.123-.44.251-.655.393a8.943,8.943,0,0,0-1.069.827l-.122.112c-.016.015-.032.031-.048.047l-.17.178a4.922,4.922,0,0,0-.383.462,4.482,4.482,0,0,0-.257.377l-.071.112c-.08.136-.158.28-.234.43,0,.009-.033.068-.033.068a11.108,11.108,0,0,0-.545,1.407c-.026.079-.05.154-.078.236-.05.15-.1.286-.144.4l-.014.034-.023.021c-.092.08-.232.192-.4.321l-.261.208-.225.185-.267.233-.033.029-.262.249-.029.029c-.114.117-.24.255-.364.4l-.029.034c-.1.125-.218.276-.331.44-.009.012-.064.1-.064.1-.078.123-.166.262-.248.419a5.116,5.116,0,0,0-.375.944l-.04.125a.9.9,0,0,0-.025.094,7.912,7.912,0,0,0-.2,1.68,11.4,11.4,0,0,0,.051,1.27c.036.383.082.733.127,1.055l.124.879a5.7,5.7,0,0,0,.5,1.667,6.7,6.7,0,0,0,.75,1.21c.312.4.588.7.811.947.095.1.179.2.258.288.114.131.174.213.2.247.1.145.2.3.306.478.061.1.122.2.186.3.175.287.373.613.61.965l.045.066h0l.1.139.083.116a1.036,1.036,0,0,0,.59.395,6.479,6.479,0,0,0,.916,1.108,6.121,6.121,0,0,0,1.575,1.083,6.517,6.517,0,0,0,1.853.557l.045.006a12.978,12.978,0,0,0,1.815.108h.631c.312,0,.539.008.7.021l.131.013.077.011.029.007a.591.591,0,0,1,.063.014l.021.007a2.971,2.971,0,0,1,.314.116c.047.02.1.042.156.069l.168.08q-.192-.638-.377-1.277l.034.009a4.943,4.943,0,0,1,.612.237c.242.112.516.249.822.4l.238.117,6.512,20.074-.031.045c-.113.176-.2.328-.282.466l-.019.034c-.073.143-.143.282-.208.423a10.5,10.5,0,0,0-.451,1.229l-.023.073c-.072.234-.162.526-.209.643l-.013.013c-.04.044-.084.089-.138.143-.1.1-.218.214-.342.333l-.175.165c-.226.214-.482.456-.757.74a9.647,9.647,0,0,0-1.111,1.359,9.169,9.169,0,0,0-.853,1.622c-.223.553-.38,1.036-.519,1.462-.1.3-.182.555-.266.767l-.021.053-.01.021-.014.025c-.033.055-.073.119-.138.21s-.145.2-.235.321c-.116.157-.249.334-.392.538l-.062.089h0v0l-.006.008h0c-.121.173-.193.291-.193.291a1.039,1.039,0,0,0-.137.71c-.051.078-.1.158-.149.241a5.415,5.415,0,0,0-.556,1.442,8.533,8.533,0,0,0-.1,3.073l.162,1.14.03.234.012.1.007.074c.007.079.011.2.013.31l0,1.117a9.715,9.715,0,0,0,.145,1.693,6.694,6.694,0,0,0,.292,1.087c0,.012.009.025.014.037l.1.259.049.117.06.127c.068.145.138.284.2.4a10.8,10.8,0,0,0,.875,1.371c.276.371.574.734.912,1.111.152.168.3.333.458.493l.225.232.227.229.034.034c.114.1.229.21.358.32s.252.194.362.272l.047.034c.131.093.265.169.373.231l.07.041c.125.072.234.123.331.169l.1.049a8.118,8.118,0,0,0,1.375.472c.264.067.5.12.712.166l.216.048a3.854,3.854,0,0,1,.438.114h0c.025.01.049.02.071.027l.127.055.454.189c.392.158.734.28,1.071.383a9.129,9.129,0,0,0,2.652.417h.016l.328,0a1.046,1.046,0,0,0-.016-2.091l-.312,0a6.145,6.145,0,0,1-1.333-.16,8.154,8.154,0,0,1-1.793-.669l-.229-.116-.027-.015a1.7,1.7,0,0,0-.16-.09,1.047,1.047,0,0,0-.1-.053l-.177-.079c-.19-.079-.406-.153-.658-.24l-.294-.1a6.976,6.976,0,0,1-1.083-.469,3.842,3.842,0,0,1-.515-.348c-.081-.071-.153-.138-.219-.2s-.116-.133-.171-.2a4.24,4.24,0,0,1-.625-1.423.868.868,0,0,1-.014-.218,2.153,2.153,0,0,0,.851-1.512c.029-.138.052-.274.074-.406l.018-.11c.006-.045.016-.108.023-.147l.006-.014a8.468,8.468,0,0,0,.362-1.074,9.141,9.141,0,0,0,.316-1.973c0-.007,0-.077,0-.077,0-.1.006-.2,0-.32l-.01-.326c-.009-.2-.023-.4-.04-.588-.034-.379-.077-.723-.116-1.021a5.494,5.494,0,0,1-.063-.939l.025-.04c.068-.1.176-.25.3-.418s.271-.366.436-.6a8.467,8.467,0,0,0,.564-.919c.106-.192.2-.415.28-.6l.021-.052c.052-.131.1-.264.147-.383.127-.344.231-.662.322-.943.047-.144.092-.28.137-.412a5.732,5.732,0,0,1,.3-.756,1.977,1.977,0,0,1,.118-.2,2.776,2.776,0,0,1,.189-.237c.173-.2.436-.447.7-.694l8.279,25.523a2.809,2.809,0,0,0,5.339-1.747ZM492.8,718.723c0,.024,0,.048,0,.072a4.616,4.616,0,0,0,.087.681c.012.068.025.137.036.207a1.5,1.5,0,0,1,.027.368,2.123,2.123,0,0,0-.577.922c-.034-.046-.068-.089-.1-.137a5.505,5.505,0,0,1-.564-.943,3.037,3.037,0,0,1-.282-1.119.312.312,0,0,1,0,.055l0-.057v0l.033-.608c.015-.245.033-.457.055-.647a4.673,4.673,0,0,1,.233-1.07,1.5,1.5,0,0,1,.239-.446,2.464,2.464,0,0,0,.474.046,2.762,2.762,0,0,0,.6-.069c-.02.162-.036.339-.047.537-.014.225-.022.471-.03.727s-.016.52-.033.777c-.018.042-.036.088-.052.136a1.5,1.5,0,0,0-.073.277A1.368,1.368,0,0,0,492.8,718.723Zm15.3,38.849a.806.806,0,0,1-.164.1,2.137,2.137,0,0,0-.631-.1,2.049,2.049,0,0,0-.461.058,10.39,10.39,0,0,1,.521-1.051,5.037,5.037,0,0,1,1.046-1.291,4.55,4.55,0,0,1,1.06-.682,2.883,2.883,0,0,1,.745-.239,1.208,1.208,0,0,1,.166-.014.366.366,0,0,1,.081.007h0l.058.023a1.826,1.826,0,0,0,.988.4c-.358.307-.7.557-1.022.786l-.112.081c-.257.182-.477.338-.665.479a6.8,6.8,0,0,0-.629.518c-.129.121-.26.251-.39.382A5.83,5.83,0,0,1,508.1,757.573Zm12.273-19.4-.017.19-.028.18c-.012.081-.031.16-.055.258l-.008.033a5.349,5.349,0,0,1-.371.995c-.139.294-.265.521-.352.675l-.068.118-.071.117a.93.93,0,0,0-.064.125l-.036.079c-.041.091-.083.184-.114.267s-.077.2-.116.294a4.792,4.792,0,0,1-.379.835.706.706,0,0,1-.073.1,2.155,2.155,0,0,0-1.045.307q.008-.171.019-.352c.014-.219.031-.475.068-.756a5.79,5.79,0,0,1,.147-.78,4.7,4.7,0,0,1,.515-1.159,5.263,5.263,0,0,1,.453-.641c.077-.091.149-.17.221-.247s.144-.157.216-.24a1.022,1.022,0,0,0,.122-.175.781.781,0,0,1,.1-.141,1.98,1.98,0,0,0,.94-.551A3.024,3.024,0,0,1,520.374,738.173Zm-9.216-6.343a2.984,2.984,0,0,1,.351.191l.114.077a1.069,1.069,0,0,0,.324.137l.019.03.1.151a15.362,15.362,0,0,0,1.077,1.527l.012.014c.053.066.128.154.2.237l.012.014c.063.075.124.14.184.206l.05.053c.159.169.307.314.427.432l.649.614a3.444,3.444,0,0,1,.4.425,10.75,10.75,0,0,1,.836,2.273c-.033.155-.115.434-.2.725l-.03.1a10.03,10.03,0,0,0-.333,1.462c-.021.165-.043.34-.051.5s-.019.3-.021.413c0,.139-.006.277,0,.386,0,.127,0,.251.006.368l.042,1.09a4.494,4.494,0,0,1-.007.491l-.013.012a1.078,1.078,0,0,0-.316.466c-.138.073-.286.155-.445.249-.068.042-.147.089-.232.143l-4.7-14.495.238.085.924.334.075.029C510.957,730.986,511.064,731.406,511.158,731.83Zm-1.794-5.67q.188.519.375,1.039c.4,1.1.773,2.194,1.084,3.307l-.105-.045-.669-.286-.364-.162-.137-.064-1.41-4.347A8.207,8.207,0,0,1,509.364,726.16Zm-9-3.043c-.06-.355-.115-.711-.16-1.07-.236-.024-.463-.044-.673-.062-.341-.03-.636-.055-.84-.086a1.047,1.047,0,0,1-.118-.023.974.974,0,0,1-.078-.07,7.363,7.363,0,0,1-.829-1.212l-.332-.536-.188-.293-.042-.064c-.055-.083-.11-.166-.189-.275a11.329,11.329,0,0,0-.9-1.092l-.1-.11c-.178-.193-.284-.317-.344-.391l-.092-.656c-.044-.312-.072-.538-.09-.733-.012-.135-.021-.261-.023-.371l.142-.113c.168-.133.377-.3.61-.5.079-.066.152-.129.214-.187h0l.162-.15.118-.115a1.042,1.042,0,0,0,.295-.7,5.667,5.667,0,0,0,.377-.446,7.363,7.363,0,0,0,.737-1.249l3.473,10.708A9.1,9.1,0,0,0,500.363,723.117Z" transform="translate(-479.925 -655.384)" fill="#fff"/>
        <path id="Path_1451" data-name="Path 1451" d="M631.631,661.337a2.753,2.753,0,0,1-1.022-.132,1.841,1.841,0,0,0-.808-.182c-.374.038-.664-.162-1.008-.19a2.329,2.329,0,0,1-.906-.177c-.336-.186-.708-.048-1-.175-1.121-.483-2.368-.589-3.5-1.044-.712-.287-1.464-.481-2.189-.742-.38-.135-.8-.2-1.195-.352a7.75,7.75,0,0,0-1.21-.3,27.3,27.3,0,0,0-2.66-.721,5.644,5.644,0,0,1-1.424-.429,8.03,8.03,0,0,0-2.544-.556,1.325,1.325,0,0,1-.434-.034,11.254,11.254,0,0,0-2.047-.456c-.632-.135-1.254-.308-1.907-.391a17.5,17.5,0,0,0-1.845-.277c-1.591-.031-3.182-.01-4.774-.01-.15,0-.333-.052-.444.009-.382.21-.816.072-1.186.179a4.679,4.679,0,0,1-1.283.146c-.06,0-.151-.023-.175,0-.262.295-.614.114-.921.164s-.609.12-.916.164a8.8,8.8,0,0,0-1.574.307,2.1,2.1,0,0,1-.634.01c.519-.567,1.01-1.073,1.464-1.607.6-.708,1.208-1.419,1.758-2.162.736-.993,1.412-2.024,2.137-3.025a27.326,27.326,0,0,1,2.629-3.145,15.889,15.889,0,0,1,4.21-3.443,22.439,22.439,0,0,1,3.841-2.289,4.5,4.5,0,0,1,.663-.33c.544-.193,1.1-.361,1.65-.539v-.375l-.425-.427a2.623,2.623,0,0,1-.423,0,9.989,9.989,0,0,0-2.3-.5c-.286-.315-.672-.105-1.008-.162a5.5,5.5,0,0,0-1.1-.181c-1.35.032-2.7.045-4.052,0s-2.713.109-4.069.178c-.816.042-1.632.109-2.447.164-.03,0-.074-.012-.088,0-.293.288-.706.051-1,.182a3.186,3.186,0,0,1-1.1.156c-.338.029-.671.151-1.007.151-.527,0-1.009.3-1.547.177-1,.427-2.167.32-3.14.835-1.488.162-2.828.867-4.319,1.017-1.465.64-3.06.932-4.573,1.453a20.452,20.452,0,0,1-3.7,1.2,45.768,45.768,0,0,1-4.548,1.512c-.578.206-1.187.3-1.773.455a6.417,6.417,0,0,1-2.287.537c-.336.326-.784.092-1.169.2a13.635,13.635,0,0,1-4.042.635c-1.381-.021-2.762,0-4.143,0-.18,0-.41.067-.531-.012a1.738,1.738,0,0,0-1.194-.138c-.431.042-.784-.194-1.188-.181a8.222,8.222,0,0,1-3.729-.928,8.329,8.329,0,0,0-2.007-.754,1.966,1.966,0,0,1-.58-.311c-.286-.168-.572-.336-.851-.514-.677-.435-1.375-.847-2.016-1.323a6.006,6.006,0,0,0-1.427-.848c-.358-.138-.711-.289-1.063-.441-.906-.391-1.8-.8-2.719-1.171-.382-.152-.821-.175-1.213-.309a37.213,37.213,0,0,0-4.289-1.086c-.652-.141-1.3-.326-1.945-.473a15.765,15.765,0,0,0-2.651-.546,4.859,4.859,0,0,1-1.262-.184c-.359-.125-.719-.012-1.013-.145a2.947,2.947,0,0,0-1.014-.156c-.338-.033-.67-.134-1.008-.156a13.95,13.95,0,0,1-2.093-.146,11.475,11.475,0,0,0-1.884-.033c-.637-.028-1.271-.147-1.908-.153-2.071-.02-4.143-.039-6.214,0a45.713,45.713,0,0,0-6.233.149c-.715.112-1.473.034-2.17.2-.94.219-1.9.293-2.85.445a11.485,11.485,0,0,1-2.456.369c-.259.333-.71.016-.974.23-.319.257-.725-.014-1.077.242-.217.158-.679-.023-.983.2-1.081-.072-2.031.553-3.108.5a4.45,4.45,0,0,1-1.283.355c-.454.12-.9.282-1.349.406a11.945,11.945,0,0,1-1.622.394,7.674,7.674,0,0,0-1.78.458c-1.282.5-2.641.8-3.882,1.392-.527-.024-.869.34-1.3.527-1.058.463-2.125.9-3.132,1.461a1.29,1.29,0,0,1-.458.162.8.8,0,0,0-.8.611c-.031.092-.133.162-.189.227a2.2,2.2,0,0,1,.384,1.323,1.119,1.119,0,0,0,.427,1,.468.468,0,0,1,.321.63c.036.123.116.236.151.358a15.594,15.594,0,0,0,.539,1.88,9.7,9.7,0,0,1,.361,1.029,6.412,6.412,0,0,0,.386,1.352,8.67,8.67,0,0,1,.457,1.329c.329.882.551,1.8.8,2.7.157.574.3,1.154.5,1.722.285.782.471,1.6.706,2.4a13.169,13.169,0,0,0,.458,1.415c.2.473.246.96.4,1.431.217.668.4,1.348.6,2.022.307,1.049.7,2.071,1.012,3.12.422,1.443,1.172,2.788,1.532,4.252.34.38.181.909.486,1.32a8.568,8.568,0,0,1,.651,1.248c.036.07.118.135.118.2a2.863,2.863,0,0,0,.356,1.117,11.636,11.636,0,0,1,.336,1.121c.306.967.783,1.877,1.079,2.84a1.819,1.819,0,0,0,.7,1.095h1.15a7.7,7.7,0,0,1,.726-.329c.862-.29,1.714-.6,2.547-.953a7.672,7.672,0,0,1,1.556-.54,35.215,35.215,0,0,0,4.007-1.116c1.131-.358,2.287-.66,3.389-1.082,1.034-.4,2.121-.63,3.175-.952a13.427,13.427,0,0,1,2.929-.727,12.406,12.406,0,0,1,1.745-.31c.271-.292.7-.145,1.034-.313.308-.153.8-.031,1.064-.212.356-.243.747-.015,1.079-.231.3-.2.754.026,1.059-.245,1.114-.065,2.195-.374,3.292-.464a20.891,20.891,0,0,1,2.534-.2,59.244,59.244,0,0,1,5.965.136c.563.079,1.173.1,1.713.228a17.066,17.066,0,0,0,2.74.323,6.784,6.784,0,0,1,2.152.406,6.658,6.658,0,0,0,.794.238c.589.161,1.182.31,1.769.475.8.225,1.6.442,2.39.7.875.286,1.819.314,2.678.657.229.091.5.088.731.177a10.679,10.679,0,0,0,1.958.441,14.105,14.105,0,0,1,1.83.558,83.369,83.369,0,0,0,4.957,1c.291.258.745.031.981.2.363.266.78.032,1.16.264.271.166.759.01,1.147.038a7.62,7.62,0,0,0,1.185.145c.747-.068,1.443.241,2.179.183.388.369,1-.043,1.381.334.983.134,1.949.41,2.931.479,1.68.116,3.369.005,5.06.16,1.517.138,3.059.02,4.59.034a9.58,9.58,0,0,1,1.634-.178c.258-.288.644-.053.91-.176a2.6,2.6,0,0,1,1.014-.154,5.92,5.92,0,0,1,1.457-.164c.282-.367.833.042,1.113-.331.735-.168,1.471-.334,2.206-.5a7.9,7.9,0,0,0,1.621-.4c.824-.392,1.773-.466,2.556-.935a41.8,41.8,0,0,0,5.449-2.116,23.282,23.282,0,0,0,2.434-1.21c.766-.418,1.6-.727,2.368-1.156s1.538-.862,2.283-1.338,1.557-.824,2.3-1.3a48.447,48.447,0,0,1,4.511-2.4c1.613-.814,3.343-1.395,4.977-2.166a4.778,4.778,0,0,1,.753-.329c.907-.25,1.763-.626,2.654-.918a28.485,28.485,0,0,1,3.555-1.121c.71-.135,1.43-.3,2.117-.5.7-.207,1.43-.277,2.135-.445,1.013-.24,2.069-.349,3.1-.506,1.009-.153,2.049-.127,3.074-.19.756-.047,1.512-.109,2.267-.164.03,0,.076.01.088,0,.251-.3.666-.033.9-.192.286-.194.6-.034.834-.156.309-.164.627-.087.922-.164.377-.1.865-.062,1.089-.549A4.466,4.466,0,0,0,631.631,661.337ZM486.147,650.489h.06v.167h-.06Zm6.659,25.536-.068-.325h.019a.361.361,0,0,1,.166.312Zm.248-5.512c-.364-.752-.765-1.471-1.056-2.243-.161-.425-.43-.831-.614-1.263-.471-1.1-.9-2.211-1.358-3.314-.187-.456-.242-1-.7-1.351.057.232.035.464.1.708.3,1.134.911,2.161,1.232,3.282a5.152,5.152,0,0,1,.3,1.221,5.944,5.944,0,0,0,.167.682,8.043,8.043,0,0,0,.256,1.571c.189.49.12,1.046.468,1.486-.091,1,.529,1.89.545,2.876,0,.07.075.137.1.21a2.629,2.629,0,0,1,.258,1.3c-.262-.062-.126-.251-.186-.358-.5-.9-.729-1.887-1.167-2.807a9.435,9.435,0,0,1-.426-1.335,8.01,8.01,0,0,0-.279-.813,10.17,10.17,0,0,1-.462-1.324,14.136,14.136,0,0,0-1.712-4.35,3.344,3.344,0,0,1-.425-.751c-.07-.311-.341-.377-.515-.567.225,1.005.454,1.992.673,2.98.072.325.258.627.348.949.192.693.194,1.42.377,2.11a24.3,24.3,0,0,0,.632,2.508,17.4,17.4,0,0,1,.439,1.753,6.2,6.2,0,0,1,.337,1.281,6.828,6.828,0,0,0,.386,1.362,4.929,4.929,0,0,0,.372,1.273c.53.944.735,2,1.243,2.946.024.044,0,.109,0,.249l-.628.548c-.075-.4-.13-.676-.182-.956a16.076,16.076,0,0,0-.81-2.109c-.306-.912-.6-1.828-.9-2.74a3.7,3.7,0,0,0-.264-.649,11.785,11.785,0,0,1-1.01-2.619,14.747,14.747,0,0,0-.592-1.523c-.619-1.519-1.137-3.07-1.669-4.613a6.647,6.647,0,0,1-.608-2.44c-.06-.044-.164-.082-.173-.134a6.029,6.029,0,0,0-.214-1.254,1.539,1.539,0,0,1-.15-.69,8.317,8.317,0,0,0-.63-2.928,9.344,9.344,0,0,1-.643-2.674c0-.172-.129-.34-.168-.515-.168-.74-.362-1.479-.574-2.2-.27-.916-.584-1.828-.906-2.733a8.223,8.223,0,0,1-.512-1.472c-.077-.488-.4-.919-.371-1.448.012-.2-.321-.395-.053-.658.327.8.651,1.6.972,2.388a5.9,5.9,0,0,0,.223.582,36.072,36.072,0,0,1,1.61,3.552,10.415,10.415,0,0,0,.727,1.806,1.767,1.767,0,0,1,.305.875,6.229,6.229,0,0,0,.4,1.358,3.38,3.38,0,0,0,.712,1.264c-.065-.27-.127-.54-.2-.81-.179-.709-.333-1.425-.549-2.125-.16-.516-.481-1-.588-1.52-.159-.77-.478-1.491-.676-2.247a18.911,18.911,0,0,0-.748-2.212c-.318-.8-.518-1.631-.856-2.422-.036-.085.017-.2.047-.474a37.579,37.579,0,0,1,1.568,3.489c.5.523.564,1.231.9,1.821.316.549.453,1.159.718,1.725a3.271,3.271,0,0,0,.184.429,11.986,11.986,0,0,1,1.239,2.941c.228.692.6,1.332.768,2.044.022.1.217.16.331.238a9.188,9.188,0,0,0-.515-2.8c-.2-.7-.358-1.418-.568-2.12a16.6,16.6,0,0,0-.55-1.706,11.356,11.356,0,0,0-.511-1.639c-.086-.144-.014-.37.04-.566.367.742.745,1.462,1.049,2.221.219.545.55,1.063.808,1.606.379.8.682,1.628,1.01,2.447a17.156,17.156,0,0,1,.867,2.67c.06.271.26.513.345.781.2.621.378,1.247.543,1.876a13.511,13.511,0,0,0,.542,1.877,9.173,9.173,0,0,1,.342,1.449c.223.912.527,1.8.783,2.7.156.55.338,1.093.493,1.644A.61.61,0,0,1,493.055,670.513Z" transform="translate(-476.793 -634.895)" fill="#fff"/>
      </g>
      <g id="Group_1855" data-name="Group 1855" transform="translate(23.291 99.824)">
        <path id="Path_1452" data-name="Path 1452" d="M529.289,780.868,525.6,764.6l-7.4-15.062L514.45,733.3l-6.169-15.464-5.107-15.5-3.481,1.212,4.425,15.649,4.243,16.085,5.866,15.559,6.138,15.474L524,782.6,528,785.106l-.552-1.687Z" transform="translate(-499.693 -702.334)" fill="#f5b700"/>
      </g>
      <path id="Path_1453" data-name="Path 1453" d="M500.2,722.126c-.237-.023-.464-.043-.673-.062-.342-.029-.636-.055-.84-.086a1.117,1.117,0,0,1-.118-.023.875.875,0,0,1-.078-.07,7.322,7.322,0,0,1-.83-1.212l-.332-.536-.188-.293-.042-.063c-.055-.083-.11-.167-.189-.275a11.338,11.338,0,0,0-.9-1.092l-.1-.11c-.178-.193-.284-.316-.344-.39l-.092-.656c-.044-.312-.072-.538-.09-.733-.012-.135-.02-.26-.023-.371l.142-.113c.168-.133.377-.3.61-.5.08-.067.153-.13.215-.188h0s.131-.119.162-.15c0,0,.1-.094.118-.115a1.042,1.042,0,0,0,.295-.7c.129-.139.257-.288.377-.447a8.275,8.275,0,0,0,.979-1.8l.133-.328c.083-.206.162-.4.211-.514.019-.023.038-.048.056-.073.114-.107.247-.221.395-.34.31-.249.69-.522,1.093-.81l.371-.266.43-.316c.1-.075.206-.151.317-.227.2-.141.433-.293.7-.46l1.685-1.045.193-.127.179-.123c.094-.066.179-.133.265-.2l.087-.068c.192-.156.383-.323.569-.5.273-.258.5-.492.7-.7l.121-.126a5.659,5.659,0,0,1,.646-.611l.049-.023.077-.029a.44.44,0,0,1,.043-.014l.039-.014.089-.027a6.038,6.038,0,0,1,.614-.136c.294-.052.621-.1,1-.145.214-.028.44-.058.675-.091.078-.01.149-.021.211-.031h.005l.247-.038a1.046,1.046,0,0,0-.162-2.079,1.033,1.033,0,0,0-.164.013l-.245.038-.18.026c-.258.034-.627.073-1.019.114-.242.025-.495.051-.751.08a10.677,10.677,0,0,0-1.169.194l-.043.012c-.042.012-.07.017-.094.023a1.9,1.9,0,0,0-.31.087,3.477,3.477,0,0,0-.666.349c-.188.119-.383.258-.588.4l-.07.05c-.2.14-.4.285-.615.423a5.869,5.869,0,0,1-.63.358,3.179,3.179,0,0,1-.31.129l-.1.036-.106.021a2.636,2.636,0,0,1-.438.042.833.833,0,0,1-.262-.031,2.013,2.013,0,0,0-1.661-.943,3.652,3.652,0,0,0-.448-.027,4.929,4.929,0,0,0-1.032.118,6.58,6.58,0,0,0-.839.247c-.247.077-.5.166-.75.266a10.186,10.186,0,0,0-1.849.96,8.851,8.851,0,0,0-1.069.827l-.123.112-.048.047-.17.178a5.152,5.152,0,0,0-.383.462c-.107.14-.187.266-.257.378l-.071.112c-.08.136-.158.28-.234.43l-.033.069a11.047,11.047,0,0,0-.545,1.406c-.026.079-.051.154-.079.236-.049.15-.1.286-.143.4l-.015.034-.023.021c-.091.08-.232.192-.4.321l-.261.208-.225.186c-.008.006-.267.232-.267.232a.432.432,0,0,0-.033.03l-.262.249-.029.029c-.114.117-.24.255-.364.4l-.028.034c-.1.126-.218.276-.332.44-.009.012-.064.1-.064.1-.077.123-.166.262-.248.419a5.062,5.062,0,0,0-.375.944l-.04.126c-.01.03-.018.062-.025.093a7.96,7.96,0,0,0-.2,1.68,11.421,11.421,0,0,0,.052,1.27c.036.383.082.733.127,1.055l.123.879a5.687,5.687,0,0,0,.5,1.667,6.755,6.755,0,0,0,.75,1.21c.312.4.589.7.812.947.094.1.179.195.258.287.114.131.175.212.2.247.1.145.2.3.306.479.06.1.122.2.186.3.175.288.373.613.611.965l.045.066h0l.1.14.083.116a1.043,1.043,0,0,0,.59.4,6.467,6.467,0,0,0,.917,1.108,6.089,6.089,0,0,0,1.575,1.083,6.516,6.516,0,0,0,1.852.557l.045.006a12.981,12.981,0,0,0,1.814.109h.632c.312,0,.538.008.7.021l.132.013.076.012.029.006a.5.5,0,0,1,.063.015l.021.006a3.026,3.026,0,0,1,.315.117c.047.019.1.042.155.068l.169.08A42.326,42.326,0,0,1,500.2,722.126Zm-7.2-5.531c-.014.225-.022.471-.03.727s-.016.52-.032.777c-.019.042-.036.088-.053.136a1.5,1.5,0,0,0-.072.277,1.418,1.418,0,0,0-.02.29q0,.036,0,.072a4.617,4.617,0,0,0,.086.681c.012.068.025.137.036.208a1.543,1.543,0,0,1,.027.369,2.108,2.108,0,0,0-.577.923l-.1-.138a5.553,5.553,0,0,1-.564-.943,3.035,3.035,0,0,1-.281-1.119.284.284,0,0,1,0,.055l0-.057v0l.033-.608c.014-.245.032-.456.054-.647a4.671,4.671,0,0,1,.234-1.07,1.517,1.517,0,0,1,.238-.446,2.468,2.468,0,0,0,.475.047,2.759,2.759,0,0,0,.6-.069C493.035,716.22,493.019,716.4,493.007,716.595Z" transform="translate(-472.912 -602.619)" fill="#fff"/>
      <path id="Path_1454" data-name="Path 1454" d="M528.8,747.035l0-.023a16.782,16.782,0,0,0-1.432-4.106l-.009-.015,0-.012-.011-.02c-.04-.079-.082-.16-.125-.238l0-.01c-.058-.109-.091-.16-.091-.16a1.06,1.06,0,0,0-.573-.425c-.008-.013-.014-.026-.022-.04a8.4,8.4,0,0,0-.807-1.114c-.217-.258-.422-.479-.6-.674l-.216-.234-.112-.126-.075-.086-.126-.153c-.124-.149-.26-.33-.418-.538-.242-.319-.515-.68-.856-1.08a9.369,9.369,0,0,0-1.093-1.089,8.419,8.419,0,0,0-1.348-.919A14.936,14.936,0,0,0,518.61,735l-1.04-.373c-.4-.134-.815-.255-1.247-.36-.521-.126-1.026-.219-1.514-.3.41,1.047.788,2.106,1.171,3.167a37.987,37.987,0,0,1,1.419,4.632,2.951,2.951,0,0,1,.351.191l.114.077a1.025,1.025,0,0,0,.323.137l.019.031.1.151a15.324,15.324,0,0,0,1.076,1.527l.012.015c.053.066.129.154.2.237l.012.014c.063.074.124.14.185.2l.049.053c.159.169.307.314.427.432l.649.615a3.55,3.55,0,0,1,.4.425,10.8,10.8,0,0,1,.836,2.273c-.034.155-.115.434-.2.725l-.03.1a9.971,9.971,0,0,0-.332,1.462c-.022.165-.043.34-.051.5s-.019.295-.021.412c0,.14-.007.277,0,.386,0,.128,0,.252.006.369l.042,1.089a4.755,4.755,0,0,1-.006.491l-.014.012a1.073,1.073,0,0,0-.315.466c-.138.074-.286.156-.445.249a7.906,7.906,0,0,0-1.159.838l-.127.113-.186.159-.318.265c-.224.183-.482.379-.78.6l-.2.149c-.2.15-.4.307-.618.483l-.069.056c-.087.071-.173.142-.262.219l-.171.149-.189.171c-.017.016-.034.032-.051.049l-.07.071c-.1.1-.2.2-.289.3l-.025.029c-.124.149-.232.3-.34.445-.011.016-.022.031-.032.048-.113.175-.205.327-.283.465l-.018.034c-.073.143-.144.282-.208.423a10.319,10.319,0,0,0-.451,1.229l-.023.073c-.072.234-.162.526-.209.643l-.012.013c-.041.044-.085.09-.138.142-.1.1-.219.215-.343.333l-.175.166c-.226.213-.482.455-.756.739a9.592,9.592,0,0,0-1.111,1.359,9.125,9.125,0,0,0-.853,1.622c-.223.553-.381,1.036-.52,1.462-.1.3-.181.556-.266.767l-.021.054-.01.02-.013.025c-.034.055-.073.119-.138.21s-.145.2-.234.321c-.117.157-.249.334-.392.538l-.061.088h0v0l-.006.008h0c-.121.173-.193.29-.193.291a1.036,1.036,0,0,0-.137.71c-.051.078-.1.158-.149.241a5.4,5.4,0,0,0-.556,1.442,8.516,8.516,0,0,0-.1,3.073l.162,1.141.03.233.012.1.006.074c.008.079.011.206.013.31l0,1.117a9.706,9.706,0,0,0,.144,1.693,6.8,6.8,0,0,0,.292,1.088l.014.036.1.259.049.117c.006.014.059.127.059.127.068.145.138.284.2.4a10.679,10.679,0,0,0,.876,1.371c.276.371.573.734.912,1.111q.227.253.458.494l.225.231.227.229.034.034c.114.1.229.21.358.32s.251.194.362.272l.047.034c.131.092.264.169.372.231l.071.041c.125.072.234.123.33.169l.1.049a8.13,8.13,0,0,0,1.376.472c.264.068.5.12.711.166l.217.048a3.679,3.679,0,0,1,.438.114h0l.071.028.128.055.453.189c.392.158.734.28,1.071.384a9.133,9.133,0,0,0,2.652.416h.016l.329,0a1.046,1.046,0,0,0-.016-2.091l-.313,0a6.143,6.143,0,0,1-1.332-.16,8.143,8.143,0,0,1-1.794-.669l-.229-.116-.027-.015a1.527,1.527,0,0,0-.16-.09,1.042,1.042,0,0,0-.1-.053l-.177-.079c-.19-.079-.407-.154-.658-.24l-.3-.1a7.047,7.047,0,0,1-1.082-.47,3.862,3.862,0,0,1-.516-.348c-.081-.071-.153-.137-.218-.2s-.116-.133-.17-.2a4.247,4.247,0,0,1-.625-1.423.879.879,0,0,1-.014-.218,2.156,2.156,0,0,0,.851-1.512c.03-.138.053-.274.075-.406l.017-.11c.007-.044.016-.108.023-.147l.005-.014a8.462,8.462,0,0,0,.362-1.074,9.1,9.1,0,0,0,.316-1.973c0-.008,0-.078,0-.078,0-.1.006-.2,0-.319l-.01-.327c-.008-.2-.023-.4-.039-.588-.034-.379-.078-.724-.117-1.022a5.376,5.376,0,0,1-.062-.939c.008-.013.016-.026.025-.04.068-.1.176-.25.3-.418s.272-.366.436-.6a8.475,8.475,0,0,0,.565-.919c.105-.192.2-.414.279-.6,0-.01.021-.051.021-.051.051-.132.1-.264.146-.384.126-.344.23-.662.322-.943.047-.144.091-.28.136-.412a5.706,5.706,0,0,1,.3-.756,2.088,2.088,0,0,1,.118-.2,2.707,2.707,0,0,1,.188-.237c.183-.207.464-.475.741-.734l.047-.045c.331-.313.7-.668,1.124-1.143l.026-.031a5.969,5.969,0,0,0,.536-.741l.011-.018c.036-.057.071-.116.1-.17l.107-.2c.05-.1.107-.207.154-.318a9.361,9.361,0,0,0,.382-1.014l.02-.06.221-.7c.016-.051.031-.092.045-.13l.018-.05.021-.049v0c.006-.011.012-.021.017-.033s.012-.035.02-.053c.126-.077.255-.157.4-.245a13.805,13.805,0,0,0,1.33-.956c.275-.226.538-.461.779-.694l.17-.164.077-.067.09-.073c.113-.09.261-.2.432-.323.225-.164.506-.368.813-.614a7.1,7.1,0,0,0,1.887-2.2,6.534,6.534,0,0,0,.575-1.566,8.28,8.28,0,0,0,.176-1.347c.025-.6,0-1.117-.018-1.532,0-.1-.01-.206-.014-.3-.007-.2-.013-.4-.008-.538,0-.013,0-.026,0-.039,0-.028,0-.051,0-.073l0-.06,0-.031.009-.051c.02-.111.087-.34.159-.583.056-.191.121-.409.191-.667a8.535,8.535,0,0,0,.243-1.259,6.2,6.2,0,0,0,.036-.836A6.018,6.018,0,0,0,528.8,747.035ZM516.73,765.5l-.112.081c-.257.183-.476.338-.664.479a6.587,6.587,0,0,0-.629.518c-.13.121-.26.251-.391.382a5.952,5.952,0,0,1-.591.545.793.793,0,0,1-.164.1,2.14,2.14,0,0,0-.631-.1,2.05,2.05,0,0,0-.462.058,10.275,10.275,0,0,1,.521-1.051,5.034,5.034,0,0,1,1.045-1.291,4.549,4.549,0,0,1,1.06-.682,2.879,2.879,0,0,1,.746-.239,1.2,1.2,0,0,1,.166-.014.357.357,0,0,1,.081.007h0c.019.008.038.016.058.023a1.82,1.82,0,0,0,.988.4C517.394,765.026,517.048,765.276,516.73,765.5Zm9.884-17.4-.017.19-.028.181c-.012.081-.031.159-.055.258l-.008.032a5.427,5.427,0,0,1-.371,1c-.14.293-.265.521-.353.675l-.069.118-.071.117a1.075,1.075,0,0,0-.064.125l-.035.079c-.042.091-.084.185-.114.267s-.077.195-.115.294a4.768,4.768,0,0,1-.38.835.654.654,0,0,1-.073.1,2.165,2.165,0,0,0-1.045.307c.006-.114.012-.231.019-.352.014-.219.031-.475.067-.756a5.788,5.788,0,0,1,.148-.78,4.68,4.68,0,0,1,.515-1.159,5.189,5.189,0,0,1,.453-.64c.076-.092.149-.17.22-.247s.144-.157.216-.24a1.058,1.058,0,0,0,.122-.175.788.788,0,0,1,.095-.141,1.979,1.979,0,0,0,.94-.551A2.93,2.93,0,0,1,526.614,748.107Z" transform="translate(-479.152 -612.475)" fill="#fff"/>
      <g id="Group_1856" data-name="Group 1856" transform="translate(8.79 54.676)">
        <path id="Path_1455" data-name="Path 1455" d="M492.468,681.407c-.327,0-.746.639-1.178.639a2.588,2.588,0,0,1-.7-1.377c-.3-.964-.642-1.913-.949-2.88a11.658,11.658,0,0,0-.3-1.141c-.158-.365-.618-.679-.621-1.086,0-.068.41-.286.375-.357-.214-.419-.943-.518-1.221-.895-.3-.411.277-1.2-.063-1.578-.359-1.464-1.224-2.761-1.646-4.2-.307-1.049-.656-2.086-.962-3.135-.2-.674-.363-1.362-.58-2.031-.153-.471-.475-.852-.675-1.323a14.529,14.529,0,0,1-.265-1.495c-.235-.8-.545-1.571-.83-2.352-.206-.568-.408-1.141-.564-1.715-.247-.906-.258-1.881-.588-2.763a8.8,8.8,0,0,0-.439-1.347,6.547,6.547,0,0,1-.711-1.238,9.167,9.167,0,0,0-.364-.994c-.258-.608.145-1.434-.034-2.06-.036-.123-.528-.117-.564-.24-.029-.1-.148-.193-.168-.412-.04-.027.261-.332.151-.425a.76.76,0,0,1-.321-.823c.042-.465-.471-.861-.729-1.3.057-.065.512-.091.543-.182.129-.369.1-.608.559-.629a1.456,1.456,0,0,0,.5-.154c1.008-.557,2.137-.838,3.194-1.3.427-.187.712-.64,1.239-.616,1.241-.588,2.48-1.232,3.763-1.726a8.061,8.061,0,0,1,1.82-.529c.549-.069,1.2.314,1.737.167.453-.124.809-.6,1.263-.72.429-.114.918.063,1.307-.178,1.077.053,2.035-.464,3.117-.393.3-.218.9-.088,1.117-.247.353-.257.722-.053,1.04-.311.264-.213.642.153.9-.18.845.046,1.583-.486,2.4-.617.946-.151,1.949-.04,2.891-.259.7-.162,1.429-.176,2.145-.288,2.072-.324,4.151.071,6.228.03s4.14-.337,6.211-.316c.636.006,1.266.263,1.9.291a11.715,11.715,0,0,1,1.887-.025,13.853,13.853,0,0,0,2.108-.066c.338.023.687,0,1.025.033s.6.423.943.577c.295.133.777-.307,1.136-.183s.744.66,1.164.683a16.034,16.034,0,0,1,2.686.2c.647.147,1.242.56,1.895.7a37.88,37.88,0,0,1,4.383.76c.392.135.766.347,1.148.5.918.366,1.886.612,2.792,1,.352.152.695.309,1.053.447.532.2.761.886,1.208,1.219.641.477,1.573.558,2.25.993.279.178.478.483.764.651a1.741,1.741,0,0,0,.62.114,8.808,8.808,0,0,1,2.085.7c1.177.541,2.278,1.354,3.624,1.31.4-.013.73-.157,1.161-.2a2.233,2.233,0,0,1,1.356.162.614.614,0,0,0,.393.094c1.381,0,2.76.219,4.141.24s2.637-.673,3.952-1.055c.385-.112.965.628,1.3.3.829.084,1.464-.655,2.216-.849.585-.151,1.264-.021,1.841-.227a45.958,45.958,0,0,0,4.45-1.806,20.5,20.5,0,0,0,3.725-1.111c1.512-.522,3.2-.51,4.661-1.15,1.491-.151,2.712-1.289,4.2-1.452.973-.515,2.261.122,3.262-.306.538.123.96-.808,1.487-.809.336,0,.654.042.992.013a2.787,2.787,0,0,0,1-.257c.294-.131.8.345,1.09.057.014-.014.1.213.129.211.816-.055,1.614-.382,2.432-.423,1.355-.069,2.718-.467,4.082-.424,1.349.042,2.687.153,4.038.121.393-.01.7.555,1.06.617.336.057.754-.361,1.04-.047a10.052,10.052,0,0,1,2.328.354c.115.022.089.431.272.431.128.127.582-.112.723.028,0,.131-.216.243-.216.38-.551.178-1.136.214-1.68.407a4.861,4.861,0,0,0-.673.39,22.478,22.478,0,0,0-3.8,2.375c-1.7.834-2.749,2.387-4.008,3.667a26.921,26.921,0,0,0-2.639,3.1c-.725,1-1.308,2.1-2.044,3.1-.551.744-1.438,1.24-2.042,1.948-.455.534-.689,1.193-1.208,1.76a1,1,0,0,0,.438-.074,9.3,9.3,0,0,1,1.525-.578c.308-.044.59-.209.9-.26s.5.258.762-.036c.025-.028.327.252.388.251a4.89,4.89,0,0,0,1.224-.416c.371-.107.927.351,1.308.142.112-.061.23-.3.38-.3,1.591,0,3.179.349,4.769.379a16.962,16.962,0,0,1,1.834.2c.653.083,1.35-.147,1.983-.012a11.819,11.819,0,0,1,2.09.491c.125.053.178.4.325.409a7.668,7.668,0,0,1,2.447.7c.461.177,1.062-.1,1.547-.055a27.681,27.681,0,0,1,2.684.711,8.152,8.152,0,0,1,1.2.446c.392.147.8.266,1.175.4.725.26,1.4.644,2.115.932,1.129.456,2.5.271,3.618.754a8.039,8.039,0,0,1,.927.347,2.529,2.529,0,0,0,.907.359c.344.028.625-.248,1-.286.264-.027.61.352.834.445a2.723,2.723,0,0,0,1.026.064,4.883,4.883,0,0,1,1.782.471c-.224.488-.816.386-1.193.485a3.742,3.742,0,0,0-.924.211,4.838,4.838,0,0,0-.732.318c-.234.159-.961-.418-1.212-.114-.011.014.174.119.144.121-.756.056-1.492.412-2.248.458-1.025.063-2.112-.4-3.121-.245-1.037.157-2.01.689-3.023.93-.706.168-1.491-.005-2.2.2-.687.2-1.458.077-2.167.212-1.245.236-2.232,1.31-3.412,1.7-.891.292-1.849.342-2.757.592-.263.073-.4.463-.65.58-1.634.771-3.491,1.087-5.1,1.9a49.033,49.033,0,0,0-4.61,2.262c-.74.479-1.562.827-2.3,1.3s-1.434,1.008-2.207,1.438-1.656.636-2.423,1.054c-.8.435-1.4,1.247-2.247,1.589a41.885,41.885,0,0,1-5.523,1.927c-.783.468-1.648.73-2.472,1.123a8.647,8.647,0,0,1-1.695.232c-.736.169-1.513.271-2.249.439-.28.373-.82-.053-1.1.314-.505-.1-.919.5-1.407.526-.345.017-.822-.546-1.16-.391-.266.122-.586-.11-.844.179-.564-.1-1.012.474-1.568.469-1.532-.013-3.1.435-4.621.3-1.691-.155-3.341-.491-5.022-.608-.982-.068-2.04,0-3.023-.138-.386-.378-1,.127-1.385-.241-.736.058-1.351-.669-2.1-.6a7.281,7.281,0,0,1-1.183.051,2.241,2.241,0,0,1-1-.373c-.38-.232-.743-.034-1.106-.3-.236-.173-.849.177-1.14-.081a20,20,0,0,1-2.619-.3,19.47,19.47,0,0,1-2.347-.648,14.233,14.233,0,0,0-1.861-.455,10.675,10.675,0,0,1-1.835-.764c-.231-.089-.689.392-.918.3-.859-.343-1.8-.345-2.675-.632-.787-.258-1.467-.881-2.267-1.106-.587-.166-1.221-.174-1.81-.334a6.466,6.466,0,0,1-.778-.251,6.975,6.975,0,0,0-2.183-.393,16.958,16.958,0,0,1-2.734-.3c-.539-.125-1.149-.189-1.712-.268a59.4,59.4,0,0,0-5.969-.248,21.523,21.523,0,0,0-2.544.368c-1.1.089-2.2.348-3.31.413-.305.271-.787.051-1.091.249-.332.216-.657.089-1.013.332-.266.182-.807-.037-1.116.117a3.083,3.083,0,0,0-.918.659,13.808,13.808,0,0,0-1.823.04,13.416,13.416,0,0,0-2.927.732c-1.054.323-2.18.453-3.214.849-1.1.422-2.3.561-3.434.919-1.321.417-2.51,1.325-3.885,1.587a7.25,7.25,0,0,0-1.5.549c-.834.356-1.707.66-2.569.949C493.1,681.7,492.744,681.28,492.468,681.407Zm-7.123-18.028c-.04.863.982,1.544,1.251,2.326.532,1.543.834,3.162,1.453,4.68a14.827,14.827,0,0,1,.465,1.571,11.838,11.838,0,0,0,.976,2.647c.114.2.44.329.514.55.3.912.1,2,.4,2.908.239.713,1.321,1.195,1.46,1.941.051.28-.292.769-.217,1.165.272-.237.573-.54.729-.676,0-.139.066-.267.042-.311-.508-.947-.7-2.014-1.226-2.958a4.994,4.994,0,0,1-.649-1.175,7.06,7.06,0,0,1-.182-1.407c-.016-.43-.352-.824-.465-1.252a16.862,16.862,0,0,0-.491-1.721,24.647,24.647,0,0,1-.425-2.58c-.184-.691-.162-1.425-.354-2.118-.09-.323-.612-.546-.684-.871-.219-.988-.469-2.016-.693-3.021.174.19.485.293.554.6.06.266.69.358.827.612a14.658,14.658,0,0,1,1.848,4.357c.119.449-.2,1.05-.022,1.482a7.812,7.812,0,0,1,.24.8c.135.446.558.8.758,1.217.438.92.336,2.088.834,2.984.069.123.108.291.549.317-.051,0-.184-.084-.235-.081.023.108-.093.372-.07.48.038,0,.453-.1.492-.108-.01-.106-.369-.229-.519-.331a2.4,2.4,0,0,0-.3-1.257c-.025-.073.46-.23.458-.3-.016-.986-.962-1.867-.87-2.87-.349-.439-.112-1.058-.3-1.548a7.881,7.881,0,0,1-.139-1.555,5.267,5.267,0,0,1-.164-.647,5.711,5.711,0,0,0-.385-1.266c-.32-1.121-.92-2.147-1.219-3.281-.064-.245-.238-.46-.294-.692.454.349.358.99.546,1.446.454,1.1.975,2.18,1.445,3.28.185.432.286.9.446,1.324.291.773.978,1.362,1.343,2.115a.516.516,0,0,0,.042-.367c-.155-.551-.392-1.079-.548-1.629-.256-.9-.767-1.741-.99-2.654a8.609,8.609,0,0,0-.446-1.368c-.258-.608.025-1.4-.14-2.032s-.681-1.154-.879-1.774c-.086-.269.21-.645.149-.915a17.861,17.861,0,0,0-1.2-2.58c-.328-.819-.417-1.74-.8-2.543-.258-.543-.9-.927-1.119-1.471-.3-.759-.5-1.554-.864-2.3a.554.554,0,0,0,.116.471,11.762,11.762,0,0,1,.515,1.667c.232.551-.031,1.275.14,1.848.21.7.76,1.3.956,2.007a9.233,9.233,0,0,1,.36,2.836c-.115-.079-.473-.1-.5-.194-.164-.712-.61-1.311-.838-2-.332-1-.268-2.19-.87-3.1-.086-.13-.453-.108-.519-.25-.265-.566-.407-1.151-.723-1.7-.34-.59-.3-1.366-.8-1.889a35.25,35.25,0,0,0-1.36-3.6c-.03.273.129.312.165.4.338.791.053,1.825.372,2.623a19.609,19.609,0,0,1,1.051,2.108c.2.756.286,1.532.444,2.3.107.523.728.923.888,1.439.216.7.282,1.449.46,2.158.068.269.128.375.193.645-.317-.4-.936-.57-1.041-1.021s.142-.92.136-1.415c0-.294-.725-.433-.891-.693a11.033,11.033,0,0,1-.6-1.921,35.618,35.618,0,0,0-1.713-3.476c-.1-.183.076-.512,0-.7-.321-.793-.483-1.738-.81-2.54-.267.264.018.6,0,.8-.033.529.536.9.614,1.393a7.737,7.737,0,0,0,.38,1.456c.323.906.218,1.952.488,2.868.212.724.608,1.4.775,2.141.04.175.318.336.318.508a9.637,9.637,0,0,0,.2,2.772c.291.961,1.208,1.814,1.143,2.842-.015.238-.225.478-.128.714.158.387,0,.837.077,1.257C485.29,663.329,485.285,663.334,485.345,663.379Zm1.128-13.308c-.02,0-.046.224-.066.224,0,.055-.212-.034-.212.022.021,0-.023.046,0,.046C486.191,650.306,486.473,650.126,486.473,650.07Z" transform="translate(-478.522 -636.421)" fill="#f5b700"/>
      </g>
      <g id="Group_1862" data-name="Group 1862" transform="translate(16.751 101.108)">
        <g id="Group_1857" data-name="Group 1857" transform="translate(0 0)">
          <path id="Path_1456" data-name="Path 1456" d="M518.69,704.208l-.253.039Z" transform="translate(-499.057 -704.208)" fill="#f5b700"/>
          <path id="Path_1457" data-name="Path 1457" d="M493.928,725.156c-.134-.2-.33-.508-.532-.86l-.6-1.052c-.134-.245-.461-.633-.894-1.22a6.445,6.445,0,0,1-.663-1.11,4.039,4.039,0,0,1-.379-1.539.134.134,0,0,1,0-.036v-.021l0-.041,0-.082.008-.169c.006-.116.013-.232.019-.347.014-.232.033-.473.06-.7a5.7,5.7,0,0,1,.29-1.31,2.276,2.276,0,0,1,.558-.9.754.754,0,0,1,.7-.245.256.256,0,0,1,.068.012,1.745,1.745,0,0,0,.958-.047,2.779,2.779,0,0,1,.508-.027,1.01,1.01,0,0,0,.283-.03c.115-.024.227-.051.36-.09a4.777,4.777,0,0,0,.936-.391,3.3,3.3,0,0,0,.292-.175l.154-.1.165-.129a3.966,3.966,0,0,0,.7-.723,7.257,7.257,0,0,0,.855-1.573c.186-.455.325-.816.417-1l.04-.075c.011-.011.02-.034.026-.039s.009-.019.01-.012-.031-.027-.053-.05l-.01-.01,0,0c-.016-.015.124.121.066.063l0,0,.016-.015.031-.031a7.535,7.535,0,0,1,.566-.5c.425-.342.937-.7,1.5-1.1l.427-.313c.111-.082.224-.164.342-.245.234-.163.483-.326.743-.49l1.686-1.045.151-.1.165-.113c.106-.075.2-.151.3-.227.186-.151.355-.3.509-.445.305-.288.555-.554.777-.783a4.561,4.561,0,0,1,.924-.822l.026-.015.057-.025a1.167,1.167,0,0,1,.121-.049,1.43,1.43,0,0,1,.136-.049c.045-.016.1-.031.149-.047a7.009,7.009,0,0,1,.723-.161c.542-.1,1.176-.162,1.908-.271-.4.065-1.211.139-1.982.224a9.929,9.929,0,0,0-1.051.174c-.171.048-.205.039-.338.088a2.711,2.711,0,0,0-.457.248c-.175.111-.373.253-.584.4s-.436.311-.678.466a6.659,6.659,0,0,1-.762.431c-.137.063-.266.12-.408.17-.067.023-.141.051-.2.064l-.16.031c-.835.143-1.462.033-1.751-.43a.979.979,0,0,0-.878-.487,3.361,3.361,0,0,0-1.174.068,5.555,5.555,0,0,0-.727.216c-.219.068-.45.149-.7.247a9.193,9.193,0,0,0-1.662.862,7.821,7.821,0,0,0-.937.723l-.122.113-.171.179a4.083,4.083,0,0,0-.309.375c-.1.13-.171.251-.254.382s-.14.25-.2.373l-.021.047a12.2,12.2,0,0,0-.575,1.521c-.064.192-.121.35-.172.481-.025.054-.049.119-.071.156s-.046.083-.048.093,0,0,0,0-.006.007-.023.025-.036.038-.067.068l-.1.093c-.16.14-.4.323-.683.552l-.225.185-.244.213-.262.249c-.108.11-.22.234-.324.354s-.2.253-.291.385-.175.271-.248.413a4.94,4.94,0,0,0-.343.9,6.865,6.865,0,0,0-.175,1.47,10.435,10.435,0,0,0,.048,1.155c.033.358.077.693.121,1l.124.882a4.656,4.656,0,0,0,.406,1.362,5.643,5.643,0,0,0,.633,1.019c.424.548.787.9,1.032,1.189.12.139.212.256.271.342.105.158.214.326.332.517C493.346,724.238,493.6,724.673,493.928,725.156Z" transform="translate(-490.144 -704.226)" fill="#f5b700"/>
          <path id="Path_1458" data-name="Path 1458" d="M495.827,734.991c-.057-.078-.105-.151-.159-.227l.115.167Z" transform="translate(-491.884 -713.834)" fill="#f5b700"/>
        </g>
        <g id="Group_1858" data-name="Group 1858" transform="translate(3.609 10.629)">
          <path id="Path_1459" data-name="Path 1459" d="M499.082,719.726c-.086.089-.16.151-.241.228l.176-.162Z" transform="translate(-496.493 -719.726)" fill="#f5b700"/>
          <path id="Path_1460" data-name="Path 1460" d="M514.228,736.7a7.981,7.981,0,0,0-1.369-.69l-.669-.286-.364-.162c-.091-.043-.182-.088-.279-.129-.382-.173-.813-.335-1.271-.5s-.942-.325-1.4-.5c-.232-.09-.457-.183-.672-.282l-.351-.163a2.544,2.544,0,0,1-.363-.2,2.143,2.143,0,0,1-.831-.875.927.927,0,0,1-.027-.808,1.031,1.031,0,0,0-.051-1,3.164,3.164,0,0,0-.649-.965,4.231,4.231,0,0,0-1.515-1.02,7.991,7.991,0,0,0-2.127-.475c-.657-.066-1.23-.1-1.613-.158a1.394,1.394,0,0,1-.42-.117,1.3,1.3,0,0,1-.338-.251,7.715,7.715,0,0,1-1-1.421l-.322-.521-.179-.278c-.064-.1-.117-.181-.211-.31a11.566,11.566,0,0,0-.921-1.1,5.972,5.972,0,0,1-.523-.622c-.027-.035-.029-.051-.047-.073s-.007-.01,0-.012h0l-.127-.9c-.04-.282-.074-.544-.1-.784a6.022,6.022,0,0,1-.029-.644c0-.174.034-.39.021-.317h0s-.008,0,0-.007l.034-.032c.025-.023.04-.041.076-.071.236-.216.647-.5,1.168-.965-.241.221-.666.544-1,.793l-.229.177-.088.071s0,0-.012,0a.114.114,0,0,0-.069,0c-.012.017-.018-.034-.044.077a2.7,2.7,0,0,0-.057.266,6.561,6.561,0,0,0-.071.691c-.032.51-.029,1.128-.079,1.725a.869.869,0,0,0-.09.188.468.468,0,0,0-.032.115,1.227,1.227,0,0,0-.005.153,6.939,6.939,0,0,0,.11.753,2.276,2.276,0,0,1,.023.732.906.906,0,0,1-.289.544,1.116,1.116,0,0,0-.374.915c-.008.072-.016.147-.025.225a1.859,1.859,0,0,0-.018.235,4.784,4.784,0,0,0,.037.571,5.987,5.987,0,0,0,.379,1.472,5.78,5.78,0,0,0,.472.934,5.439,5.439,0,0,0,.83,1.025,5.079,5.079,0,0,0,1.306.9,5.492,5.492,0,0,0,1.541.464l.047.006a16.145,16.145,0,0,0,2.306.1c.3,0,.574.007.8.025l.158.016.136.02a2.233,2.233,0,0,1,.221.054,4.692,4.692,0,0,1,.612.237c.242.111.516.249.822.4a10.346,10.346,0,0,0,2.374.914l.392.073.268.039.5.068.947.133a14.086,14.086,0,0,1,1.658.336c.125.036.247.073.366.112l.4.144.924.333A6.591,6.591,0,0,1,514.228,736.7Z" transform="translate(-495.413 -719.831)" fill="#f5b700"/>
          <path id="Path_1461" data-name="Path 1461" d="M522.986,744.43c-.035-.023-.066-.048-.1-.071Z" transform="translate(-504.067 -727.486)" fill="#f5b700"/>
        </g>
        <g id="Group_1859" data-name="Group 1859" transform="translate(12.164 19.429)">
          <path id="Path_1462" data-name="Path 1462" d="M507.9,732.573c.108.016.21.029.323.051-.109-.021-.184-.03-.24-.038Z" transform="translate(-507.902 -732.573)" fill="#f5b700"/>
          <path id="Path_1463" data-name="Path 1463" d="M522.281,754c.063-.055.131-.127.179-.178a.518.518,0,0,0,.1-.142,2.037,2.037,0,0,0,.134-.6c.036-.313.049-.739.078-1.239.016-.255.035-.523.073-.817a6.9,6.9,0,0,1,.18-.942,5.754,5.754,0,0,1,.627-1.414,6.252,6.252,0,0,1,.544-.766c.157-.188.3-.33.447-.5a1.175,1.175,0,0,1,.722-.639.934.934,0,0,0,.717-.723,4.817,4.817,0,0,0,.027-2.781,3.146,3.146,0,0,0-.2-.566,5.252,5.252,0,0,0-.3-.587,7.437,7.437,0,0,0-.708-.976c-.238-.282-.467-.525-.661-.736l-.139-.152-.123-.137c-.034-.042-.077-.086-.105-.123l-.11-.133c-.338-.408-.721-.971-1.262-1.6a8.22,8.22,0,0,0-.97-.967,7.415,7.415,0,0,0-1.183-.806,14.274,14.274,0,0,0-2.169-.929l-.966-.347c-.389-.132-.777-.242-1.158-.334-.762-.185-1.493-.3-2.172-.394l-.987-.136-.236-.034c-.049-.006-.051-.01-.07-.012l-.047-.009a1.031,1.031,0,0,1-.108-.025.982.982,0,0,1-.123-.036,11.67,11.67,0,0,1-1.486-.674,9.48,9.48,0,0,0-2.458-.9,6.747,6.747,0,0,1,1.158.336,10.981,10.981,0,0,1,1.346.649c.426.238.829.482,1.156.657.166.093.3.158.433.223.029.012.058.025.086.038a.224.224,0,0,0,.054.023l.1.026.384.108a9.918,9.918,0,0,1,2.871,1.2,2.565,2.565,0,0,1,.8.82.94.94,0,0,1,.083.8.986.986,0,0,0,.16.99,16.2,16.2,0,0,0,1.455,1.756c.058.073.111.146.163.218l.131.208.322.516a15.6,15.6,0,0,0,1.1,1.575l.025.031c.05.062.123.147.19.224s.134.149.2.221c.133.141.261.269.383.387l.647.612a3.013,3.013,0,0,1,.614.711,11.466,11.466,0,0,1,.964,2.7c-.007.005,0-.012,0,.028a1.115,1.115,0,0,1-.024.187c-.036.19-.118.471-.23.844a9.624,9.624,0,0,0-.331,1.41c-.019.149-.038.3-.044.426s-.018.261-.019.379-.006.243,0,.353,0,.227.005.33l.042,1.1a4.791,4.791,0,0,1-.023.73.9.9,0,0,1-.071.282A1.029,1.029,0,0,1,522.281,754Z" transform="translate(-508.05 -732.596)" fill="#f5b700"/>
          <path id="Path_1464" data-name="Path 1464" d="M528.538,763.9c.034-.029.072-.06.1-.086C528.582,763.869,528.535,763.906,528.538,763.9Z" transform="translate(-514.403 -742.416)" fill="#f5b700"/>
        </g>
        <g id="Group_1860" data-name="Group 1860" transform="translate(14.447 29.432)">
          <path id="Path_1465" data-name="Path 1465" d="M534.435,747.176c.064.111.125.229.184.345l-.135-.258C534.453,747.2,534.435,747.176,534.435,747.176Z" transform="translate(-518.544 -747.176)" fill="#f5b700"/>
          <path id="Path_1466" data-name="Path 1466" d="M511.477,774.205c.124-.182.314-.433.5-.675s.371-.483.462-.619c.014-.018.016-.027.027-.04l.015-.019.027-.058.119-.255.264-.618a13.952,13.952,0,0,1,.76-1.6,6.062,6.062,0,0,1,1.28-1.575,5.612,5.612,0,0,1,1.306-.838,3.913,3.913,0,0,1,1.032-.322,1.5,1.5,0,0,1,.8.067.74.74,0,0,1,.269.143.8.8,0,0,0,.5.2.947.947,0,0,0,.55-.2,4.253,4.253,0,0,0,1.221-1.182,5.659,5.659,0,0,1,.508-.6c.077-.079.146-.116.184-.106a.564.564,0,0,1,.061,0l.054.012c.01,0,.006.006.025-.005l.053-.031.11-.065.232-.138c.162-.1.332-.2.516-.319a12.657,12.657,0,0,0,1.231-.884c.234-.193.476-.406.718-.639l.135-.13c.026-.023.043-.044.076-.07l.089-.077.105-.086c.3-.24.73-.526,1.248-.94a6.094,6.094,0,0,0,1.616-1.869,5.421,5.421,0,0,0,.478-1.3,7.253,7.253,0,0,0,.153-1.165c.029-.7-.014-1.281-.032-1.751-.009-.234-.014-.446-.008-.616,0-.093.009-.16.012-.237,0-.023.007-.046.009-.07l.016-.09c.049-.273.2-.709.368-1.332a7.291,7.291,0,0,0,.215-1.11,5.146,5.146,0,0,0,.029-.7,5.025,5.025,0,0,0-.082-.764,15.935,15.935,0,0,0-1.349-3.857,14.612,14.612,0,0,1,.6,1.423,11.809,11.809,0,0,1,.6,2.463,4.46,4.46,0,0,1,.033.956l-.021.225-.033.208c-.021.143-.053.264-.083.392a6.475,6.475,0,0,1-.44,1.187c-.149.312-.284.558-.393.752l-.079.135-.071.118c-.044.1-.093.2-.137.317a7.46,7.46,0,0,1-.59,1.31,1.059,1.059,0,0,1-.878.568,1.153,1.153,0,0,0-.893.421,5.19,5.19,0,0,1-.688.55,5.475,5.475,0,0,1-.715.268,9.448,9.448,0,0,0-1.32.653,6.652,6.652,0,0,0-1,.721l-.136.122-.066.056-.137.117-.3.254-.021.017c-.29.238-.63.491-1,.776-.189.144-.385.295-.588.459-.1.084-.2.166-.309.257l-.156.136-.189.17c-.112.116-.226.23-.334.35s-.2.254-.293.385-.173.275-.251.412-.129.252-.184.371a10.089,10.089,0,0,0-.429,1.183c-.1.321-.179.58-.246.745l-.044.1c-.013.027-.023.04-.031.062s-.009.008,0,.009h0l-.059.065c-.022.025-.047.051-.073.079-.049.052-.1.106-.158.162-.11.111-.233.23-.365.356-.266.253-.571.534-.9.876a8.655,8.655,0,0,0-1,1.216,8.105,8.105,0,0,0-.751,1.428c-.371.919-.562,1.675-.783,2.222l-.038.1a.3.3,0,0,0-.016.032c0,.019-.034.061-.046.092-.05.082-.106.175-.195.3C512,773.494,511.759,773.8,511.477,774.205Z" transform="translate(-511.311 -747.335)" fill="#f5b700"/>
          <path id="Path_1467" data-name="Path 1467" d="M511.235,786.654c.058-.092.111-.169.166-.249C511.3,786.552,511.235,786.654,511.235,786.654Z" transform="translate(-511.235 -759.534)" fill="#f5b700"/>
        </g>
        <g id="Group_1861" data-name="Group 1861" transform="translate(13.566 48.177)">
          <path id="Path_1468" data-name="Path 1468" d="M526.211,774.544h0s-.005.014-.009.021l.009-.021Z" transform="translate(-515.069 -774.543)" fill="#f5b700"/>
          <path id="Path_1469" data-name="Path 1469" d="M521.589,799.956a7.186,7.186,0,0,1-1.559-.185,9.23,9.23,0,0,1-2.039-.757l-.237-.121-.058-.03-.021-.012-.042-.027c-.029-.02-.077-.04-.114-.062l-.152-.068c-.228-.095-.54-.2-.9-.326a7.989,7.989,0,0,1-1.238-.54,4.915,4.915,0,0,1-.676-.458c-.108-.093-.21-.188-.307-.284s-.18-.205-.263-.308a5.253,5.253,0,0,1-.806-1.863,1.137,1.137,0,0,1,.353-1.2,1.124,1.124,0,0,0,.482-.871c.034-.147.059-.3.086-.464a1.553,1.553,0,0,1,.1-.44,7.281,7.281,0,0,0,.318-.94,8.063,8.063,0,0,0,.284-1.763c0-.1.008-.2,0-.313s-.007-.208-.01-.314c-.008-.186-.021-.367-.036-.541-.031-.349-.073-.675-.111-.975a5.229,5.229,0,0,1-.047-1.384s0,.01.018-.043a2.479,2.479,0,0,1,.153-.263c.161-.247.427-.579.751-1.04a7.542,7.542,0,0,0,.5-.819c.083-.149.169-.35.24-.514.051-.129.1-.259.147-.382.184-.5.32-.951.449-1.328a6.57,6.57,0,0,1,.37-.917,2.728,2.728,0,0,1,.189-.315,3.761,3.761,0,0,1,.254-.319c.2-.229.477-.493.8-.8s.7-.659,1.106-1.121a4.963,4.963,0,0,0,.45-.619c.031-.052.066-.107.094-.157l.077-.147c.05-.1.1-.2.14-.288a8.5,8.5,0,0,0,.363-.969l.222-.7c.032-.1.06-.171.088-.247.025-.056.049-.12.065-.144a5.31,5.31,0,0,0-.288.741c-.086.244-.191.566-.369.978a6.225,6.225,0,0,1-.349.688c-.07.123-.169.264-.263.4s-.212.26-.322.387a12.91,12.91,0,0,1-1.784,1.459c-.251.178-.465.331-.655.471a5.684,5.684,0,0,0-.536.442,13.944,13.944,0,0,1-1.069,1,1.153,1.153,0,0,1-1.068.269,1.056,1.056,0,0,0-.984.153c-.1.053-.207.11-.312.176s-.189.077-.3.127a4.643,4.643,0,0,0-.7.388,5,5,0,0,0-.964.83,4.616,4.616,0,0,0-.557.766,4.346,4.346,0,0,0-.446,1.162,7.537,7.537,0,0,0-.086,2.684l.005.036.16,1.123.031.243.014.116.007.082c.01.109.014.249.017.4l0,1.117a8.732,8.732,0,0,0,.129,1.521,5.7,5.7,0,0,0,.247.918l.1.241.049.116.043.092c.058.123.117.242.179.356a9.565,9.565,0,0,0,.792,1.238c.277.373.562.715.85,1.035.144.16.288.316.432.467l.216.223.227.229c.1.1.21.193.318.286s.227.172.343.254.247.153.362.221.229.116.345.173a7.093,7.093,0,0,0,1.2.41c.349.088.647.149.9.206a4.931,4.931,0,0,1,.564.151c.037.01.05.021.077.029l.018.006.051.021.106.046.443.185c.305.123.635.245.992.355A8.048,8.048,0,0,0,521.589,799.956Z" transform="translate(-509.949 -774.553)" fill="#f5b700"/>
          <path id="Path_1470" data-name="Path 1470" d="M527.257,811.623l-.314,0Z" transform="translate(-515.303 -786.224)" fill="#f5b700"/>
        </g>
      </g>
      <path id="Path_1471" data-name="Path 1471" d="M516.794,748.053a12.173,12.173,0,0,1-.316-1.283l-.4-1.272c-.21-.7-.375-1.394-.56-2.1-.177-.677-.412-1.35-.586-2.03-.092-.35-.047-.773-.166-1.071-.309-.79-.451-1.589-.69-2.389a11.445,11.445,0,0,1-.275-1.341c-.088-.49-.148-1.012-.21-1.516a3.611,3.611,0,0,1-.581-1.121,8.036,8.036,0,0,0-.363-1.522c-.069-.219-.075-.478-.14-.685-.177-.558-.253-1.109-.475-1.655a3.572,3.572,0,0,1-.234-.846,7.824,7.824,0,0,0-.294-1.571c-.266-.8-.529-1.589-.795-2.386-.133-.4-.3-.788-.453-1.18-.286-.747-.735-1.441-1.04-2.184l-.013,0c.158.412.258.843.414,1.255a8.453,8.453,0,0,1,.49,1.032c.1.464.1.921.218,1.377.123.473.236.96.367,1.425.19.673.437,1.331.576,2.012a19.323,19.323,0,0,1,.483,2.071c.02.222-.015.44.023.667.081.482.243.947.348,1.419.111.5.229,1.009.333,1.517a5.209,5.209,0,0,0,.48,1.537,7.026,7.026,0,0,0,.412,2.053c.373,1.106.791,2.2,1.106,3.309.345,1.212.746,2.4,1.136,3.6.181.553.355,1.095.517,1.659s.41,1.138.616,1.687A.787.787,0,0,0,516.794,748.053Z" transform="translate(-479.397 -608.675)" fill="#fff"/>
      <g id="Group_1863" data-name="Group 1863" transform="translate(43.176 153.871)">
        <path id="Path_1472" data-name="Path 1472" d="M531.884,793.86c-.108-.469-.208-.956-.326-1.412-.11-.421-.2-.842-.345-1.244-.271-.739-.429-1.486-.742-2.219a8.478,8.478,0,0,1-.164-1.005c-.17-.636-.387-1.267-.545-1.9-.16-.661-.3-1.318-.469-1.976-.107-.4-.227-.8-.33-1.2a11.708,11.708,0,0,0-.229-1.215.717.717,0,0,1,.107-.444c.168.521.373,1.073.5,1.6s.268,1.043.421,1.563c.34,1.121.679,2.24,1.02,3.364a31.582,31.582,0,0,0,1.138,3.041,6.825,6.825,0,0,1,.517,1.881,4.928,4.928,0,0,1,.6,1.375c.152.458.323.912.489,1.364.158.424.371.831.511,1.267.066.2.058.414.1.618a18.734,18.734,0,0,0,.724,1.857c.213.616.531,1.194.765,1.81a9.091,9.091,0,0,1,.378,1.331,5.064,5.064,0,0,1,.008,1.279c-.015.316.141.682.108,1.021a3.782,3.782,0,0,1-.344,1.121,2.9,2.9,0,0,1-.249.5c-.13-.051.044-.147.079-.2a2.253,2.253,0,0,0,.323-1.163,7.852,7.852,0,0,0-.089-1.214,7.975,7.975,0,0,0-.239-1.073,12.207,12.207,0,0,0-.828-2.11,7.665,7.665,0,0,1-.458-1.419,3.011,3.011,0,0,0-.329-.751c-.286-.472-.426-.975-.67-1.466-.09-.183-.127-.425-.221-.618a6.53,6.53,0,0,1-.532-1.372C532.48,794.477,532.1,794.162,531.884,793.86Z" transform="translate(-528.722 -781.237)" fill="#fff"/>
      </g>
      <g id="Group_1864" data-name="Group 1864" transform="translate(21.117 104.668)">
        <path id="Path_1473" data-name="Path 1473" d="M498.039,710.879c.144-.069.3-.123.421-.184a1.241,1.241,0,0,0,.327-.176c.152-.149.371-.207.492-.385.046-.067.234,0,.318-.044.162-.077.294-.192.461-.258s.359-.118.522-.2c.1-.047.188-.109.289-.154s.268.008.342-.072c.022-.024.142.064.224.127a1.416,1.416,0,0,1-.342.249,2.125,2.125,0,0,0-.375.19c-.257.157-.5.336-.76.49a2.169,2.169,0,0,0-.576.593.551.551,0,0,1-.462.229c.018.178-.084.246-.177.327a1.509,1.509,0,0,0-.229.263c-.065.088-.07.2-.145.288-.036.04-.134.051-.184.088-.158.118-.115.323-.208.472s-.092.332-.179.488a1.074,1.074,0,0,1-.25.281c-.092.079-.277.066-.388.085-.082.012-.048.175-.12.217a.5.5,0,0,1-.249.022h-.116l-.061.22-.008.026a1.071,1.071,0,0,1-.018.156c-.138-.005-.031-.046-.023-.063a.316.316,0,0,0,.03-.121l.011-.173.179-.062a.285.285,0,0,0,.145-.154.939.939,0,0,1,.1-.185c.047-.055.071-.13.116-.191a1.1,1.1,0,0,0,.181-.459.643.643,0,0,1,.243-.3.227.227,0,0,0,.054-.211c-.029-.166.074-.286.1-.449.011-.062.093-.1.108-.165a.52.52,0,0,1,.231-.362C498.166,711.261,498.043,711.022,498.039,710.879Z" transform="translate(-496.518 -709.405)" fill="#fff"/>
      </g>
      <g id="Group_1865" data-name="Group 1865" transform="translate(22.39 118.977)">
        <path id="Path_1474" data-name="Path 1474" d="M499.953,732.137a1.58,1.58,0,0,0,.18.3.635.635,0,0,0,.214.208c.159.063.281.223.465.244.071.008.084.2.144.255a2.99,2.99,0,0,1,.353.288,1.157,1.157,0,0,1,.2.391.408.408,0,0,1,.029.188c-.006.03-.046.061-.083.077s-.07.019-.062.023-.006,0-.02,0h0l.008,0a.357.357,0,0,0-.209,0,.069.069,0,0,0,.042-.038.064.064,0,0,0,0-.06c-.037-.11-.245-.237-.447-.39a1.675,1.675,0,0,0-.673-.222.453.453,0,0,1-.351-.334c-.158.073-.256-.013-.349-.091s-.19-.145-.282-.221-.208-.1-.271-.208c-.031-.047-.006-.145-.016-.2-.031-.179-.206-.242-.252-.4s-.154-.264-.186-.416a.951.951,0,0,1,.007-.323c.016-.1.154-.213.211-.308.042-.071-.108-.14-.105-.216s.073-.177.09-.264c.008-.041-.008-.083.008-.127.138,0,.034.036.027.05-.092.185.127.367.156.529.012.076.052.145.061.218a.85.85,0,0,0,.153.386c.048.069.018.167,0,.287a.1.1,0,0,0,.1.107.24.24,0,0,1,.127.073.259.259,0,0,0,.112.085c.035.012.033.083.075.094a.292.292,0,0,1,.224.162C499.669,732.367,499.857,732.192,499.953,732.137Z" transform="translate(-498.377 -730.295)" fill="#fff"/>
      </g>
      <g id="Group_1866" data-name="Group 1866" transform="translate(41.488 125.814)">
        <path id="Path_1475" data-name="Path 1475" d="M529.516,743.034c.024.18.041.363.067.526a1.945,1.945,0,0,0,.079.436c.1.241.082.509.2.742.042.091-.09.249-.094.358a2.846,2.846,0,0,0,.01.316,1.846,1.846,0,0,1-.014.314c-.038.216-.1.424-.147.627a3.173,3.173,0,0,1-.073.369c-.031.122-.193.218-.189.339,0,.037-.146.061-.248.074a2.208,2.208,0,0,1,.062-.453,1.683,1.683,0,0,0,.1-.446,7.578,7.578,0,0,0,0-1.006,1.986,1.986,0,0,0-.322-.877.969.969,0,0,1-.1-.264.819.819,0,0,1,.013-.326c-.184-.065-.225-.207-.287-.342a2.325,2.325,0,0,0-.212-.373c-.073-.114-.2-.18-.261-.307-.032-.056-.01-.157-.031-.225-.062-.22-.3-.279-.421-.439a3.783,3.783,0,0,0-.486-.364,2.227,2.227,0,0,1-.289-.329c-.088-.112-.082-.311-.13-.444-.034-.1-.214-.077-.278-.159a1.369,1.369,0,0,1-.129-.336.784.784,0,0,1-.073-.145c.121-.064.051.023.054.042a.387.387,0,0,0,.219.273,2.237,2.237,0,0,1,.319.186c.083.069.184.118.269.192a3.716,3.716,0,0,0,.588.391.858.858,0,0,1,.3.4.348.348,0,0,0,.215.168c.192.06.271.23.425.335.055.042.066.138.124.183a.7.7,0,0,1,.292.393C529.091,742.992,529.368,742.977,529.516,743.034Z" transform="translate(-526.258 -740.277)" fill="#fff"/>
      </g>
      <g id="Group_1867" data-name="Group 1867" transform="translate(38.335 142.327)">
        <path id="Path_1476" data-name="Path 1476" d="M526.5,768.913c-.206.054-.421.106-.613.174a2.123,2.123,0,0,0-.506.216,4.6,4.6,0,0,0-.813.542c-.086.092-.312.059-.44.132-.242.145-.45.336-.684.5a5.081,5.081,0,0,0-.712.54c-.131.129-.245.274-.367.415s-.338.217-.412.4c-.021.053-.183.053-.3.056a2.765,2.765,0,0,1,.406-.684l.514-.556a7.616,7.616,0,0,1,1.193-1.045,13.5,13.5,0,0,0,1.1-.912,1.274,1.274,0,0,1,.79-.334.913.913,0,0,1,.493-.415c.185-.094.36-.2.536-.307a5.416,5.416,0,0,1,.474-.33,1.809,1.809,0,0,1,.29-.039c.284-.077.458-.334.7-.475a4.892,4.892,0,0,0,.625-.544c.148-.122.317-.231.476-.349s.381-.147.553-.269c.131-.094.106-.323.181-.455a3.006,3.006,0,0,0,.3-.5c.031-.09.031-.186.06-.286.138,0,.022.086.01.117a4.8,4.8,0,0,0-.164.618,1.786,1.786,0,0,1-.229.593,3.43,3.43,0,0,1-.323.442l-.723.758a1.411,1.411,0,0,1-.586.316.592.592,0,0,0-.273.229c-.141.207-.358.293-.527.46-.063.062-.179.076-.247.14a1.242,1.242,0,0,1-.527.345C526.589,768.45,526.572,768.752,526.5,768.913Z" transform="translate(-521.655 -764.385)" fill="#fff"/>
      </g>
      <g id="Group_1868" data-name="Group 1868" transform="translate(31.374 158.685)">
        <path id="Path_1477" data-name="Path 1477" d="M512.565,792.478a3.239,3.239,0,0,0-.183.481,1.315,1.315,0,0,0-.073.443,3.11,3.11,0,0,0,.061.8c.036.1-.107.257-.109.38,0,.236.054.466.055.7a7.41,7.41,0,0,0,.014.743c.016.149.052.294.069.443s-.08.325-.017.463c.019.04-.1.138-.184.2a2.547,2.547,0,0,1-.166-.576,5.44,5.44,0,0,0-.081-.584,11.221,11.221,0,0,1-.194-1.267,8.548,8.548,0,0,0-.238-1.167.915.915,0,0,1,.118-.727.643.643,0,0,1-.075-.549c.025-.178.049-.354.073-.531a2.211,2.211,0,0,1,.06-.5c.027-.076.126-.131.173-.2.147-.207.106-.471.22-.686s.138-.45.254-.658a2.216,2.216,0,0,1,.3-.4c.108-.119.312-.159.449-.247.1-.066.059-.257.134-.352a4.157,4.157,0,0,1,.334-.283,1.664,1.664,0,0,1,.136-.158c.112.081-.009.066-.03.08-.259.18-.27.553-.417.8-.068.112-.112.237-.18.345a2.568,2.568,0,0,0-.3.7,1.141,1.141,0,0,1-.284.412.327.327,0,0,0-.057.266c.039.193-.054.347-.04.533,0,.068-.061.139-.054.212a.865.865,0,0,1-.052.488C512.233,792.217,512.472,792.366,512.565,792.478Z" transform="translate(-511.493 -788.265)" fill="#fff"/>
      </g>
    </g>
    <text id="_3" data-name="3" transform="matrix(0.985, -0.174, 0.174, 0.985, 1098.8, 340.774)" fill="#fff" font-size="36" font-family="ProximaNova-Black, Proxima Nova" font-weight="800" letter-spacing="0.01em"><tspan x="-11" y="0">3</tspan></text>
  </g>
</svg>
