<svg xmlns="http://www.w3.org/2000/svg" width="254.131" height="14.168" viewBox="0 0 254.131 14.168">
  <g id="Group_2097" data-name="Group 2097" transform="translate(-863.487 -971.57)">
    <path id="Path_1578" data-name="Path 1578" d="M990.509,985.738h-7.377l-8.423-14.168h7.377Z" fill="#34b2e2" opacity="0.5"/>
    <g id="Group_2031" data-name="Group 2031" opacity="0.5">
      <path id="Path_1579" data-name="Path 1579" d="M1006.4,985.738h-7.377L990.6,971.57h7.377Z" fill="#34b2e2"/>
      <path id="Path_1580" data-name="Path 1580" d="M1022.286,985.738h-7.377l-8.424-14.168h7.377Z" fill="#34b2e2"/>
      <path id="Path_1581" data-name="Path 1581" d="M1038.175,985.738H1030.8l-8.423-14.168h7.377Z" fill="#34b2e2"/>
      <path id="Path_1582" data-name="Path 1582" d="M1054.063,985.738h-7.377l-8.423-14.168h7.377Z" fill="#34b2e2"/>
      <path id="Path_1583" data-name="Path 1583" d="M1069.952,985.738h-7.377l-8.423-14.168h7.377Z" fill="#34b2e2"/>
      <path id="Path_1584" data-name="Path 1584" d="M1085.841,985.738h-7.377l-8.423-14.168h7.377Z" fill="#34b2e2"/>
      <path id="Path_1585" data-name="Path 1585" d="M1101.729,985.738h-7.377l-8.423-14.168h7.377Z" fill="#34b2e2"/>
      <path id="Path_1586" data-name="Path 1586" d="M1117.618,985.738h-7.377l-8.423-14.168h7.377Z" fill="#34b2e2"/>
    </g>
    <path id="Path_1591" data-name="Path 1591" d="M879.288,985.738h-7.377l-8.424-14.168h7.377Z" fill="#34b2e2" opacity="0.5"/>
    <path id="Path_1592" data-name="Path 1592" d="M895.176,985.738H887.8l-8.423-14.168h7.377Z" fill="#34b2e2" opacity="0.5"/>
    <path id="Path_1593" data-name="Path 1593" d="M911.065,985.738h-7.377l-8.423-14.168h7.377Z" fill="#34b2e2" opacity="0.5"/>
    <path id="Path_1594" data-name="Path 1594" d="M926.954,985.738h-7.377l-8.423-14.168h7.377Z" fill="#34b2e2" opacity="0.5"/>
    <path id="Path_1595" data-name="Path 1595" d="M942.842,985.738h-7.377l-8.423-14.168h7.377Z" fill="#34b2e2" opacity="0.5"/>
    <path id="Path_1596" data-name="Path 1596" d="M958.731,985.738h-7.377l-8.423-14.168h7.377Z" fill="#34b2e2" opacity="0.5"/>
    <path id="Path_1597" data-name="Path 1597" d="M974.014,985.738h-7.377l-8.423-14.168h7.377Z" fill="#34b2e2" opacity="0.5"/>
  </g>
</svg>
